# Exported from Wings 3D 1.5.3
mtllib BaseballBat.mtl
o BaseballBat
#80 vertices, 74 faces
v -0.15072400 -3.4428650e-2 -5.9367755e-2
v -5.9367755e-2 -3.4428650e-2 -0.15072400
v -0.15072400 -3.4428650e-2 5.9367755e-2
v -5.9367755e-2 -3.4428650e-2 0.15072400
v -0.15072400 5.0305622e-2 -5.9367755e-2
v -5.9367755e-2 5.0305622e-2 -0.15072400
v -0.15072400 5.0305622e-2 5.9367755e-2
v -5.9367755e-2 5.0305622e-2 0.15072400
v 5.9367755e-2 -3.4428650e-2 -0.15072400
v 0.15072400 -3.4428650e-2 -5.9367755e-2
v 0.15072400 -3.4428650e-2 5.9367755e-2
v 5.9367755e-2 -3.4428650e-2 0.15072400
v 5.9367755e-2 5.0305622e-2 -0.15072400
v 0.15072400 5.0305622e-2 -5.9367755e-2
v 0.15072400 5.0305622e-2 5.9367755e-2
v 5.9367755e-2 5.0305622e-2 0.15072400
v -3.3523286e-2 7.3445554e-2 -8.8329932e-2
v -8.8329932e-2 7.3445554e-2 -3.3523286e-2
v -8.8329932e-2 7.3445554e-2 3.3523286e-2
v -3.3523286e-2 7.3445554e-2 8.8329932e-2
v 3.3523286e-2 7.3445554e-2 8.8329932e-2
v 8.8329932e-2 7.3445554e-2 3.3523286e-2
v 8.8329932e-2 7.3445554e-2 -3.3523286e-2
v 3.3523286e-2 7.3445554e-2 -8.8329932e-2
v -3.3523286e-2 1.26373951 -8.8329932e-2
v -8.8329932e-2 1.26373951 -3.3523286e-2
v -8.8329932e-2 1.26373951 3.3523286e-2
v -3.3523286e-2 1.26373951 8.8329932e-2
v 3.3523286e-2 1.26373951 8.8329932e-2
v 8.8329932e-2 1.26373951 3.3523286e-2
v 8.8329932e-2 1.26373951 -3.3523286e-2
v 3.3523286e-2 1.26373951 -8.8329932e-2
v -6.5936549e-2 2.58290938 -0.17373508
v -0.17373508 2.58290938 -6.5936549e-2
v -0.17373508 2.58290938 6.5936549e-2
v -6.5936549e-2 2.58290938 0.17373508
v 6.5936549e-2 2.58290938 0.17373508
v 0.17373508 2.58290938 6.5936549e-2
v 0.17373508 2.58290938 -6.5936549e-2
v 6.5936549e-2 2.58290938 -0.17373508
v -6.5936549e-2 4.09929742 -0.17373508
v -0.17373508 4.09929742 -6.5936549e-2
v -0.17373508 4.09929742 6.5936549e-2
v -6.5936549e-2 4.09929742 0.17373508
v 6.5936549e-2 4.09929742 0.17373508
v 0.17373508 4.09929742 6.5936549e-2
v 0.17373508 4.09929742 -6.5936549e-2
v 6.5936549e-2 4.09929742 -0.17373508
v -3.3523286e-2 4.25970619 -8.8329932e-2
v -8.8329932e-2 4.25970619 -3.3523286e-2
v -8.8329932e-2 4.25970619 3.3523286e-2
v -3.3523286e-2 4.25970619 8.8329932e-2
v 3.3523286e-2 4.25970619 8.8329932e-2
v 8.8329932e-2 4.25970619 3.3523286e-2
v 8.8329932e-2 4.25970619 -3.3523286e-2
v 3.3523286e-2 4.25970619 -8.8329932e-2
v 3.0841423e-2 0.30653862 -8.1263538e-2
v 3.0841423e-2 1.03064645 -8.1263538e-2
v 8.1263538e-2 0.30653862 -3.0841423e-2
v 8.1263538e-2 1.03064645 -3.0841423e-2
v 8.1263538e-2 0.30653862 3.0841423e-2
v 8.1263538e-2 1.03064645 3.0841423e-2
v 3.0841423e-2 0.30653862 8.1263538e-2
v 3.0841423e-2 1.03064645 8.1263538e-2
v -3.0841423e-2 0.30653862 8.1263538e-2
v -3.0841423e-2 1.03064645 8.1263538e-2
v -8.1263538e-2 0.30653862 3.0841423e-2
v -8.1263538e-2 1.03064645 3.0841423e-2
v -8.1263538e-2 0.30653862 -3.0841423e-2
v -8.1263538e-2 1.03064645 -3.0841423e-2
v -3.0841423e-2 0.30653862 -8.1263538e-2
v -3.0841423e-2 1.03064645 -8.1263538e-2
v -9.4866453e-2 -8.0391372e-2 3.6230802e-2
v -9.4866453e-2 -8.0391372e-2 -3.6230802e-2
v -3.6230802e-2 -8.0391372e-2 -9.4866453e-2
v 3.6230802e-2 -8.0391372e-2 -9.4866453e-2
v 9.4866453e-2 -8.0391372e-2 -3.6230802e-2
v 9.4866453e-2 -8.0391372e-2 3.6230802e-2
v 3.6230802e-2 -8.0391372e-2 9.4866453e-2
v -3.6230802e-2 -8.0391372e-2 9.4866453e-2
vt 0.13444303 0.14412103
vt 0.13540274 0.14204430
vt 0.13808666 0.14586202
vt 0.13984619 0.15339161
vt 0.14041299 0.14040718
vt 0.14735832 0.20136030
vt 0.14803094 0.14408180
vt 0.14835240 0.14242288
vt 0.14856047 0.14572685
vt 0.14950951 0.14081807
vt 0.14999818 0.15329797
vt 0.15060917 0.22167632
vt 0.15459421 0.18182729
vt 0.15682830 0.20138189
vt 0.15945655 0.22149033
vt 0.16019810 0.18181462
vt 0.16038352 0.14082104
vt 0.16042466 0.14245546
vt 0.16054099 0.14405569
vt 0.16069972 0.14565433
vt 0.16108243 0.22434811
vt 0.16171945 0.15321002
vt 0.16425472 0.22558765
vt 0.16442919 0.22364466
vt 0.16683559 0.18179513
vt 0.16771418 0.20137482
vt 0.16923517 0.22138650
vt 0.16950438 0.22335938
vt 0.16992778 0.14081074
vt 0.17010756 0.22596647
vt 0.17106840 0.14238396
vt 0.17127960 0.14562734
vt 0.17151586 0.14400656
vt 0.17185685 0.15315159
vt 0.17259618 0.18177919
vt 0.17382685 0.14752875
vt 0.17396448 0.22352879
vt 0.17449460 0.14548321
vt 0.17634143 0.22535518
vt 0.17712765 0.20134061
vt 0.17759765 0.14921635
vt 0.17765511 0.22141190
vt 0.17821650 0.22424101
vt 0.17913627 0.18175911
vt 0.17918539 0.14385238
vt 0.17951893 0.15661738
vt 0.18003113 0.14034244
vt 0.18314511 0.14566827
vt 0.18356691 0.15310201
vt 0.18495478 0.14192752
vt 0.18618153 0.14394598
vt 0.18668442 0.20386499
vt 0.18719081 0.14743786
vt 0.18727475 0.14579738
vt 0.18784878 0.22155682
vt 0.18789112 0.14905882
vt 0.18806520 0.20126912
vt 0.18815151 0.14420788
vt 0.18917862 0.14803584
vt 0.18917862 0.16135081
vt 0.18925113 0.22441106
vt 0.18950681 0.15653590
vt 0.19275501 0.18457027
vt 0.19615970 0.20388234
vt 0.19628379 0.22715681
vt 0.19830127 0.18454785
vt 0.19835782 0.22428747
vt 0.19885707 0.14413172
vt 0.19922566 0.14576850
vt 0.19956937 0.14736546
vt 0.19990294 0.14895790
vt 0.20106506 0.15646178
vt 0.20149501 0.13726140
vt 0.20149501 0.17212525
vt 0.20178035 0.22684322
vt 0.20487568 0.18451998
vt 0.20706747 0.20386225
vt 0.20857778 0.14405352
vt 0.20859689 0.22421825
vt 0.20866589 0.22672363
vt 0.20993620 0.14564389
vt 0.21046334 0.14891666
vt 0.21054943 0.18449255
vt 0.21056167 0.14728414
vt 0.21107527 0.15642009
vt 0.21480386 0.22679262
vt 0.21652479 0.20381518
vt 0.21671554 0.13726140
vt 0.21671554 0.17212525
vt 0.21697062 0.18445954
vt 0.21742787 0.22422573
vt 0.21879419 0.14353576
vt 0.22126221 0.22709246
vt 0.22238329 0.14895290
vt 0.22263913 0.15639268
vt 0.22396388 0.14512818
vt 0.22540261 0.14718422
vt 0.22750488 0.20371999
vt 0.22797571 0.22430846
vt 0.22903194 0.14803584
vt 0.22903194 0.16135081
vt 0.39840174 0.15281383
vt 0.40468476 0.17598535
vt 0.40855373 0.15272020
vt 0.41314977 0.18124951
vt 0.41398027 0.17583137
vt 0.41875365 0.18123684
vt 0.42027501 0.15263224
vt 0.42460130 0.17572680
vt 0.42539115 0.18121736
vt 0.43041241 0.15257381
vt 0.43115174 0.18120141
vt 0.43381661 0.17569045
vt 0.43769183 0.18118133
vt 0.43807448 0.15603960
vt 0.44212246 0.15252423
vt 0.44314809 0.17880006
vt 0.44461008 0.17571680
vt 0.44806237 0.15595812
vt 0.45131056 0.18399249
vt 0.45227279 0.17866368
vt 0.45685682 0.18397007
vt 0.45962061 0.15588400
vt 0.46266828 0.17857382
vt 0.46343123 0.18394221
vt 0.46910498 0.18391477
vt 0.46963082 0.15584231
vt 0.47167482 0.17855440
vt 0.47552617 0.18388176
vt 0.48119468 0.15581490
vt 0.48223471 0.17859810
vn -0.82266710 -0.45508412 -0.34075987
vn -0.34075987 -0.45508412 -0.82266710
vn -0.82266710 -0.45508412 0.34075987
vn -0.34075987 -0.45508412 0.82266710
vn -0.73803654 0.60153692 -0.30570475
vn -0.30570475 0.60153692 -0.73803654
vn -0.73803654 0.60153692 0.30570475
vn -0.30570475 0.60153692 0.73803654
vn 0.34075987 -0.45508412 -0.82266710
vn 0.82266710 -0.45508412 -0.34075987
vn 0.82266710 -0.45508412 0.34075987
vn 0.34075987 -0.45508412 0.82266710
vn 0.30570475 0.60153692 -0.73803654
vn 0.73803654 0.60153692 -0.30570475
vn 0.73803654 0.60153692 0.30570475
vn 0.30570475 0.60153692 0.73803654
vn -0.30214376 0.61370788 -0.72943251
vn -0.72943251 0.61370788 -0.30214376
vn -0.72943251 0.61370788 0.30214376
vn -0.30214376 0.61370788 0.72943251
vn 0.30214376 0.61370788 0.72943251
vn 0.72943251 0.61370788 0.30214376
vn 0.72943251 0.61370788 -0.30214376
vn 0.30214376 0.61370788 -0.72943251
vn -0.38220240 -5.0733613e-2 -0.92268490
vn -0.92268490 -5.0733613e-2 -0.38220240
vn -0.92268490 -5.0733613e-2 0.38220240
vn -0.38220240 -5.0733613e-2 0.92268490
vn 0.38220240 -5.0733613e-2 0.92268490
vn 0.92268490 -5.0733613e-2 0.38220240
vn 0.92268490 -5.0733613e-2 -0.38220240
vn 0.38220240 -5.0733613e-2 -0.92268490
vn -0.38246459 -3.4552182e-2 -0.92332388
vn -0.92332388 -3.4552182e-2 -0.38246459
vn -0.92332388 -3.4552182e-2 0.38246459
vn -0.38246459 -3.4552182e-2 0.92332388
vn 0.38246459 -3.4552182e-2 0.92332388
vn 0.92332388 -3.4552182e-2 0.38246459
vn 0.92332388 -3.4552182e-2 -0.38246459
vn 0.38246459 -3.4552182e-2 -0.92332388
vn -0.37017534 0.25818785 -0.89236161
vn -0.89236161 0.25818785 -0.37017534
vn -0.89236161 0.25818785 0.37017534
vn -0.37017534 0.25818785 0.89236161
vn 0.37017534 0.25818785 0.89236161
vn 0.89236161 0.25818785 0.37017534
vn 0.89236161 0.25818785 -0.37017534
vn 0.37017534 0.25818785 -0.89236161
vn -0.24799586 0.76307815 -0.59683314
vn -0.59683314 0.76307815 -0.24799586
vn -0.59683314 0.76307815 0.24799586
vn -0.24799586 0.76307815 0.59683314
vn 0.24799586 0.76307815 0.59683314
vn 0.59683314 0.76307815 0.24799586
vn 0.59683314 0.76307815 -0.24799586
vn 0.24799586 0.76307815 -0.59683314
vn 0.38263534 1.6199787e-2 -0.92375741
vn 0.38263534 -1.6199788e-2 -0.92375741
vn 0.92375741 1.6199787e-2 -0.38263534
vn 0.92375741 -1.6199788e-2 -0.38263534
vn 0.92375741 1.6199787e-2 0.38263534
vn 0.92375741 -1.6199788e-2 0.38263534
vn 0.38263534 1.6199787e-2 0.92375741
vn 0.38263534 -1.6199788e-2 0.92375741
vn -0.38263534 1.6199787e-2 0.92375741
vn -0.38263534 -1.6199788e-2 0.92375741
vn -0.92375741 1.6199787e-2 0.38263534
vn -0.92375741 -1.6199788e-2 0.38263534
vn -0.92375741 1.6199787e-2 -0.38263534
vn -0.92375741 -1.6199788e-2 -0.38263534
vn -0.38263534 1.6199787e-2 -0.92375741
vn -0.38263534 -1.6199788e-2 -0.92375741
vn -0.38708762 -0.90799518 0.16033694
vn -0.38708762 -0.90799518 -0.16033694
vn -0.16033694 -0.90799518 -0.38708762
vn 0.16033694 -0.90799518 -0.38708762
vn 0.38708762 -0.90799518 -0.16033694
vn 0.38708762 -0.90799518 0.16033694
vn 0.16033694 -0.90799518 0.38708762
vn -0.16033694 -0.90799518 0.38708762
g BaseballBat_BaseballBat_auv
usemtl BaseballBat_auv
s 1
f 1/96/1 5/97/5 6/84/6 2/81/2
f 1/2/1 74/5/74 73/10/73 3/8/3
f 2/81/2 75/78/75 74/92/74 1/96/1
f 3/8/3 7/7/7 5/1/5 1/2/1
f 3/8/3 73/10/73 80/17/80 4/18/4
f 4/18/4 8/19/8 7/7/7 3/8/3
f 4/18/4 12/31/12 16/33/16 8/19/8
f 4/18/4 80/17/80 79/29/79 12/31/12
f 5/97/5 18/94/18 17/82/17 6/84/6
f 6/84/6 13/70/13 9/69/9 2/81/2
f 6/84/6 17/82/17 24/71/24 13/70/13
f 7/7/7 19/9/19 18/3/18 5/1/5
f 8/19/8 20/20/20 19/9/19 7/7/7
f 9/69/9 13/70/13 14/53/14 10/54/10
f 9/69/9 76/68/76 75/78/75 2/81/2
f 10/54/10 14/53/14 15/36/15 11/38/11
f 10/54/10 77/58/77 76/68/76 9/69/9
f 11/50/11 15/51/15 16/33/16 12/31/12
f 11/38/11 78/45/78 77/58/77 10/54/10
f 12/31/12 79/29/79 78/47/78 11/50/11
f 13/70/13 24/71/24 23/56/23 14/53/14
f 14/53/14 23/56/23 22/41/22 15/36/15
f 15/51/15 22/48/22 21/32/21 16/33/16
f 16/33/16 21/32/21 20/20/20 8/19/8
f 17/82/17 71/85/71 57/72/57 24/71/24
f 18/94/18 69/95/69 71/85/71 17/82/17
f 19/9/19 67/11/67 69/4/69 18/3/18
f 20/20/20 65/22/65 67/11/67 19/9/19
f 21/32/21 63/34/63 65/22/65 20/20/20
f 22/48/22 61/49/61 63/34/63 21/32/21
f 23/56/23 59/62/59 61/46/61 22/41/22
f 24/71/24 57/72/57 59/62/59 23/56/23
f 25/83/25 33/87/33 40/77/40 32/76/32
f 25/126/25 72/128/72 70/131/70 26/129/26
f 26/90/26 34/98/34 33/87/33 25/83/25
f 26/105/26 70/103/70 68/106/68 27/107/27
f 27/16/27 35/14/35 34/6/34 26/13/26
f 27/107/27 68/106/68 66/109/66 28/110/28
f 28/25/28 36/26/36 35/14/35 27/16/27
f 28/110/28 66/109/66 64/113/64 29/112/29
f 29/35/29 37/40/37 36/26/36 28/25/28
f 29/112/29 64/113/64 62/118/62 30/114/30
f 30/44/30 38/57/38 37/40/37 29/35/29
f 30/120/30 62/117/62 60/121/60 31/122/31
f 31/66/31 39/64/39 38/52/38 30/63/30
f 31/122/31 60/121/60 58/124/58 32/125/32
f 32/76/32 40/77/40 39/64/39 31/66/31
f 32/125/32 58/124/58 72/128/72 25/126/25
f 33/87/33 41/91/41 48/79/48 40/77/40
f 34/98/34 42/99/42 41/91/41 33/87/33
f 35/14/35 43/15/43 42/12/42 34/6/34
f 36/26/36 44/27/44 43/15/43 35/14/35
f 37/40/37 45/42/45 44/27/44 36/26/36
f 38/57/38 46/55/46 45/42/45 37/40/37
f 39/64/39 47/67/47 46/61/46 38/52/38
f 40/77/40 48/79/48 47/67/47 39/64/39
f 41/91/41 49/86/49 56/80/56 48/79/48
f 42/99/42 50/93/50 49/86/49 41/91/41
f 43/15/43 51/24/51 50/21/50 42/12/42
f 44/27/44 52/28/52 51/24/51 43/15/43
f 45/42/45 53/37/53 52/28/52 44/27/44
f 46/55/46 54/43/54 53/37/53 45/42/45
f 47/67/47 55/75/55 54/65/54 46/61/46
f 48/79/48 56/80/56 55/75/55 47/67/47
f 50/21/50 51/24/51 52/28/52 53/37/53 54/43/54 55/39/55 56/30/56 49/23/49
f 57/123/57 71/127/71 72/128/72 58/124/58
f 58/124/58 60/121/60 59/119/59 57/123/57
f 60/121/60 62/117/62 61/115/61 59/119/59
f 62/118/62 64/113/64 63/111/63 61/116/61
f 64/113/64 66/109/66 65/108/65 63/111/63
f 66/109/66 68/106/68 67/104/67 65/108/65
f 68/106/68 70/103/70 69/102/69 67/104/67
f 70/131/70 72/128/72 71/127/71 69/130/69
f 74/101/74 75/89/75 76/74/76 77/60/77 78/59/78 79/73/79 80/88/80 73/100/73
