# Exported from Wings 3D 1.5.3
mtllib GolfClub.mtl
o GolfClub
#116 vertices, 114 faces
v 9.9204752e-2 0.92708081 -4.4788791e-2
v 4.7993543e-2 0.92708081 -9.6000000e-2
v 9.9204752e-2 0.92708081 4.4788791e-2
v 4.7993543e-2 0.92708081 9.6000000e-2
v 9.9204752e-2 -0.32399119 -4.4788791e-2
v 4.7993543e-2 -0.32399119 -9.6000000e-2
v 9.9204752e-2 -0.32399119 4.4788791e-2
v 4.7993543e-2 -0.32399119 9.6000000e-2
v -4.1584039e-2 0.92708081 -9.6000000e-2
v -9.2795248e-2 0.92708081 -4.4788791e-2
v -9.2795248e-2 0.92708081 4.4788791e-2
v -4.1584039e-2 0.92708081 9.6000000e-2
v -4.1584039e-2 -0.32399119 -9.6000000e-2
v -9.2795248e-2 -0.32399119 -4.4788791e-2
v -9.2795248e-2 -0.32399119 4.4788791e-2
v -4.1584039e-2 -0.32399119 9.6000000e-2
v 6.1855376e-2 0.92708081 -2.8755452e-2
v 3.1960204e-2 0.92708081 -5.8650624e-2
v -2.5550700e-2 0.92708081 -5.8650624e-2
v -5.5445872e-2 0.92708081 -2.8755452e-2
v -5.5445872e-2 0.92708081 2.8755452e-2
v -2.5550700e-2 0.92708081 5.8650624e-2
v 3.1960204e-2 0.92708081 5.8650624e-2
v 6.1855376e-2 0.92708081 2.8755452e-2
v 6.1855376e-2 4.77781249 -2.8755452e-2
v 3.1960204e-2 4.77781249 -5.8650624e-2
v -2.5550700e-2 4.77781249 -5.8650624e-2
v -5.5445872e-2 4.77781249 -2.8755452e-2
v -5.5445872e-2 4.77781249 2.8755452e-2
v -2.5550700e-2 4.77781249 5.8650624e-2
v 3.1960204e-2 4.77781249 5.8650624e-2
v 6.1855376e-2 4.77781249 2.8755452e-2
v 0.14402677 5.25833723 -0.14373605
v 0.18435678 5.27275130 0.14125595
v 0.14402677 5.14302466 -0.14373605
v 6.6365289e-2 5.06536317 -0.14373605
v 6.6365289e-2 5.06536317 0.14125595
v 0.22168826 5.06536317 0.14125595
v -6.3303739e-2 5.06536317 -0.14373605
v -6.3303739e-2 5.06536317 0.14125595
v -0.12330836 5.14099082 0.14125595
v 6.6365289e-2 5.45131130 0.14125595
v 0.15373446 5.36894342 0.14125595
v 0.22168826 5.45131130 0.14125595
v 0.14402677 5.37364981 -0.14373605
v 2.6803985e-2 5.45131130 0.14125595
v -6.8514370e-2 5.37568365 0.14125595
v 0.37101519 5.44251529 0.14125595
v 0.47631254 5.38320948 0.14125595
v 0.37655914 5.06536317 0.14125595
v 0.48707845 5.13573127 0.14125595
v 0.46666686 5.25833723 -0.14373605
v 0.51147051 5.18796913 0.14125595
v 0.51147051 5.32870533 0.14125595
v 0.43193730 5.26713324 0.14125595
v -0.11356823 5.18270958 0.14125595
v -1.8249877e-2 5.25833723 0.14125595
v -7.8254495e-2 5.33396488 0.14125595
v -1.8249877e-2 5.25833723 -0.14373605
v 0.40477324 5.37364981 -0.14373605
v -0.11356823 5.18270958 -6.6074561e-2
v -0.12330836 5.14099082 -6.6074561e-2
v 0.40477324 5.14302466 -0.14373605
v -6.3303739e-2 4.85803266 0.14125595
v 6.6365289e-2 4.85803266 0.14125595
v 6.6365289e-2 4.85803266 -0.14373605
v -6.3303739e-2 4.85803266 -0.14373605
v 1.0760806e-2 5.37364981 -0.14373605
v 0.48707845 5.13573127 -6.6074561e-2
v 0.51147051 5.18796913 -6.6074561e-2
v 0.51147051 5.32870533 -6.6074561e-2
v 0.48707845 5.38094320 -6.6074561e-2
v -6.8514370e-2 5.37568365 -6.6074561e-2
v -7.8254495e-2 5.33396488 -6.6074561e-2
v 6.6365289e-2 5.45131130 -6.6074561e-2
v 2.6803985e-2 5.45131130 -6.6074561e-2
v 0.22168826 5.06536317 -6.6074561e-2
v 0.37655914 5.06536317 -6.6074561e-2
v 0.37655914 5.45131130 -6.6074561e-2
v 0.22168826 5.45131130 -6.6074561e-2
v 6.6365289e-2 4.78037117 -6.6074561e-2
v 6.6365289e-2 4.78037117 6.3594467e-2
v -6.3303739e-2 4.78037117 6.3594467e-2
v -6.3303739e-2 4.78037117 -6.6074561e-2
v 0.14402677 4.98770168 -6.6074561e-2
v 0.14402677 4.98770168 6.3594467e-2
v 0.14402677 4.85803266 6.3594467e-2
v 0.14402677 4.85803266 -6.6074561e-2
v -0.14096523 4.98770168 6.3594467e-2
v -0.14096523 4.98770168 -6.6074561e-2
v -0.14096523 4.85803266 -6.6074561e-2
v -0.14096523 4.85803266 6.3594467e-2
v 1.5307749e-3 4.78037117 6.3594467e-2
v -6.3303739e-2 4.78037117 -1.2400471e-3
v 1.5307749e-3 4.78037117 -6.6074561e-2
v 6.6365289e-2 4.78037117 -1.2400471e-3
v -0.12965925 -0.10518463 6.1987687e-2
v 6.5192438e-2 -0.10518463 -0.13286400
v -5.8782935e-2 -0.10518463 0.13286400
v 0.13606875 -0.10518463 6.1987687e-2
v 0.13606875 -0.10518463 -6.1987687e-2
v -5.8782935e-2 -0.10518463 -0.13286400
v 6.5192438e-2 -0.10518463 0.13286400
v -0.12965925 -0.10518463 -6.1987687e-2
v 0.14402677 5.31599352 0.14125595
v 0.30534681 5.25833723 0.14125595
v 0.18285752 5.41248056 0.14125595
v 0.29912370 5.45131130 0.14125595
v 0.43181879 5.41612725 0.14125595
v 0.49927448 5.35482426 0.14125595
v 0.48906869 5.29352128 0.14125595
v 0.33593097 5.35751363 0.14125595
v 0.43181879 5.10054722 0.14125595
v 0.29912370 5.45131130 -6.6074561e-2
v 0.49927448 5.35482426 -6.6074561e-2
v 0.43181879 5.41612725 -6.6074561e-2
vt 2.6890580e-2 0.94837225
vt 2.8221437e-2 0.93815357
vt 3.0318643e-2 0.93527414
vt 3.2086246e-2 0.65774245
vt 3.2899095e-2 0.93354786
vt 3.4037296e-2 0.96411330
vt 3.4805961e-2 0.93127366
vt 3.5053080e-2 0.94503877
vt 3.8273472e-2 0.92537848
vt 3.8408205e-2 0.92979077
vt 3.8796159e-2 0.65743504
vt 3.9719263e-2 0.72605222
vt 4.0857293e-2 0.93436471
vt 4.1343130e-2 0.95481378
vt 4.1513730e-2 0.93717635
vt 4.1737489e-2 0.92295386
vt 4.2770690e-2 0.93918756
vt 4.3767884e-2 0.91996391
vt 4.3893703e-2 0.94737022
vt 4.4514919e-2 0.72558161
vt 4.4550140e-2 0.95018186
vt 4.4901311e-2 0.92926777
vt 4.5335288e-2 0.96553051
vt 4.6869169e-2 0.65718745
vt 4.7569975e-2 0.93313830
vt 4.7902509e-2 0.91876738
vt 4.7937722e-2 0.94227328
vt 4.8036674e-2 0.91496898
vt 5.0251601e-2 0.91274996
vt 5.0452692e-2 0.72517356
vt 5.0699388e-2 0.94663499
vt 5.0974132e-2 0.95527879
vt 5.1262780e-2 0.89645109
vt 5.1420089e-2 0.90968849
vt 5.2662425e-2 0.92602456
vt 5.3276727e-2 0.65705866
vt 5.3486188e-2 0.90473862
vt 5.3640371e-2 0.92926777
vt 5.3640371e-2 0.95527879
vt 5.3647611e-2 0.97312536
vt 5.3708821e-2 0.89942601
vt 5.4043757e-2 0.90223324
vt 5.4354272e-2 0.90800724
vt 5.4468868e-2 0.89634468
vt 5.5260872e-2 0.72498100
vt 5.6359736e-2 0.92051391
vt 5.6599737e-2 0.95467869
vt 5.7755277e-2 0.97539947
vt 5.8874376e-2 0.94227328
vt 5.8874376e-2 0.94615904
vt 5.8874376e-2 0.95004479
vt 6.0341165e-2 0.91348399
vt 6.0572388e-2 0.94209135
vt 6.1085706e-2 0.96330514
vt 6.1158329e-2 0.65699193
vt 6.1224338e-2 0.72491019
vt 6.1491378e-2 0.95266179
vt 6.1862944e-2 0.97767358
vt 6.2764060e-2 0.90688806
vt 6.3819749e-2 0.92475216
vt 6.4108381e-2 0.92926777
vt 6.4108381e-2 0.95527879
vt 6.4462561e-2 0.89721707
vt 6.4501031e-2 0.94913976
vt 6.4691945e-2 0.93385793
vt 6.5818593e-2 0.96735219
vt 6.6002593e-2 0.96285537
vt 6.6045727e-2 0.72494723
vt 6.6060709e-2 0.97883017
vt 6.7514832e-2 0.65702050
vt 6.7941894e-2 0.96822625
vt 6.8884315e-2 0.91722676
vt 6.9327152e-2 0.95527879
vt 6.9746559e-2 0.94227328
vt 7.0782465e-2 0.96533449
vt 7.1714338e-2 0.95037503
vt 7.1807782e-2 0.94895729
vt 7.1996677e-2 0.72515763
vt 7.2425428e-2 0.93077061
vt 7.3707523e-2 0.96845932
vt 7.4545923e-2 0.92926777
vt 7.4545923e-2 0.95527879
vt 7.4563107e-2 0.93254008
vt 7.4667320e-2 0.94156247
vt 7.4751923e-2 0.96812675
vt 7.5449286e-2 0.65715094
vt 7.5564967e-2 0.96351749
vt 7.5796323e-2 0.96779419
vt 7.5958542e-2 0.97896152
vt 7.6801714e-2 0.72546493
vt 7.7717741e-2 0.91205071
vt 7.7991937e-2 0.96607384
vt 7.8085146e-2 0.95184341
vt 7.8146421e-2 0.97839803
vt 7.8270154e-2 0.93163901
vt 7.8270154e-2 0.95290756
vt 7.9669582e-2 0.94537783
vt 8.0187552e-2 0.96435350
vt 8.0334300e-2 0.97783454
vt 8.0618743e-2 0.94227328
vt 8.0662582e-2 0.90191709
vt 8.1409663e-2 0.93939479
vt 8.1746722e-2 0.96088031
vt 8.1944868e-2 0.65734326
vt 8.1994385e-2 0.93401024
vt 8.1994385e-2 0.95053633
vt 8.2128517e-2 0.94464452
vt 8.2253668e-2 0.91926968
vt 8.2735057e-2 0.72601578
vt 8.2789360e-2 0.94113477
vt 8.2816338e-2 0.94877604
vt 8.3305891e-2 0.95740711
vt 8.3638290e-2 0.93753082
vt 8.3638290e-2 0.94701575
vt 8.3976007e-2 0.65861327
vt 8.3976007e-2 0.66460392
vt 8.4660039e-2 0.97532125
vt 8.4772436e-2 0.94898321
vt 8.4805378e-2 0.94705613
vt 8.5094564e-2 0.92186756
vt 8.6473810e-2 0.65968553
vt 8.6473810e-2 0.66353167
vt 8.7400844e-2 0.66802876
vt 8.7400844e-2 0.65518844
vt 8.8473100e-2 0.65768624
vt 8.8473100e-2 0.66553096
vt 8.8985777e-2 0.97280795
vt 9.0226169e-2 0.65770388
vt 9.2319239e-2 0.65768624
vt 9.2319239e-2 0.66553096
vt 9.3084018e-2 0.96789830
vt 9.3391496e-2 0.66802876
vt 9.3391496e-2 0.65518844
vt 9.3405296e-2 0.93200148
vt 9.4318530e-2 0.65968553
vt 9.4318530e-2 0.66353167
vt 9.4318530e-2 0.66353167
vt 9.5256575e-2 0.93544237
vt 9.6816333e-2 0.66460392
vt 9.6816333e-2 0.65861327
vt 9.6816333e-2 0.66460392
vt 9.7182259e-2 0.96298864
vt 9.8388014e-2 0.94548651
vt 9.8802095e-2 0.94919341
vt 0.53489923 0.96131856
vt 0.53533446 0.90265693
vt 0.54251547 0.96132009
vt 0.54295071 0.90265691
vt 0.54809749 0.96132110
vt 0.54853274 0.90265699
vt 0.55569173 0.96132234
vt 0.55612698 0.90265724
vt 0.56143252 0.96132329
vt 0.56186778 0.90265741
vt 0.56912854 0.96132415
vt 0.56956380 0.90265807
vt 0.57457150 0.96132525
vt 0.57500676 0.90265804
vt 0.58197501 0.96132758
vt 0.58241030 0.90265716
vt 0.58757495 0.96132891
vt 0.58801025 0.90265693
vt 0.89889736 0.91355356
vt 0.90168315 0.89649843
vt 0.90560727 0.91324615
vt 0.90727899 0.89705643
vt 0.91368028 0.91299856
vt 0.91443038 0.89723131
vt 0.92008784 0.91286977
vt 0.92044190 0.89719846
vt 0.92794097 0.89706646
vt 0.92796944 0.91280304
vt 0.93408103 0.89713663
vt 0.93432594 0.91283161
vt 0.94146254 0.89720662
vt 0.94226040 0.91296206
vt 0.94728877 0.89710552
vt 0.94875598 0.91315437
vt 0.94913463 0.96340724
vt 0.94913463 0.96939790
vt 0.95255947 0.95998241
vt 0.95255947 0.97282273
vt 0.95420546 0.89649843
vt 0.95703728 0.91351499
vt 0.95855012 0.95998241
vt 0.95855012 0.97282273
vt 0.96197496 0.96340724
vt 0.96197496 0.96939790
vn 0.0000000e+0 0.0000000e+0 -1.00000000
vn 1.6606814e-17 0.0000000e+0 1.00000000
vn 0.10979153 -0.29995601 -0.94761396
vn 0.29995603 -0.10979152 -0.94761395
vn -0.46701378 5.4026839e-2 -0.88259800
vn -7.1074783e-17 0.0000000e+0 1.00000000
vn 0.0000000e+0 0.45765239 -0.88913120
vn 0.48467957 -6.9069059e-9 -0.87469178
vn 0.0000000e+0 0.0000000e+0 1.00000000
vn 2.7678023e-17 0.0000000e+0 1.00000000
vn -0.45078882 0.10722963 -0.88616660
vn 0.30434768 0.48605385 -0.81922167
vn -0.90213680 0.21062289 -0.37654640
vn -0.91729738 0.15882826 -0.36515627
vn 0.30434768 -0.48605386 -0.81922167
vn -0.36700098 -0.36700098 0.85476345
vn 0.36700101 -0.36700098 0.85476344
vn 0.36700103 -0.36700100 -0.85476343
vn -0.36700100 -0.36700100 -0.85476344
vn -0.34126737 0.43235236 -0.83463047
vn 0.69617212 -0.63275851 -0.33905905
vn 0.92435017 -0.20409010 -0.32237244
vn 0.92435018 0.20409007 -0.32237244
vn 0.68009005 0.65539691 -0.32853068
vn -0.78383743 0.51311318 -0.34973383
vn -0.90080862 0.21279081 -0.37850219
vn 0.0000000e+0 0.92387953 -0.38268344
vn -0.31937980 0.88016769 -0.35114297
vn 0.32844825 -0.83115473 -0.44866865
vn 0.27229199 -0.89827028 -0.34491677
vn 0.26845157 0.90479706 -0.33056925
vn 0.0000000e+0 0.92387953 -0.38268344
vn 0.32011522 -0.87256885 -0.36898490
vn 0.40649702 -0.85537746 0.32107564
vn -0.31584707 -0.86143980 0.39769599
vn -0.36436419 -0.87623191 -0.31536705
vn 0.83115474 -0.32844824 -0.44866863
vn 0.77007615 -0.45110016 0.45110017
vn 0.85476345 -0.36700097 0.36700100
vn 0.85476346 -0.36700098 -0.36700098
vn -0.89847337 -7.0058793e-2 0.43340209
vn -0.92817549 5.3960429e-2 -0.36820990
vn -0.85476343 -0.36700100 -0.36700101
vn -0.85476342 -0.36700100 0.36700103
vn 1.7358104e-2 -0.88929917 0.45699637
vn -0.39862272 -0.91699743 1.4684501e-2
vn -1.4319634e-2 -0.91508484 -0.40300706
vn 0.46738668 -0.88389208 -1.6866401e-2
vn -0.92151023 -7.2212439e-2 0.38158126
vn 0.38158126 -7.2212435e-2 -0.92151023
vn -0.38158125 -7.2212437e-2 0.92151023
vn 0.92151023 -7.2212433e-2 0.38158125
vn 0.92151023 -7.2212433e-2 -0.38158125
vn -0.38158125 -7.2212437e-2 -0.92151023
vn 0.38158126 -7.2212435e-2 0.92151023
vn -0.92151023 -7.2212439e-2 -0.38158126
vn -5.3306087e-17 0.0000000e+0 1.00000000
vn 0.0000000e+0 0.0000000e+0 1.00000000
vn 0.0000000e+0 0.0000000e+0 1.00000000
vn 0.0000000e+0 0.0000000e+0 1.00000000
vn 0.0000000e+0 0.0000000e+0 1.00000000
vn 2.1062218e-2 0.96917527 -0.24547031
vn 0.85325649 0.46289936 -0.24016150
vn 0.51477677 0.83892423 -0.17666639
vn 0.0000000e+0 1.00000000 0.0000000e+0
vn 0.0000000e+0 1.00000000 0.0000000e+0
vn 0.92316819 3.9338864e-2 -0.38237803
vn 0.92316819 3.9338864e-2 -0.38237803
vn 0.0000000e+0 1.00000000 0.0000000e+0
vn 0.0000000e+0 1.00000000 0.0000000e+0
vn 0.38237803 3.9338866e-2 -0.92316818
vn 0.38237803 3.9338866e-2 -0.92316818
vn 0.0000000e+0 1.00000000 0.0000000e+0
vn 0.0000000e+0 1.00000000 0.0000000e+0
vn 0.92316819 3.9338864e-2 0.38237803
vn 0.92316819 3.9338864e-2 0.38237803
vn 0.0000000e+0 1.00000000 0.0000000e+0
vn 0.0000000e+0 1.00000000 0.0000000e+0
vn 0.38237803 3.9338866e-2 0.92316818
vn 0.38237803 3.9338866e-2 0.92316818
vn 0.0000000e+0 -1.00000000 0.0000000e+0
vn 0.90842613 -0.18260843 -0.37605336
vn 0.90842613 -0.18260843 -0.37605336
vn 0.0000000e+0 -1.00000000 0.0000000e+0
vn 0.37605337 -0.18260843 -0.90842613
vn 0.37605337 -0.18260843 -0.90842613
vn 0.0000000e+0 -1.00000000 0.0000000e+0
vn 0.90842613 -0.18260843 0.37605336
vn 0.90842613 -0.18260843 0.37605336
vn 0.0000000e+0 -1.00000000 0.0000000e+0
vn 0.37605337 -0.18260843 0.90842613
vn 0.37605337 -0.18260843 0.90842613
vn 0.0000000e+0 1.00000000 0.0000000e+0
vn 0.0000000e+0 1.00000000 0.0000000e+0
vn -0.38237803 3.9338866e-2 -0.92316819
vn -0.38237803 3.9338866e-2 -0.92316819
vn 0.0000000e+0 1.00000000 0.0000000e+0
vn 0.0000000e+0 1.00000000 0.0000000e+0
vn -0.92316818 3.9338868e-2 -0.38237803
vn -0.92316818 3.9338868e-2 -0.38237803
vn 0.0000000e+0 1.00000000 0.0000000e+0
vn 0.0000000e+0 1.00000000 0.0000000e+0
vn -0.92316818 3.9338868e-2 0.38237803
vn -0.92316818 3.9338868e-2 0.38237803
vn 0.0000000e+0 1.00000000 0.0000000e+0
vn 0.0000000e+0 1.00000000 0.0000000e+0
vn -0.38237803 3.9338866e-2 0.92316819
vn -0.38237803 3.9338866e-2 0.92316819
vn 0.0000000e+0 -1.00000000 0.0000000e+0
vn -0.37605336 -0.18260844 -0.90842613
vn -0.37605336 -0.18260844 -0.90842613
vn 0.0000000e+0 -1.00000000 0.0000000e+0
vn -0.90842612 -0.18260844 -0.37605337
vn -0.90842612 -0.18260844 -0.37605337
vn 0.0000000e+0 -1.00000000 0.0000000e+0
vn -0.90842612 -0.18260844 0.37605337
vn -0.90842612 -0.18260844 0.37605337
vn 0.0000000e+0 -1.00000000 0.0000000e+0
vn -0.37605336 -0.18260844 0.90842613
vn -0.37605336 -0.18260844 0.90842613
vn 0.0000000e+0 1.00000000 0.0000000e+0
vn 0.0000000e+0 1.00000000 0.0000000e+0
vn 0.92387953 0.0000000e+0 -0.38268343
vn 0.92387953 0.0000000e+0 -0.38268343
vn 0.0000000e+0 1.00000000 0.0000000e+0
vn 0.0000000e+0 1.00000000 0.0000000e+0
vn 0.38268343 0.0000000e+0 -0.92387953
vn 0.38268343 0.0000000e+0 -0.92387953
vn 0.0000000e+0 1.00000000 0.0000000e+0
vn 0.0000000e+0 1.00000000 0.0000000e+0
vn -0.38268343 0.0000000e+0 -0.92387953
vn -0.38268343 0.0000000e+0 -0.92387953
vn 0.0000000e+0 1.00000000 0.0000000e+0
vn 0.0000000e+0 1.00000000 0.0000000e+0
vn -0.92387953 0.0000000e+0 -0.38268343
vn -0.92387953 0.0000000e+0 -0.38268343
vn 0.0000000e+0 1.00000000 0.0000000e+0
vn 0.0000000e+0 1.00000000 0.0000000e+0
vn -0.92387953 0.0000000e+0 0.38268343
vn -0.92387953 0.0000000e+0 0.38268343
vn 0.0000000e+0 1.00000000 0.0000000e+0
vn 0.0000000e+0 1.00000000 0.0000000e+0
vn -0.38268343 0.0000000e+0 0.92387953
vn -0.38268343 0.0000000e+0 0.92387953
vn 0.0000000e+0 1.00000000 0.0000000e+0
vn 0.0000000e+0 1.00000000 0.0000000e+0
vn 0.38268343 0.0000000e+0 0.92387953
vn 0.38268343 0.0000000e+0 0.92387953
vn 0.0000000e+0 1.00000000 0.0000000e+0
vn 0.0000000e+0 1.00000000 0.0000000e+0
vn 0.92387953 0.0000000e+0 0.38268343
vn 0.92387953 0.0000000e+0 0.38268343
vn 0.32966090 -0.94377182 -2.4868442e-2
vn 0.32966090 -0.94377182 -2.4868442e-2
vn 0.92387953 0.0000000e+0 -0.38268343
vn 0.92387953 0.0000000e+0 -0.38268343
vn 7.8515783e-2 -0.97867317 -0.18982649
vn 7.8515783e-2 -0.97867317 -0.18982649
vn 0.38268343 0.0000000e+0 -0.92387953
vn 0.38268343 0.0000000e+0 -0.92387953
vn -2.0788327e-2 -0.97305133 -0.22964964
vn -2.0788327e-2 -0.97305133 -0.22964964
vn -0.38268343 0.0000000e+0 -0.92387953
vn -0.38268343 0.0000000e+0 -0.92387953
vn -0.17751378 -0.98188352 -6.6284332e-2
vn -0.17751378 -0.98188352 -6.6284332e-2
vn -0.92387953 0.0000000e+0 -0.38268343
vn -0.92387953 0.0000000e+0 -0.38268343
vn -0.22294400 -0.97459868 2.1292848e-2
vn -0.22294400 -0.97459868 2.1292848e-2
vn -0.92387953 0.0000000e+0 0.38268343
vn -0.92387953 0.0000000e+0 0.38268343
vn -6.8951747e-2 -0.96378083 0.25762795
vn -6.8951747e-2 -0.96378083 0.25762795
vn -0.38268343 0.0000000e+0 0.92387953
vn -0.38268343 0.0000000e+0 0.92387953
vn 2.5517848e-2 -0.94918955 0.31366866
vn 2.5517848e-2 -0.94918955 0.31366866
vn 0.38268343 0.0000000e+0 0.92387953
vn 0.38268343 0.0000000e+0 0.92387953
vn 0.28028838 -0.95638324 8.2277047e-2
vn 0.28028838 -0.95638324 8.2277047e-2
vn 0.92387953 0.0000000e+0 0.38268343
vn 0.92387953 0.0000000e+0 0.38268343
vn 4.1517034e-17 0.0000000e+0 1.00000000
vn 4.1517034e-17 0.0000000e+0 1.00000000
vn 0.27059805 -0.27059804 0.92387954
vn 0.27059805 -0.27059804 0.92387954
vn 0.27059805 -0.27059804 0.92387954
vn 0.0000000e+0 0.0000000e+0 1.00000000
vn 0.0000000e+0 0.0000000e+0 1.00000000
vn 0.27059805 -0.92387953 0.27059806
vn 0.27059805 -0.92387953 0.27059806
vn 0.27059805 -0.92387953 0.27059806
vn 8.3034068e-17 0.0000000e+0 1.00000000
vn -0.41482495 -0.12873886 0.90074778
vn -0.41482495 -0.12873886 0.90074778
vn -0.41482495 -0.12873886 0.90074778
vn 8.3034068e-17 0.0000000e+0 1.00000000
vn -0.94777062 -7.2957537e-3 0.31886928
vn -0.94777062 -7.2957537e-3 0.31886928
vn -0.94777062 -7.2957537e-3 0.31886928
vn -7.1074783e-17 0.0000000e+0 1.00000000
vn -7.1074783e-17 0.0000000e+0 1.00000000
vn 0.0000000e+0 1.00000000 0.0000000e+0
vn 0.0000000e+0 1.00000000 0.0000000e+0
vn -7.1074783e-17 0.0000000e+0 1.00000000
vn 0.0000000e+0 0.0000000e+0 1.00000000
vn 0.0000000e+0 1.00000000 0.0000000e+0
vn 0.0000000e+0 0.0000000e+0 1.00000000
vn 0.0000000e+0 1.00000000 0.0000000e+0
vn -2.1322435e-16 0.0000000e+0 1.00000000
vn -0.32910767 0.94429240 0.0000000e+0
vn -0.32910767 0.94429240 0.0000000e+0
vn -1.0661217e-16 0.0000000e+0 1.00000000
vn -0.84473795 0.53518015 0.0000000e+0
vn -0.84473795 0.53518015 0.0000000e+0
vn -1.0661217e-16 0.0000000e+0 1.00000000
vn 0.26981964 0.96261107 2.4026865e-2
vn 0.0000000e+0 0.0000000e+0 1.00000000
vn 0.26981964 0.96261107 2.4026865e-2
vn 0.71619853 0.69774005 1.4781358e-2
vn 0.0000000e+0 0.0000000e+0 1.00000000
vn 0.71619853 0.69774005 1.4781358e-2
vn 0.0000000e+0 0.0000000e+0 1.00000000
vn 0.27970397 -0.96008629 1.0642406e-15
vn 0.27970397 -0.96008629 1.0642406e-15
vn 0.75158210 -0.65963956 1.0642406e-15
vn 0.75158210 -0.65963956 1.0642406e-15
vn 0.0000000e+0 0.0000000e+0 1.00000000
vn 0.0000000e+0 0.0000000e+0 1.00000000
vn 0.97623958 -0.21669396 0.0000000e+0
vn 0.97623958 -0.21669396 0.0000000e+0
vn 0.0000000e+0 0.0000000e+0 1.00000000
vn 0.0000000e+0 0.0000000e+0 1.00000000
vn 0.97623959 0.21669393 0.0000000e+0
vn 0.97623959 0.21669393 0.0000000e+0
vn 0.0000000e+0 0.0000000e+0 1.00000000
vn 0.0000000e+0 0.0000000e+0 1.00000000
vn 4.1517034e-17 0.0000000e+0 1.00000000
vn 4.1517034e-17 0.0000000e+0 1.00000000
vn -0.97381151 0.22735688 0.0000000e+0
vn -0.97381151 0.22735688 0.0000000e+0
vn 0.0000000e+0 0.0000000e+0 1.00000000
vn -0.97381152 0.22735680 0.0000000e+0
vn -0.97381152 0.22735680 0.0000000e+0
vn 0.0000000e+0 0.0000000e+0 1.00000000
vn 2.9408641e-2 0.99950712 1.0983772e-2
vn 0.0000000e+0 0.0000000e+0 1.00000000
vn 0.0000000e+0 0.0000000e+0 1.00000000
vn 2.9408641e-2 0.99950712 1.0983772e-2
vn 0.51696443 0.85582616 1.7588379e-2
vn 0.0000000e+0 0.0000000e+0 1.00000000
vn 0.0000000e+0 0.0000000e+0 1.00000000
vn 0.51696443 0.85582616 1.7588379e-2
vn 0.87520081 0.48366752 9.4482243e-3
vn 0.0000000e+0 0.0000000e+0 1.00000000
vn 0.0000000e+0 0.0000000e+0 1.00000000
vn 0.87520081 0.48366752 9.4482243e-3
vn 0.0000000e+0 0.0000000e+0 1.00000000
vn 0.53707990 -0.84353137 2.0435256e-15
vn 0.0000000e+0 0.0000000e+0 1.00000000
g GolfClub_GolfClub_auv
usemtl GolfClub_auv
s 1
f 1/141/65 17/137/121 24/135/149 3/140/73
f 2/132/69 18/130/125 17/136/122 1/139/66
f 3/140/74 24/135/150 23/129/145 4/133/77
f 4/133/78 23/129/146 22/125/141 12/124/105
f 5/180/81 7/179/87 8/181/90 16/185/118 15/187/115 14/188/112 13/186/109 6/182/84
f 9/123/93 19/126/129 18/130/126 2/132/70
f 10/116/97 20/122/133 19/126/130 9/123/94
f 11/115/101 21/121/137 20/122/134 10/116/98
f 12/124/106 22/125/142 21/121/138 11/115/102
f 34/49/2 57/27/10 56/15/240 41/13/199 40/22/195 37/38/186
f 34/49/2 106/74/58 112/77/61 105/50/57
f 37/38/185 38/61/190 34/49/2
f 38/61/191 50/81/225 113/95/260 106/74/58 34/49/2
f 42/39/203 46/32/212 47/21/215 105/50/57 43/51/6
f 42/39/204 107/57/59 44/62/208
f 43/51/6 105/50/57 112/77/61 107/57/59
f 43/51/6 107/57/59 42/39/207
f 44/62/210 107/57/59 112/77/61 108/73/249
f 48/82/220 108/73/250 112/77/61 109/96/253
f 49/106/223 109/96/254 112/77/61 110/111/257
f 53/113/234 55/100/9 106/74/58 113/95/262 51/105/230
f 53/113/231 111/107/60 55/100/9
f 54/114/238 110/111/258 112/77/61 111/107/60
f 54/114/239 111/107/60 53/113/235
f 55/100/9 111/107/60 112/77/61 106/74/58
f 57/27/10 58/19/244 56/15/241
f 105/50/57 47/21/218 58/19/247 57/27/10 34/49/2
s 2
f 1/12/68 101/4/53 98/11/50 2/20/72
f 2/20/71 98/11/50 102/24/54 9/30/95
f 3/90/75 100/104/52 101/128/53 1/109/67
f 4/78/80 103/86/55 100/104/52 3/90/76
f 5/183/82 101/184/53 100/178/52 7/177/88
f 6/166/86 98/165/50 101/163/53 5/164/83
f 7/177/89 100/178/52 103/176/55 8/175/91
f 8/175/92 103/176/55 99/174/51 16/173/119
f 9/30/96 102/24/54 104/36/56 10/45/100
f 10/45/99 104/36/56 97/55/49 11/56/103
f 11/56/104 97/55/49 99/70/51 12/68/107
f 12/68/108 99/70/51 103/86/55 4/78/79
f 13/168/110 102/167/54 98/165/50 6/166/85
f 14/170/114 104/169/56 102/167/54 13/168/111
f 15/171/116 97/172/49 104/169/56 14/170/113
f 16/173/120 99/174/51 97/172/49 15/171/117
f 17/145/123 25/146/155 32/148/183 24/147/151
f 18/159/127 26/160/159 25/162/156 17/161/124
f 19/157/131 27/158/163 26/160/160 18/159/128
f 20/155/135 28/156/167 27/158/164 19/157/132
f 21/153/139 29/154/171 28/156/168 20/155/136
f 22/151/143 30/152/175 29/154/172 21/153/140
f 23/149/147 31/150/179 30/152/176 22/151/144
f 24/147/152 32/148/184 31/150/180 23/149/148
s 3
f 25/7/153 96/5/48 82/2/34 32/3/181
f 26/9/157 81/10/33 96/5/48 25/7/154
f 27/18/161 95/16/47 81/10/33 26/9/158
f 28/28/165 84/26/36 95/16/47 27/18/162
f 29/34/169 94/29/46 84/26/36 28/28/166
f 30/37/173 83/43/35 94/29/46 29/34/170
f 31/41/177 93/42/45 83/43/35 30/37/174
f 32/33/182 82/44/34 93/42/45 31/41/178
f 33/76/1 52/75/8 63/67/15 35/64/3
f 33/76/1 59/84/11 68/97/20 45/93/7
f 35/64/3 36/53/4 39/65/5 59/84/11 33/76/1
f 35/64/3 77/47/29 85/31/37 36/53/4
f 36/53/4 66/25/18 67/35/19 39/65/5
f 36/53/4 85/31/37 88/17/40 66/25/18
f 37/6/189 86/14/38 38/23/194
f 38/23/192 77/47/29 78/54/30 50/40/226
f 38/23/193 86/14/38 85/31/37 77/47/29
f 39/65/5 62/79/14 61/83/13 59/84/11
f 39/65/5 90/60/42 62/79/14
f 40/91/196 64/59/16 65/63/17 37/101/187
f 40/91/197 89/72/41 92/52/44 64/59/16
f 41/108/200 89/72/41 40/91/198
f 42/144/206 75/118/27 76/119/28 46/143/213
f 44/142/209 80/112/32 75/118/27 42/144/205
f 45/93/7 60/87/12 52/75/8 33/76/1
f 45/93/7 80/112/32 114/103/62 79/98/31 60/87/12
f 46/143/214 76/119/28 73/110/25 47/138/216
f 47/138/217 73/110/25 74/102/26 58/134/245
f 50/40/227 78/54/30 69/66/21 51/58/228 113/48/261
f 51/58/229 69/66/21 70/71/22 53/69/232
f 52/75/8 70/71/22 69/66/21 63/67/15
f 52/75/8 71/80/23 70/71/22
f 53/69/233 70/71/22 71/80/23 54/89/237
f 56/120/243 61/83/13 62/79/14 41/108/201
f 58/134/246 74/102/26 61/83/13 56/120/242
f 59/84/11 74/102/26 73/110/25 68/97/20
f 60/87/12 72/88/24 115/85/63 71/80/23 52/75/8
f 60/87/12 79/98/31 116/92/64 72/88/24
f 61/83/13 74/102/26 59/84/11
f 62/79/14 90/60/42 89/72/41 41/108/202
f 63/67/15 78/54/30 77/47/29 35/64/3
f 64/59/16 83/43/35 93/42/45 82/44/34 65/63/17
f 64/59/16 92/52/44 83/43/35
f 65/1/17 87/8/39 86/14/38 37/6/188
f 66/25/18 81/10/33 95/16/47 84/26/36 67/35/19
f 66/25/18 88/17/40 81/10/33
f 67/35/19 91/46/43 90/60/42 39/65/5
f 68/97/20 76/119/28 75/118/27 45/93/7
f 69/66/21 78/54/30 63/67/15
f 71/80/23 115/85/63 110/94/256 54/89/236
f 72/88/24 116/92/64 109/117/252 49/99/222
f 73/110/25 76/119/28 68/97/20
f 75/118/27 80/112/32 45/93/7
f 79/98/31 114/103/62 108/131/248 48/127/219
f 82/2/34 87/8/39 65/1/17
f 84/26/36 91/46/43 67/35/19
f 86/14/38 87/8/39 88/17/40 85/31/37
f 88/17/40 87/8/39 82/2/34 96/5/48 81/10/33
f 90/60/42 91/46/43 92/52/44 89/72/41
f 92/52/44 91/46/43 84/26/36 94/29/46 83/43/35
f 108/131/251 114/103/62 80/112/32 44/142/211
f 109/117/255 116/92/64 79/98/31 48/127/221
f 110/94/259 115/85/63 72/88/24 49/99/224
