# Exported from Wings 3D 1.5.3
mtllib potionBottle.mtl
o PotionLiquid
#15 vertices, 13 faces
v 0.45767105 -8.0088138e-2 2.9952720e-18
v 0.14142813 -8.0088138e-2 0.43527103
v -0.37026365 -8.0088138e-2 0.26901229
v -0.37026365 -8.0088138e-2 -0.26901229
v 0.14142813 -8.0088138e-2 -0.43527103
v 0.38277355 -0.32108946 2.3173969e-18
v 0.11828353 -0.32108946 0.36403928
v -0.30967030 -0.32108946 0.22498865
v -0.30967030 -0.32108946 -0.22498865
v 0.11828353 -0.32108946 -0.36403928
v 0.39109966 -6.8226945e-2 7.6103153e-18
v 0.12085644 -6.8226945e-2 0.37195788
v -0.31640627 -6.8226945e-2 0.22988261
v -0.31640627 -6.8226945e-2 -0.22988261
v 0.12085644 -6.8226945e-2 -0.37195788
vn 0.78459831 -0.24383456 -0.57004404
vn 0.78459831 -0.24383456 0.57004404
vn 0.17541005 0.98449546 4.1970100e-17
vn 0.17541005 0.98449546 4.1970100e-17
vn -0.29968989 -0.24383456 0.92235063
vn 0.78459831 -0.24383456 0.57004404
vn 5.4204686e-2 0.98449546 0.16682487
vn 5.4204686e-2 0.98449546 0.16682487
vn -0.96981684 -0.24383456 2.8261992e-16
vn -0.29968989 -0.24383456 0.92235063
vn -0.14190971 0.98449546 0.10310344
vn -0.14190971 0.98449546 0.10310344
vn -0.29968989 -0.24383456 -0.92235063
vn -0.96981684 -0.24383456 2.8261992e-16
vn -0.14190971 0.98449546 -0.10310344
vn -0.14190971 0.98449546 -0.10310344
vn 0.78459831 -0.24383456 -0.57004404
vn -0.29968989 -0.24383456 -0.92235063
vn 5.4204686e-2 0.98449546 -0.16682487
vn 5.4204686e-2 0.98449546 -0.16682487
vn 0.0000000e+0 -1.00000000 3.9837316e-17
vn 0.78459831 -0.24383456 -0.57004404
vn 0.78459831 -0.24383456 0.57004404
vn 0.0000000e+0 -1.00000000 3.9837316e-17
vn -0.29968989 -0.24383456 0.92235063
vn 0.78459831 -0.24383456 0.57004404
vn 0.0000000e+0 -1.00000000 3.9837316e-17
vn -0.96981684 -0.24383456 2.8261992e-16
vn -0.29968989 -0.24383456 0.92235063
vn 0.0000000e+0 -1.00000000 3.9837316e-17
vn -0.29968989 -0.24383456 -0.92235063
vn -0.96981684 -0.24383456 2.8261992e-16
vn 0.0000000e+0 -1.00000000 3.9837316e-17
vn 0.78459831 -0.24383456 -0.57004404
vn -0.29968989 -0.24383456 -0.92235063
vn 0.17541005 0.98449546 4.1970100e-17
vn 0.17541005 0.98449546 4.1970100e-17
vn 0.0000000e+0 1.00000000 3.4515303e-17
vn 5.4204686e-2 0.98449546 0.16682487
vn 5.4204686e-2 0.98449546 0.16682487
vn 0.0000000e+0 1.00000000 1.7257651e-17
vn 0.0000000e+0 1.00000000 1.7257651e-17
vn -0.14190971 0.98449546 0.10310344
vn -0.14190971 0.98449546 0.10310344
vn 0.0000000e+0 1.00000000 0.0000000e+0
vn -0.14190971 0.98449546 -0.10310344
vn -0.14190971 0.98449546 -0.10310344
vn 0.0000000e+0 1.00000000 0.0000000e+0
vn 5.4204686e-2 0.98449546 -0.16682487
vn 5.4204686e-2 0.98449546 -0.16682487
vn 0.0000000e+0 1.00000000 1.7257651e-17
vn 0.0000000e+0 1.00000000 1.7257651e-17
g PotionLiquid_default
usemtl default
s 1
f 7//24 8//27 9//30 10//33 6//21
f 11//38 15//52 12//42
f 12//41 15//51 14//48 13//45
s 2
f 2//6 7//26 6//23 1//2
f 4//14 9//32 8//28 3//9
s 3
f 1//1 6//22 10//34 5//17
f 3//10 8//29 7//25 2//5
s 4
f 5//18 10//35 9//31 4//13
s 5
f 1//4 11//37 12//39 2//7
f 2//8 12//40 13//43 3//11
f 3//12 13//44 14//46 4//15
f 4//16 14//47 15//50 5//20
f 5//19 15//49 11//36 1//3
o PotionCork
#16 vertices, 10 faces
v 0.11891095 0.80420604 -6.2908137e-18
v 8.4082740e-2 0.80420604 8.4082740e-2
v -5.0591005e-17 0.80420604 0.11891095
v -8.4082740e-2 0.80420604 8.4082740e-2
v -0.11891095 0.80420604 8.2715779e-18
v -8.4082740e-2 0.80420604 -8.4082740e-2
v -7.9715788e-17 0.80420604 -0.11891095
v 8.4082740e-2 0.80420604 -8.4082740e-2
v 8.9896679e-2 0.56638413 -5.8064920e-18
v 6.3566551e-2 0.56638413 6.3566551e-2
v -5.3549795e-17 0.56638413 8.9896679e-2
v -6.3566551e-2 0.56638413 6.3566551e-2
v -8.9896679e-2 0.56638413 5.2026760e-18
v -6.3566551e-2 0.56638413 -6.3566551e-2
v -7.5568131e-17 0.56638413 -8.9896679e-2
v 6.3566551e-2 0.56638413 -6.3566551e-2
vn 0.0000000e+0 1.00000000 -4.3375207e-16
vn 0.99264006 -0.12110209 0.0000000e+0
vn 0.99264006 -0.12110209 0.0000000e+0
vn 0.0000000e+0 1.00000000 -4.3375207e-16
vn 0.70190252 -0.12110209 0.70190252
vn 0.70190252 -0.12110209 0.70190252
vn 0.0000000e+0 1.00000000 -4.3375207e-16
vn 6.0020279e-17 -0.12110209 0.99264006
vn 6.0020279e-17 -0.12110209 0.99264006
vn 0.0000000e+0 1.00000000 -4.3375207e-16
vn -0.70190252 -0.12110209 0.70190252
vn -0.70190252 -0.12110209 0.70190252
vn 0.0000000e+0 1.00000000 -4.3375207e-16
vn -0.99264006 -0.12110209 1.8006084e-16
vn -0.99264006 -0.12110209 1.8006084e-16
vn 0.0000000e+0 1.00000000 -4.3375207e-16
vn -0.70190252 -0.12110209 -0.70190252
vn -0.70190252 -0.12110209 -0.70190252
vn 0.0000000e+0 1.00000000 -4.3375207e-16
vn -6.0020279e-17 -0.12110209 -0.99264006
vn -6.0020279e-17 -0.12110209 -0.99264006
vn 0.0000000e+0 1.00000000 -4.3375207e-16
vn 0.70190252 -0.12110209 -0.70190252
vn 0.70190252 -0.12110209 -0.70190252
vn 0.0000000e+0 -1.00000000 -3.0356937e-16
vn 0.99264006 -0.12110209 0.0000000e+0
vn 0.99264006 -0.12110209 0.0000000e+0
vn 0.0000000e+0 -1.00000000 -3.0356937e-16
vn 0.70190252 -0.12110209 0.70190252
vn 0.70190252 -0.12110209 0.70190252
vn 0.0000000e+0 -1.00000000 -3.0356937e-16
vn 6.0020279e-17 -0.12110209 0.99264006
vn 6.0020279e-17 -0.12110209 0.99264006
vn 0.0000000e+0 -1.00000000 -3.0356937e-16
vn -0.70190252 -0.12110209 0.70190252
vn -0.70190252 -0.12110209 0.70190252
vn 0.0000000e+0 -1.00000000 -3.0356937e-16
vn -0.99264006 -0.12110209 1.8006084e-16
vn -0.99264006 -0.12110209 1.8006084e-16
vn 0.0000000e+0 -1.00000000 -3.0356937e-16
vn -0.70190252 -0.12110209 -0.70190252
vn -0.70190252 -0.12110209 -0.70190252
vn 0.0000000e+0 -1.00000000 -3.0356937e-16
vn -6.0020279e-17 -0.12110209 -0.99264006
vn -6.0020279e-17 -0.12110209 -0.99264006
vn 0.0000000e+0 -1.00000000 -3.0356937e-16
vn 0.70190252 -0.12110209 -0.70190252
vn 0.70190252 -0.12110209 -0.70190252
g PotionCork_default
usemtl default
s 1
f 16//53 23//74 22//71 21//68 20//65 19//62 18//59 17//56
f 25//80 26//83 27//86 28//89 29//92 30//95 31//98 24//77
s 2
f 16//54 24//78 31//99 23//75
f 17//58 25//82 24//79 16//55
f 18//61 26//85 25//81 17//57
f 19//64 27//88 26//84 18//60
f 20//67 28//91 27//87 19//63
f 21//70 29//94 28//90 20//66
f 22//73 30//97 29//93 21//69
f 23//76 31//100 30//96 22//72
o PotionBottle
#35 vertices, 32 faces
v 0.58164954 0.10224383 7.0708985e-18
v 0.17973959 0.10224383 0.55318158
v -0.47056436 0.10224383 0.34188502
v -0.47056436 0.10224383 -0.34188502
v 0.17973959 0.10224383 -0.55318158
v 0.42581510 -0.37685099 1.7767269e-17
v 0.13158410 -0.37685099 0.40497423
v -0.34449166 -0.37685099 0.25028784
v -0.34449166 -0.37685099 -0.25028784
v 0.13158410 -0.37685099 -0.40497423
v 3.9194734e-2 0.39629957 0.12062899
v 0.12683682 0.39629957 1.5419084e-18
v 3.9194734e-2 0.39629957 -0.12062899
v -0.10261315 0.39629957 -7.4552815e-2
v -0.10261315 0.39629957 7.4552815e-2
v 3.9194734e-2 0.62443740 0.12062899
v 0.12683682 0.62443740 1.5419084e-18
v 3.9194734e-2 0.62443740 -0.12062899
v -0.10261315 0.62443740 -7.4552815e-2
v -0.10261315 0.62443740 7.4552815e-2
v 3.9194734e-2 0.66975597 0.12062899
v 0.12683682 0.66975597 1.5419084e-18
v 3.9194734e-2 0.66975597 -0.12062899
v -0.10261315 0.66975597 -7.4552815e-2
v -0.10261315 0.66975597 7.4552815e-2
v 5.5324651e-2 0.62443740 0.17027177
v 0.17903433 0.62443740 -2.0396527e-18
v 5.5324651e-2 0.62443740 -0.17027177
v -0.14484182 0.62443740 -0.10523374
v -0.14484182 0.62443740 0.10523374
v 5.5324651e-2 0.66975597 0.17027177
v 0.17903433 0.66975597 -2.0396527e-18
v 5.5324651e-2 0.66975597 -0.17027177
v -0.14484182 0.66975597 -0.10523374
v -0.14484182 0.66975597 0.10523374
vn 0.0000000e+0 1.00000000 1.8140665e-16
vn 0.0000000e+0 1.00000000 1.8140665e-16
vn 0.0000000e+0 1.00000000 1.8140665e-16
vn 0.0000000e+0 1.00000000 1.8140665e-16
vn 0.0000000e+0 1.00000000 1.8140665e-16
vn 0.78238170 -0.25448409 -0.56843358
vn 0.78238170 -0.25448409 0.56843358
vn 0.50506918 0.78118481 0.36695424
vn 0.50506918 0.78118481 -0.36695424
vn -0.29884322 -0.25448409 0.91974485
vn 0.78238170 -0.25448409 0.56843358
vn 0.50506918 0.78118481 0.36695424
vn -0.19291926 0.78118481 0.59374443
vn -0.96707696 -0.25448409 3.1931189e-16
vn -0.29884322 -0.25448409 0.91974485
vn -0.62429984 0.78118481 2.4762909e-16
vn -0.19291926 0.78118481 0.59374443
vn -0.29884322 -0.25448409 -0.91974485
vn -0.96707696 -0.25448409 3.1931189e-16
vn -0.19291926 0.78118481 -0.59374443
vn -0.62429984 0.78118481 2.4762909e-16
vn 0.78238170 -0.25448409 -0.56843358
vn -0.29884322 -0.25448409 -0.91974485
vn 0.50506918 0.78118481 -0.36695424
vn -0.19291926 0.78118481 -0.59374443
vn 0.0000000e+0 -1.00000000 -6.4381602e-17
vn 0.78238170 -0.25448409 -0.56843358
vn 0.78238170 -0.25448409 0.56843358
vn 0.0000000e+0 -1.00000000 -6.4381602e-17
vn -0.29884322 -0.25448409 0.91974485
vn 0.78238170 -0.25448409 0.56843358
vn 0.0000000e+0 -1.00000000 -6.4381602e-17
vn -0.96707696 -0.25448409 3.1931189e-16
vn -0.29884322 -0.25448409 0.91974485
vn 0.0000000e+0 -1.00000000 -6.4381602e-17
vn -0.29884322 -0.25448409 -0.91974485
vn -0.96707696 -0.25448409 3.1931189e-16
vn 0.0000000e+0 -1.00000000 -6.4381602e-17
vn 0.78238170 -0.25448409 -0.56843358
vn -0.29884322 -0.25448409 -0.91974485
vn 0.50506918 0.78118481 0.36695424
vn -0.19291926 0.78118481 0.59374443
vn 0.80901699 0.0000000e+0 0.58778525
vn -0.30901699 0.0000000e+0 0.95105652
vn 0.50506918 0.78118481 0.36695424
vn 0.50506918 0.78118481 -0.36695424
vn 0.80901699 0.0000000e+0 0.58778525
vn 0.80901699 0.0000000e+0 -0.58778525
vn 0.50506918 0.78118481 -0.36695424
vn -0.19291926 0.78118481 -0.59374443
vn 0.80901699 0.0000000e+0 -0.58778525
vn -0.30901699 0.0000000e+0 -0.95105652
vn -0.19291926 0.78118481 -0.59374443
vn -0.62429984 0.78118481 2.4762909e-16
vn -0.30901699 0.0000000e+0 -0.95105652
vn -1.00000000 0.0000000e+0 3.7229413e-16
vn -0.62429984 0.78118481 2.4762909e-16
vn -0.19291926 0.78118481 0.59374443
vn -1.00000000 0.0000000e+0 3.7229413e-16
vn -0.30901699 0.0000000e+0 0.95105652
vn 0.80901699 0.0000000e+0 0.58778525
vn -0.30901699 0.0000000e+0 0.95105652
vn 0.0000000e+0 -1.00000000 0.0000000e+0
vn 0.0000000e+0 -1.00000000 0.0000000e+0
vn 0.80901699 0.0000000e+0 0.58778525
vn 0.80901699 0.0000000e+0 -0.58778525
vn 0.0000000e+0 -1.00000000 0.0000000e+0
vn 0.0000000e+0 -1.00000000 0.0000000e+0
vn 0.80901699 0.0000000e+0 -0.58778525
vn -0.30901699 0.0000000e+0 -0.95105652
vn 0.0000000e+0 -1.00000000 0.0000000e+0
vn 0.0000000e+0 -1.00000000 0.0000000e+0
vn -0.30901699 0.0000000e+0 -0.95105652
vn -1.00000000 0.0000000e+0 3.7229413e-16
vn 0.0000000e+0 -1.00000000 0.0000000e+0
vn 0.0000000e+0 -1.00000000 0.0000000e+0
vn -1.00000000 0.0000000e+0 3.7229413e-16
vn -0.30901699 0.0000000e+0 0.95105652
vn 0.0000000e+0 -1.00000000 0.0000000e+0
vn 0.0000000e+0 -1.00000000 0.0000000e+0
vn 0.80901699 0.0000000e+0 0.58778525
vn -0.30901699 0.0000000e+0 0.95105652
vn 0.0000000e+0 -1.00000000 0.0000000e+0
vn 0.0000000e+0 -1.00000000 0.0000000e+0
vn 0.80901699 0.0000000e+0 0.58778525
vn 0.80901699 0.0000000e+0 -0.58778525
vn 0.0000000e+0 -1.00000000 0.0000000e+0
vn 0.0000000e+0 -1.00000000 0.0000000e+0
vn 0.80901699 0.0000000e+0 -0.58778525
vn -0.30901699 0.0000000e+0 -0.95105652
vn 0.0000000e+0 -1.00000000 0.0000000e+0
vn 0.0000000e+0 -1.00000000 0.0000000e+0
vn -0.30901699 0.0000000e+0 -0.95105652
vn -1.00000000 0.0000000e+0 2.6375168e-16
vn 0.0000000e+0 -1.00000000 0.0000000e+0
vn 0.0000000e+0 -1.00000000 0.0000000e+0
vn -1.00000000 0.0000000e+0 2.6375168e-16
vn -0.30901699 0.0000000e+0 0.95105652
vn 0.0000000e+0 -1.00000000 0.0000000e+0
vn 0.0000000e+0 -1.00000000 0.0000000e+0
vn 0.80901699 0.0000000e+0 0.58778525
vn -0.30901699 0.0000000e+0 0.95105652
vn 0.0000000e+0 1.00000000 0.0000000e+0
vn 0.0000000e+0 1.00000000 0.0000000e+0
vn 0.80901699 0.0000000e+0 0.58778525
vn 0.80901699 0.0000000e+0 -0.58778525
vn 0.0000000e+0 1.00000000 0.0000000e+0
vn 0.0000000e+0 1.00000000 0.0000000e+0
vn 0.80901699 0.0000000e+0 -0.58778525
vn -0.30901699 0.0000000e+0 -0.95105652
vn 0.0000000e+0 1.00000000 0.0000000e+0
vn 0.0000000e+0 1.00000000 0.0000000e+0
vn -0.30901699 0.0000000e+0 -0.95105652
vn -1.00000000 0.0000000e+0 2.6375168e-16
vn 0.0000000e+0 1.00000000 0.0000000e+0
vn 0.0000000e+0 1.00000000 0.0000000e+0
vn -1.00000000 0.0000000e+0 2.6375168e-16
vn -0.30901699 0.0000000e+0 0.95105652
vn 0.0000000e+0 1.00000000 0.0000000e+0
vn 0.0000000e+0 1.00000000 0.0000000e+0
g PotionBottle_default
usemtl default
s 1
f 33//111 38//131 37//128 32//107
f 33//113 42//142 46//158 34//117
f 35//119 40//137 39//133 34//114
f 35//120 45//153 44//150 36//125
f 44//151 49//169 48//166 43//148
f 46//159 51//177 50//174 45//156
f 48//168 58//188 57//184 47//164
f 59//190 60//193 65//213 64//210
f 62//202 66//218 61//198 57//182
s 2
f 32//108 43//145 42//141 33//112
f 34//115 39//134 38//130 33//110
f 34//116 46//157 45//154 35//121
f 36//123 41//140 40//136 35//118
f 45//155 50//173 49//170 44//152
f 47//163 57//183 61//199 51//179
f 49//171 59//191 58//187 48//167
f 57//181 58//185 63//205 62//201
f 60//194 61//197 66//217 65//214
s 3
f 36//124 44//149 43//146 32//109
f 38//129 39//132 40//135 41//138 37//126
f 42//144 47//162 51//178 46//160
f 50//176 60//196 59//192 49//172
f 58//186 59//189 64//209 63//206
s 4
f 32//106 37//127 41//139 36//122
f 43//147 48//165 47//161 42//143
f 51//180 61//200 60//195 50//175
f 52//101 62//204 63//207 53//102
f 53//102 54//103 55//104 56//105 52//101
f 53//102 63//208 64//212 54//103
f 54//103 64//211 65//215 55//104
f 55//104 65//216 66//220 56//105
f 56//105 66//219 62//203 52//101
