# Exported from Wings 3D 1.5.3
mtllib ShotgunBullet.mtl
o Cylinder2
#40 vertices, 34 faces
v 0.15800000 2.6359369e-2 0.0000000e+0
v 0.11172287 2.6359369e-2 0.11172287
v -3.7065680e-17 2.6359369e-2 0.15800000
v -0.11172287 2.6359369e-2 0.11172287
v -0.15800000 2.6359369e-2 1.9349419e-17
v -0.11172287 2.6359369e-2 -0.11172287
v -7.5764518e-17 2.6359369e-2 -0.15800000
v 0.11172287 2.6359369e-2 -0.11172287
v 0.15800000 -0.15800000 0.0000000e+0
v 0.11172287 -0.15800000 0.11172287
v -3.7065680e-17 -0.15800000 0.15800000
v -0.11172287 -0.15800000 0.11172287
v -0.15800000 -0.15800000 1.9349419e-17
v -0.11172287 -0.15800000 -0.11172287
v -7.5764518e-17 -0.15800000 -0.15800000
v 0.11172287 -0.15800000 -0.11172287
v 0.11172287 0.58389616 0.11172287
v 0.15800000 0.58389616 0.0000000e+0
v 0.11172287 0.58389616 -0.11172287
v -7.5764518e-17 0.58389616 -0.15800000
v -0.11172287 0.58389616 -0.11172287
v -0.15800000 0.58389616 1.9349419e-17
v -0.11172287 0.58389616 0.11172287
v -3.7065680e-17 0.58389616 0.15800000
v 0.18974572 -0.16529000 -4.1025949e-18
v 0.13417049 -0.16529000 0.13417049
v -3.9520151e-17 -0.16529000 0.18974572
v -0.13417049 -0.16529000 0.13417049
v -0.18974572 -0.16529000 2.6447829e-17
v -0.13417049 -0.16529000 -0.13417049
v -7.9826115e-17 -0.16529000 -0.18974572
v 0.13417049 -0.16529000 -0.13417049
v 0.18974572 -0.20602119 -4.1025949e-18
v 0.13417049 -0.20602119 0.13417049
v -3.9520151e-17 -0.20602119 0.18974572
v -0.13417049 -0.20602119 0.13417049
v -0.18974572 -0.20602119 2.6447829e-17
v -0.13417049 -0.20602119 -0.13417049
v -7.9826115e-17 -0.20602119 -0.18974572
v 0.13417049 -0.20602119 -0.13417049
vt 0.41941559 0.16953543
vt 0.41941559 0.19593212
vt 0.42047538 0.19337356
vt 0.42047538 0.19849068
vt 0.42303393 0.19231378
vt 0.42303393 0.19955047
vt 0.42559249 0.19337356
vt 0.42559249 0.19849068
vt 0.42665228 0.19593212
vt 0.42683485 0.17553972
vt 0.42823353 0.16588292
vt 0.43425643 0.17168496
vt 0.43495461 0.17178609
vt 0.43541851 0.17842620
vt 0.43635096 0.17198833
vt 0.43728341 0.16555047
vt 0.43774731 0.17219058
vt 0.43844549 0.17229170
vt 0.44446840 0.17809374
vt 0.44586708 0.16843695
vt 0.45328633 0.17444123
vt 0.54284593 0.18447878
vt 0.54368976 0.18900864
vt 0.54466842 0.18007891
vt 0.54569254 0.18625744
vt 0.54655424 0.18507373
vt 0.54825977 0.18841987
vt 0.54827764 0.18270631
vt 0.54829551 0.17699274
vt 0.55000104 0.18033889
vt 0.55086274 0.17915518
vt 0.55188687 0.18533370
vt 0.55286552 0.17640397
vt 0.55370935 0.18093383
vt 0.66280448 0.18998199
vt 0.66308362 0.19458417
vt 0.66315792 0.18538492
vt 0.66401357 0.19693600
vt 0.66401500 0.19675858
vt 0.66403322 0.19450312
vt 0.66406965 0.18999221
vt 0.66410608 0.18548130
vt 0.66412429 0.18322584
vt 0.66412573 0.18304842
vt 0.66498138 0.19459949
vt 0.66505568 0.18540025
vt 0.66533482 0.19000243
vt 0.67619824 0.18741309
vt 0.67694566 0.18741283
vt 0.67747537 0.18432648
vt 0.67747758 0.19049909
vt 0.67800394 0.18485489
vt 0.67800605 0.18997047
vt 0.68056157 0.18379584
vt 0.68056161 0.18304842
vt 0.68056397 0.19177752
vt 0.68056401 0.19103010
vt 0.68311953 0.18485546
vt 0.68312163 0.18997105
vt 0.68364799 0.18432684
vt 0.68365020 0.19049946
vt 0.68417992 0.18741311
vt 0.68492734 0.18739377
vt 0.68492734 0.18741284
vt 0.68620006 0.18432114
vt 0.68620006 0.19046640
vt 0.68927269 0.18304842
vt 0.68927269 0.19173913
vt 0.69234532 0.18432114
vt 0.69234532 0.19046640
vt 0.69361804 0.18739377
vn 1.00000000 0.0000000e+0 -1.2016967e-16
vn 1.00000000 0.0000000e+0 -1.2016967e-16
vn 1.00000000 0.0000000e+0 -9.0127256e-17
vn 1.00000000 0.0000000e+0 -9.0127256e-17
vn 0.70710678 0.0000000e+0 0.70710678
vn 0.70710678 0.0000000e+0 0.70710678
vn 0.70710678 0.0000000e+0 0.70710678
vn 0.70710678 0.0000000e+0 0.70710678
vn 0.0000000e+0 0.0000000e+0 1.00000000
vn 0.0000000e+0 0.0000000e+0 1.00000000
vn 0.0000000e+0 0.0000000e+0 1.00000000
vn 0.0000000e+0 0.0000000e+0 1.00000000
vn -0.70710678 0.0000000e+0 0.70710678
vn -0.70710678 0.0000000e+0 0.70710678
vn -0.70710678 0.0000000e+0 0.70710678
vn -0.70710678 0.0000000e+0 0.70710678
vn -1.00000000 0.0000000e+0 1.8025451e-16
vn -1.00000000 0.0000000e+0 1.8025451e-16
vn -1.00000000 0.0000000e+0 2.1029693e-16
vn -1.00000000 0.0000000e+0 2.1029693e-16
vn -0.70710678 0.0000000e+0 -0.70710678
vn -0.70710678 0.0000000e+0 -0.70710678
vn -0.70710678 0.0000000e+0 -0.70710678
vn -0.70710678 0.0000000e+0 -0.70710678
vn -1.2016967e-16 0.0000000e+0 -1.00000000
vn -1.2016967e-16 0.0000000e+0 -1.00000000
vn -1.5021209e-16 0.0000000e+0 -1.00000000
vn -1.5021209e-16 0.0000000e+0 -1.00000000
vn 0.70710678 0.0000000e+0 -0.70710678
vn 0.70710678 0.0000000e+0 -0.70710678
vn 0.70710678 0.0000000e+0 -0.70710678
vn 0.70710678 0.0000000e+0 -0.70710678
vn 1.00000000 0.0000000e+0 -1.2016967e-16
vn 1.00000000 0.0000000e+0 -1.2016967e-16
vn 0.22381182 0.97463238 -2.7874591e-17
vn 0.22381182 0.97463238 -2.7874591e-17
vn 0.70710678 0.0000000e+0 0.70710678
vn 0.70710678 0.0000000e+0 0.70710678
vn 0.15825885 0.97463238 0.15825885
vn 0.15825885 0.97463238 0.15825885
vn 0.0000000e+0 0.0000000e+0 1.00000000
vn 0.0000000e+0 0.0000000e+0 1.00000000
vn 6.2717831e-17 0.97463238 0.22381182
vn 6.2717831e-17 0.97463238 0.22381182
vn -0.70710678 0.0000000e+0 0.70710678
vn -0.70710678 0.0000000e+0 0.70710678
vn -0.15825885 0.97463238 0.15825885
vn -0.15825885 0.97463238 0.15825885
vn -1.00000000 0.0000000e+0 1.8025451e-16
vn -1.00000000 0.0000000e+0 1.8025451e-16
vn -0.22381182 0.97463238 4.8780535e-17
vn -0.22381182 0.97463238 4.8780535e-17
vn -0.70710678 0.0000000e+0 -0.70710678
vn -0.70710678 0.0000000e+0 -0.70710678
vn -0.15825885 0.97463238 -0.15825885
vn -0.15825885 0.97463238 -0.15825885
vn -1.2016967e-16 0.0000000e+0 -1.00000000
vn -1.2016967e-16 0.0000000e+0 -1.00000000
vn -4.8780535e-17 0.97463238 -0.22381182
vn -4.8780535e-17 0.97463238 -0.22381182
vn 0.70710678 0.0000000e+0 -0.70710678
vn 0.70710678 0.0000000e+0 -0.70710678
vn 0.15825885 0.97463238 -0.15825885
vn 0.15825885 0.97463238 -0.15825885
vn 0.0000000e+0 1.00000000 0.0000000e+0
vn 0.70710678 0.0000000e+0 0.70710678
vn 0.70710678 0.0000000e+0 0.70710678
vn 0.0000000e+0 1.00000000 0.0000000e+0
vn 1.00000000 0.0000000e+0 -9.0127256e-17
vn 1.00000000 0.0000000e+0 -9.0127256e-17
vn 0.0000000e+0 1.00000000 0.0000000e+0
vn 0.70710678 0.0000000e+0 -0.70710678
vn 0.70710678 0.0000000e+0 -0.70710678
vn 0.0000000e+0 1.00000000 0.0000000e+0
vn -1.5021209e-16 0.0000000e+0 -1.00000000
vn -1.5021209e-16 0.0000000e+0 -1.00000000
vn 0.0000000e+0 1.00000000 0.0000000e+0
vn -0.70710678 0.0000000e+0 -0.70710678
vn -0.70710678 0.0000000e+0 -0.70710678
vn 0.0000000e+0 1.00000000 0.0000000e+0
vn -1.00000000 0.0000000e+0 2.1029693e-16
vn -1.00000000 0.0000000e+0 2.1029693e-16
vn 0.0000000e+0 1.00000000 0.0000000e+0
vn -0.70710678 0.0000000e+0 0.70710678
vn -0.70710678 0.0000000e+0 0.70710678
vn 0.0000000e+0 1.00000000 0.0000000e+0
vn 0.0000000e+0 0.0000000e+0 1.00000000
vn 0.0000000e+0 0.0000000e+0 1.00000000
vn 1.00000000 0.0000000e+0 -1.2016967e-16
vn 1.00000000 0.0000000e+0 -1.2016967e-16
vn 0.22381182 0.97463238 -2.7874591e-17
vn 0.22381182 0.97463238 -2.7874591e-17
vn 0.70710678 0.0000000e+0 0.70710678
vn 0.70710678 0.0000000e+0 0.70710678
vn 0.15825885 0.97463238 0.15825885
vn 0.15825885 0.97463238 0.15825885
vn 1.8025451e-16 0.0000000e+0 1.00000000
vn 1.8025451e-16 0.0000000e+0 1.00000000
vn 6.2717831e-17 0.97463238 0.22381182
vn 6.2717831e-17 0.97463238 0.22381182
vn -0.70710678 0.0000000e+0 0.70710678
vn -0.70710678 0.0000000e+0 0.70710678
vn -0.15825885 0.97463238 0.15825885
vn -0.15825885 0.97463238 0.15825885
vn -1.00000000 0.0000000e+0 1.8025451e-16
vn -1.00000000 0.0000000e+0 1.8025451e-16
vn -0.22381182 0.97463238 4.8780535e-17
vn -0.22381182 0.97463238 4.8780535e-17
vn -0.70710678 0.0000000e+0 -0.70710678
vn -0.70710678 0.0000000e+0 -0.70710678
vn -0.15825885 0.97463238 -0.15825885
vn -0.15825885 0.97463238 -0.15825885
vn -1.8025451e-16 0.0000000e+0 -1.00000000
vn -1.8025451e-16 0.0000000e+0 -1.00000000
vn -4.8780535e-17 0.97463238 -0.22381182
vn -4.8780535e-17 0.97463238 -0.22381182
vn 0.70710678 0.0000000e+0 -0.70710678
vn 0.70710678 0.0000000e+0 -0.70710678
vn 0.15825885 0.97463238 -0.15825885
vn 0.15825885 0.97463238 -0.15825885
vn 1.00000000 0.0000000e+0 -1.2016967e-16
vn 1.00000000 0.0000000e+0 -1.2016967e-16
vn 0.0000000e+0 -1.00000000 0.0000000e+0
vn 0.70710678 0.0000000e+0 0.70710678
vn 0.70710678 0.0000000e+0 0.70710678
vn 0.0000000e+0 -1.00000000 0.0000000e+0
vn 1.8025451e-16 0.0000000e+0 1.00000000
vn 1.8025451e-16 0.0000000e+0 1.00000000
vn 0.0000000e+0 -1.00000000 0.0000000e+0
vn -0.70710678 0.0000000e+0 0.70710678
vn -0.70710678 0.0000000e+0 0.70710678
vn 0.0000000e+0 -1.00000000 0.0000000e+0
vn -1.00000000 0.0000000e+0 1.8025451e-16
vn -1.00000000 0.0000000e+0 1.8025451e-16
vn 0.0000000e+0 -1.00000000 0.0000000e+0
vn -0.70710678 0.0000000e+0 -0.70710678
vn -0.70710678 0.0000000e+0 -0.70710678
vn 0.0000000e+0 -1.00000000 0.0000000e+0
vn -1.8025451e-16 0.0000000e+0 -1.00000000
vn -1.8025451e-16 0.0000000e+0 -1.00000000
vn 0.0000000e+0 -1.00000000 0.0000000e+0
vn 0.70710678 0.0000000e+0 -0.70710678
vn 0.70710678 0.0000000e+0 -0.70710678
vn 0.0000000e+0 -1.00000000 0.0000000e+0
g Cylinder2_Cylinder2_auv
usemtl Cylinder2_auv
s 1
f 9/62/36 25/64/92 32/61/120 16/59/64
f 10/58/39 26/60/95 25/64/91 9/62/35
f 11/54/44 27/55/100 26/60/96 10/58/40
f 12/52/48 28/50/104 27/55/99 11/54/43
f 13/49/52 29/48/108 28/50/103 12/52/47
f 14/53/56 30/51/112 29/48/107 13/49/51
f 15/57/59 31/56/115 30/51/111 14/53/55
f 16/59/63 32/61/119 31/56/116 15/57/60
f 18/9/68 19/8/71 20/6/74 21/4/77 22/2/80 23/3/83 24/5/86 17/7/65
f 39/68/141 40/66/144 33/63/123 34/65/126 35/67/129 36/69/132 37/71/135 38/70/138
s 2
f 1/13/3 18/10/69 17/1/66 2/12/7
f 2/12/8 17/1/67 24/11/88 3/13/12
f 3/13/11 24/11/87 23/16/85 4/15/16
f 4/15/15 23/16/84 22/20/82 5/17/20
f 5/17/19 22/20/81 21/21/79 6/18/24
f 6/18/23 21/21/78 20/19/76 7/17/28
f 7/17/27 20/19/75 19/14/73 8/15/32
f 8/15/31 19/14/72 18/10/70 1/13/4
f 25/40/89 26/41/93 34/47/124 33/45/121
f 26/41/94 27/42/97 35/46/127 34/47/125
f 27/42/98 28/43/101 36/44/130 35/46/128
f 28/43/102 29/42/105 37/37/133 36/44/131
f 29/42/106 30/41/109 38/35/136 37/37/134
f 30/41/110 31/40/113 39/36/139 38/35/137
f 31/40/114 32/39/117 40/38/142 39/36/140
f 33/45/122 40/38/143 32/39/118 25/40/90
s 3
f 1/22/1 9/26/33 16/25/61 8/23/29
f 2/24/6 10/28/38 9/26/34 1/22/2
f 3/29/10 11/30/42 10/28/37 2/24/5
f 4/33/14 12/31/46 11/30/41 3/29/9
f 5/34/18 13/30/50 12/31/45 4/33/13
f 6/32/22 14/28/54 13/30/49 5/34/17
f 7/27/26 15/26/58 14/28/53 6/32/21
f 8/23/30 16/25/62 15/26/57 7/27/25
