# Exported from Wings 3D 1.5.3
mtllib Silencer.mtl
o Silencer
#64 vertices, 58 faces
v 0.19000000 7.3432833e-3 1.83238765
v 0.13435029 -0.12700701 1.83238765
v -3.8950392e-17 -0.18265672 1.83238765
v -0.13435029 -0.12700701 1.83238765
v -0.19000000 7.3432833e-3 1.83238765
v -0.13435029 0.14169357 1.83238765
v -8.5486970e-17 0.19734328 1.83238765
v 0.13435029 0.14169357 1.83238765
v 0.19000000 7.3432833e-3 -0.15729235
v 0.13435029 -0.12700701 -0.15729235
v -3.8950392e-17 -0.18265672 -0.15729235
v -0.13435029 -0.12700701 -0.15729235
v -0.19000000 7.3432833e-3 -0.15729235
v -0.13435029 0.14169357 -0.15729235
v -8.5486970e-17 0.19734328 -0.15729235
v 0.13435029 0.14169357 -0.15729235
v 8.4909382e-2 -7.7566099e-2 1.20926317
v 0.12008000 7.3432833e-3 1.20926317
v 8.4909382e-2 9.2252666e-2 1.20926317
v -7.7009382e-17 0.12742328 1.20926317
v -8.4909382e-2 9.2252666e-2 1.20926317
v -0.12008000 7.3432833e-3 1.20926317
v -8.4909382e-2 -7.7566099e-2 1.20926317
v -4.7598264e-17 -0.11273672 1.20926317
v 8.4909382e-2 -7.7566099e-2 1.84802072
v 0.11402673 -0.10668345 1.86395765
v 0.12008000 7.3432833e-3 1.84802072
v 0.16125815 7.3432833e-3 1.86395765
v 8.4909382e-2 9.2252666e-2 1.84802072
v 0.11402673 0.12137002 1.86395765
v -7.7009382e-17 0.12742328 1.84802072
v -8.2002108e-17 0.16860144 1.86395765
v -8.4909382e-2 9.2252666e-2 1.84802072
v -0.11402673 0.12137002 1.86395765
v -0.12008000 7.3432833e-3 1.84802072
v -0.16125815 7.3432833e-3 1.86395765
v -8.4909382e-2 -7.7566099e-2 1.84802072
v -0.11402673 -0.10668345 1.86395765
v -4.7598264e-17 -0.11273672 1.84802072
v -4.2505252e-17 -0.15391487 1.86395765
v 0.13435029 0.14169357 0.43384589
v -8.5486970e-17 0.19734328 0.43384589
v -0.13435029 0.14169357 0.43384589
v -0.19000000 7.3432833e-3 0.43384589
v -0.13435029 -0.12700701 0.43384589
v -3.8950392e-17 -0.18265672 0.43384589
v 0.13435029 -0.12700701 0.43384589
v 0.19000000 7.3432833e-3 0.43384589
v 0.11400000 7.3432833e-3 -0.15729235
v 8.0610173e-2 -7.3266890e-2 -0.15729235
v -5.4932959e-17 -0.10665672 -0.15729235
v -8.0610173e-2 -7.3266890e-2 -0.15729235
v -0.11400000 7.3432833e-3 -0.15729235
v -8.0610173e-2 8.7953456e-2 -0.15729235
v -8.5486970e-17 0.12134328 -0.15729235
v 8.0610173e-2 8.7953456e-2 -0.15729235
v 0.11400000 7.3432833e-3 -0.22462204
v 8.0610173e-2 -7.3266890e-2 -0.22462204
v -5.4932959e-17 -0.10665672 -0.22462204
v -8.0610173e-2 -7.3266890e-2 -0.22462204
v -0.11400000 7.3432833e-3 -0.22462204
v -8.0610173e-2 8.7953456e-2 -0.22462204
v -8.5486970e-17 0.12134328 -0.22462204
v 8.0610173e-2 8.7953456e-2 -0.22462204
vt 0.18061422 0.69952134
vt 0.18061422 0.68961066
vt 0.18138258 0.69410624
vt 0.18220026 0.69569229
vt 0.18220026 0.70335039
vt 0.18221093 0.69278226
vt 0.18295268 0.68396512
vt 0.18360201 0.69055885
vt 0.18576144 0.69283102
vt 0.18602932 0.69410624
vt 0.18602932 0.70493644
vt 0.18638416 0.68611202
vt 0.18700688 0.67939303
vt 0.18916632 0.68166520
vt 0.18981565 0.68825893
vt 0.18985837 0.69569229
vt 0.18985837 0.70335039
vt 0.19055739 0.67944179
vt 0.19138575 0.67811780
vt 0.19144441 0.69952134
vt 0.19215411 0.68261339
vt 0.92001472 0.80454242
vt 0.92010249 0.81514302
vt 0.92401340 0.79472452
vt 0.92446288 0.82566992
vt 0.92773495 0.80602113
vt 0.92774301 0.80671097
vt 0.92799735 0.80538309
vt 0.92801926 0.80710233
vt 0.92820173 0.80612588
vt 0.92820479 0.80611112
vt 0.92820495 0.80613288
vt 0.92820673 0.80612360
vt 0.92820681 0.80611151
vt 0.92820706 0.80611872
vt 0.92820740 0.80609628
vt 0.92820822 0.80611894
vt 0.92820841 0.80611405
vt 0.92820869 0.80611411
vt 0.92820873 0.80611316
vt 0.92820896 0.80611194
vt 0.92820896 0.80611192
vt 0.92820897 0.80611190
vt 0.92820920 0.80611069
vt 0.92820923 0.80610974
vt 0.92820952 0.80610979
vt 0.92820971 0.80610490
vt 0.92821053 0.80612757
vt 0.92821087 0.80610513
vt 0.92821111 0.80611233
vt 0.92821120 0.80610025
vt 0.92821298 0.80609097
vt 0.92821314 0.80611272
vt 0.92821620 0.80609796
vt 0.92839866 0.80512151
vt 0.92842058 0.80684075
vt 0.92867492 0.80551287
vt 0.92868298 0.80620271
vt 0.93195505 0.78655392
vt 0.93240453 0.81749932
vt 0.93631544 0.79708082
vt 0.93640321 0.80768143
vt 0.94068089 0.79114820
vt 0.94332429 0.78476644
vt 0.94332429 0.79752995
vt 0.94429095 0.79114820
vt 0.94587700 0.78731914
vt 0.94587700 0.79497725
vt 0.94970605 0.78212303
vt 0.94970605 0.78573310
vt 0.94970605 0.79656329
vt 0.94970605 0.80017336
vt 0.95353510 0.78731914
vt 0.95353510 0.79497725
vt 0.95512115 0.79114820
vt 0.95608780 0.78476644
vt 0.95608780 0.79752995
vt 0.95873121 0.79114820
vn 0.93017234 4.7490299e-17 0.36712316
vn 0.65773117 -0.65773117 0.36712316
vn 1.4247090e-16 -0.93017234 0.36712316
vn -0.65773117 -0.65773117 0.36712316
vn -0.93017234 -1.7413110e-16 0.36712316
vn -0.65773117 0.65773117 0.36712316
vn -6.3320398e-17 0.93017234 0.36712316
vn 0.65773117 0.65773117 0.36712316
vn -0.62187582 0.62187582 0.47596315
vn -0.87946522 5.2842525e-17 0.47596315
vn -0.62187582 -0.62187582 0.47596315
vn 3.4347641e-16 -0.87946522 0.47596315
vn 0.62187582 -0.62187582 0.47596315
vn 0.87946522 2.1137010e-16 0.47596315
vn 0.62187582 0.62187582 0.47596315
vn 1.0568505e-16 0.87946522 0.47596315
vn -0.57381378 0.57381378 0.58435904
vn 0.15425610 -0.15425610 0.97591501
vn -0.81149523 4.3962149e-17 0.58435904
vn 0.21815107 8.6483144e-18 0.97591501
vn -0.57381378 -0.57381378 0.58435904
vn 0.15425610 0.15425610 0.97591501
vn 1.3188645e-16 -0.81149523 0.58435904
vn 8.6483144e-18 0.21815107 0.97591501
vn 0.57381378 -0.57381378 0.58435904
vn -0.15425610 0.15425610 0.97591501
vn 0.81149523 2.1981075e-16 0.58435904
vn -0.21815107 8.6483144e-18 0.97591501
vn 0.57381378 0.57381378 0.58435904
vn -0.15425610 -0.15425610 0.97591501
vn -7.0339439e-17 0.81149523 0.58435904
vn 5.1889886e-17 -0.21815107 0.97591501
vn 0.70710678 0.70710678 -6.3515051e-17
vn -1.0514846e-16 1.00000000 -9.2746354e-17
vn -0.70710678 0.70710678 -5.0904972e-17
vn -1.00000000 -2.4033935e-16 3.1525197e-18
vn -0.70710678 -0.70710678 4.4248030e-17
vn 1.2016967e-16 -1.00000000 5.8941093e-17
vn 0.70710678 -0.70710678 3.7731888e-17
vn 1.00000000 6.0084837e-17 -1.7873626e-18
vn 1.00000000 3.0042419e-17 -8.1909423e-18
vn 1.00000000 3.0042419e-17 -8.1909423e-18
vn 0.0000000e+0 0.0000000e+0 -1.00000000
vn 0.0000000e+0 0.0000000e+0 -1.00000000
vn 0.70710678 -0.70710678 3.2763769e-17
vn 0.70710678 -0.70710678 3.2763769e-17
vn 0.0000000e+0 0.0000000e+0 -1.00000000
vn 0.0000000e+0 0.0000000e+0 -1.00000000
vn 1.2016967e-16 -1.00000000 6.8257852e-17
vn 1.2016967e-16 -1.00000000 6.8257852e-17
vn 0.0000000e+0 0.0000000e+0 -1.00000000
vn 0.0000000e+0 0.0000000e+0 -1.00000000
vn -0.70710678 -0.70710678 5.7336596e-17
vn -0.70710678 -0.70710678 5.7336596e-17
vn 0.0000000e+0 0.0000000e+0 -1.00000000
vn 0.0000000e+0 0.0000000e+0 -1.00000000
vn -1.00000000 -2.7038177e-16 1.0921256e-17
vn -1.00000000 -2.7038177e-16 1.0921256e-17
vn 0.0000000e+0 0.0000000e+0 -1.00000000
vn 0.0000000e+0 0.0000000e+0 -1.00000000
vn -0.70710678 0.70710678 -4.6415340e-17
vn -0.70710678 0.70710678 -4.6415340e-17
vn 0.0000000e+0 0.0000000e+0 -1.00000000
vn 0.0000000e+0 0.0000000e+0 -1.00000000
vn -9.0127256e-17 1.00000000 -1.1740351e-16
vn -9.0127256e-17 1.00000000 -1.1740351e-16
vn 0.0000000e+0 0.0000000e+0 -1.00000000
vn 0.0000000e+0 0.0000000e+0 -1.00000000
vn 0.70710678 0.70710678 -9.0100365e-17
vn 0.70710678 0.70710678 -9.0100365e-17
vn 0.0000000e+0 0.0000000e+0 -1.00000000
vn 0.0000000e+0 0.0000000e+0 -1.00000000
vn 0.0000000e+0 0.0000000e+0 -1.00000000
vn 0.0000000e+0 0.0000000e+0 -1.00000000
vn 1.00000000 9.0127256e-17 0.0000000e+0
vn 1.00000000 9.0127256e-17 0.0000000e+0
vn 0.0000000e+0 0.0000000e+0 -1.00000000
vn 0.0000000e+0 0.0000000e+0 -1.00000000
vn 0.70710678 -0.70710678 0.0000000e+0
vn 0.70710678 -0.70710678 0.0000000e+0
vn 0.0000000e+0 0.0000000e+0 -1.00000000
vn 0.0000000e+0 0.0000000e+0 -1.00000000
vn 2.4033935e-16 -1.00000000 0.0000000e+0
vn 2.4033935e-16 -1.00000000 0.0000000e+0
vn 0.0000000e+0 0.0000000e+0 -1.00000000
vn 0.0000000e+0 0.0000000e+0 -1.00000000
vn -0.70710678 -0.70710678 0.0000000e+0
vn -0.70710678 -0.70710678 0.0000000e+0
vn 0.0000000e+0 0.0000000e+0 -1.00000000
vn 0.0000000e+0 0.0000000e+0 -1.00000000
vn -1.00000000 -3.0042419e-17 0.0000000e+0
vn -1.00000000 -3.0042419e-17 0.0000000e+0
vn 0.0000000e+0 0.0000000e+0 -1.00000000
vn 0.0000000e+0 0.0000000e+0 -1.00000000
vn -0.70710678 0.70710678 0.0000000e+0
vn -0.70710678 0.70710678 0.0000000e+0
vn 0.0000000e+0 0.0000000e+0 -1.00000000
vn 0.0000000e+0 0.0000000e+0 -1.00000000
vn -6.0084837e-17 1.00000000 0.0000000e+0
vn -6.0084837e-17 1.00000000 0.0000000e+0
vn 0.0000000e+0 0.0000000e+0 -1.00000000
vn 0.0000000e+0 0.0000000e+0 -1.00000000
vn 0.70710678 0.70710678 0.0000000e+0
vn 0.70710678 0.70710678 0.0000000e+0
vn 0.0000000e+0 0.0000000e+0 -1.00000000
vn 1.00000000 9.0127256e-17 0.0000000e+0
vn 1.00000000 9.0127256e-17 0.0000000e+0
vn 0.0000000e+0 0.0000000e+0 -1.00000000
vn 0.70710678 -0.70710678 0.0000000e+0
vn 0.70710678 -0.70710678 0.0000000e+0
vn 0.0000000e+0 0.0000000e+0 -1.00000000
vn 2.4033935e-16 -1.00000000 0.0000000e+0
vn 2.4033935e-16 -1.00000000 0.0000000e+0
vn 0.0000000e+0 0.0000000e+0 -1.00000000
vn -0.70710678 -0.70710678 0.0000000e+0
vn -0.70710678 -0.70710678 0.0000000e+0
vn 0.0000000e+0 0.0000000e+0 -1.00000000
vn -1.00000000 -3.0042419e-17 0.0000000e+0
vn -1.00000000 -3.0042419e-17 0.0000000e+0
vn 0.0000000e+0 0.0000000e+0 -1.00000000
vn -0.70710678 0.70710678 0.0000000e+0
vn -0.70710678 0.70710678 0.0000000e+0
vn 0.0000000e+0 0.0000000e+0 -1.00000000
vn -6.0084837e-17 1.00000000 0.0000000e+0
vn -6.0084837e-17 1.00000000 0.0000000e+0
vn 0.0000000e+0 0.0000000e+0 -1.00000000
vn 0.70710678 0.70710678 0.0000000e+0
vn 0.70710678 0.70710678 0.0000000e+0
g Silencer_Cylinder1_auv
usemtl Cylinder1_auv
s 1
f 9/63/44 49/66/74 56/68/102 16/65/72
f 10/64/47 50/67/77 49/66/73 9/63/43
f 11/69/51 51/70/81 50/67/78 10/64/48
f 12/76/55 52/73/85 51/70/82 11/69/52
f 13/78/59 53/75/89 52/73/86 12/76/56
f 14/77/63 54/74/93 53/75/90 13/78/60
f 15/72/67 55/71/97 54/74/94 14/77/64
f 16/65/71 56/68/101 55/71/98 15/72/68
f 58/4/108 59/10/111 60/16/114 61/20/117 62/17/120 63/11/123 64/5/126 57/1/105
s 2
f 1/54/1 28/49/20 26/51/18 2/52/2
f 1/54/1 48/57/40 41/58/33 8/53/8
f 2/52/2 26/51/18 40/47/32 3/36/3
f 2/52/2 47/55/39 48/57/40 1/54/1
f 3/36/3 40/47/32 38/34/30 4/31/4
f 3/36/3 46/28/38 47/55/39 2/52/2
f 4/31/4 38/34/30 36/35/28 5/30/5
f 4/31/4 45/26/37 46/28/38 3/36/3
f 5/30/5 36/35/28 34/33/26 6/32/6
f 5/30/5 44/27/36 45/26/37 4/31/4
f 6/32/6 34/33/26 32/37/24 7/48/7
f 6/32/6 43/29/35 44/27/36 5/30/5
f 7/48/7 32/37/24 30/50/22 8/53/8
f 7/48/7 42/56/34 43/29/35 6/32/6
f 8/53/8 30/50/22 28/49/20 1/54/1
f 8/53/8 41/58/33 42/56/34 7/48/7
f 9/61/42 48/57/40 47/55/39 10/59/46
f 10/59/45 47/55/39 46/28/38 11/24/50
f 11/24/49 46/28/38 45/26/37 12/22/54
f 12/22/53 45/26/37 44/27/36 13/23/58
f 13/23/57 44/27/36 43/29/35 14/25/62
f 14/25/61 43/29/35 42/56/34 15/60/66
f 15/60/65 42/56/34 41/58/33 16/62/70
f 16/62/69 41/58/33 48/57/40 9/61/41
f 17/43/9 25/44/17 27/46/19 18/42/10
f 18/42/10 19/42/11 20/42/12 21/41/13 22/42/14 23/42/15 24/42/16 17/43/9
f 18/42/10 27/46/19 29/42/21 19/42/11
f 19/42/11 29/42/21 31/39/23 20/42/12
f 20/42/12 31/39/23 33/40/25 21/41/13
f 21/41/13 33/40/25 35/38/27 22/42/14
f 22/42/14 35/38/27 37/42/29 23/42/15
f 23/42/15 37/42/29 39/45/31 24/42/16
f 24/42/16 39/45/31 25/44/17 17/43/9
f 25/44/17 39/45/31 40/47/32 26/51/18
f 26/51/18 28/49/20 27/46/19 25/44/17
f 28/49/20 30/50/22 29/42/21 27/46/19
f 30/50/22 32/37/24 31/39/23 29/42/21
f 32/37/24 34/33/26 33/40/25 31/39/23
f 34/33/26 36/35/28 35/38/27 33/40/25
f 36/35/28 38/34/30 37/42/29 35/38/27
f 38/34/30 40/47/32 39/45/31 37/42/29
f 49/14/76 57/21/107 64/15/128 56/12/104
f 50/18/79 58/19/109 57/21/106 49/14/75
f 51/14/83 59/13/112 58/19/110 50/18/80
f 52/12/87 60/7/115 59/13/113 51/14/84
f 53/8/91 61/2/118 60/7/116 52/12/88
f 54/6/95 62/3/121 61/2/119 53/8/92
f 55/8/99 63/9/124 62/3/122 54/6/96
f 56/12/103 64/15/127 63/9/125 55/8/100
