# Exported from Wings 3D 1.5.3
mtllib FireAxe.mtl
o FireAxe
#79 vertices, 66 faces
v -7.9158344e-2 -0.32345584 -3.0974860e-2
v -2.3530446e-2 -0.30614724 -8.9233344e-2
v -7.9158344e-2 -0.32345584 3.0974860e-2
v -2.3530446e-2 -0.30614724 8.9233344e-2
v -8.9233344e-2 -0.13686338 -3.0974860e-2
v -3.0974860e-2 -0.13686338 -8.9233344e-2
v -8.9233344e-2 -0.13686338 3.0974860e-2
v -3.0974860e-2 -0.13686338 8.9233344e-2
v 0.11392304 -0.26337861 -8.9233344e-2
v 0.16955094 -0.24607000 -3.0974860e-2
v 0.16955094 -0.24607000 3.0974860e-2
v 0.11392304 -0.26337861 8.9233344e-2
v 5.8818498e-2 -0.13686338 -8.9233344e-2
v 0.11707698 -0.13686338 -3.0974860e-2
v 0.11707698 -0.13686338 3.0974860e-2
v 5.8818498e-2 -0.13686338 8.9233344e-2
v -4.2132461e-2 1.18833059 -3.0974860e-2
v 1.6126023e-2 1.18833059 -8.9233344e-2
v 1.6126023e-2 1.18833059 8.9233344e-2
v -4.2132461e-2 1.18833059 3.0974860e-2
v 0.13633423 1.18833059 3.0974860e-2
v 7.8075744e-2 1.18833059 8.9233344e-2
v 7.8075744e-2 1.18833059 -8.9233344e-2
v 0.13633423 1.18833059 -3.0974860e-2
v -8.9233344e-2 2.24662547 -3.0974860e-2
v -3.0974860e-2 2.24662547 -8.9233344e-2
v -3.0974860e-2 2.24662547 8.9233344e-2
v -8.9233344e-2 2.24662547 3.0974860e-2
v 8.9233344e-2 2.24662547 3.0974860e-2
v 3.0974860e-2 2.24662547 8.9233344e-2
v 3.0974860e-2 2.24662547 -8.9233344e-2
v 8.9233344e-2 2.24662547 -3.0974860e-2
v -0.20638482 2.82693244 -3.0974860e-2
v -0.14812634 2.82693244 -8.9233344e-2
v -0.14812634 2.82693244 8.9233344e-2
v -0.20638482 2.82693244 3.0974860e-2
v 0.12281874 2.82693244 3.0974860e-2
v 6.4560252e-2 2.82693244 8.9233344e-2
v 6.4560252e-2 2.82693244 -8.9233344e-2
v 0.12281874 2.82693244 -3.0974860e-2
v -0.29917648 3.26520938 -0.14268000
v -0.29917648 3.26520938 0.14268000
v 0.14268000 2.83352184 -0.14268000
v 0.14268000 2.83352184 0.14268000
v 0.14268000 3.28496136 -0.14268000
v 0.14268000 3.28496136 0.14268000
v 0.51492892 2.71403687 4.3660080e-2
v 0.51492892 2.71403687 -4.3660080e-2
v 0.51492892 3.33455470 -4.3660080e-2
v 0.51492892 3.33455470 4.3660080e-2
v -0.64407650 3.10232099 -1.9843934e-2
v -0.64407650 3.10232099 1.9843934e-2
v -0.64407650 3.13096699 1.9843934e-2
v -0.64407650 3.13096699 -1.9843934e-2
v 0.60474653 3.02429578 4.3660080e-2
v 0.60474653 3.02429578 -4.3660080e-2
v 0.68060918 3.02429578 0.0000000e+0
v 0.59079156 3.35651636 0.0000000e+0
v 0.59079156 2.69207520 0.0000000e+0
v -0.29917648 3.05924160 0.14268000
v -0.29917648 3.05924160 -0.14268000
v -0.26603270 2.83352184 -0.14268000
v -0.29917648 2.83352184 -0.10953622
v -0.29917648 2.83352184 0.10953622
v -0.26603270 2.83352184 0.14268000
v -0.26651938 3.03307222 -0.14268000
v -0.29917648 3.03421839 -0.10953622
v -0.29917648 3.03421839 0.10953622
v -0.26651938 3.03307222 0.14268000
v -0.29917648 2.83352184 9.4576444e-2
v -0.29917648 2.83352184 -9.4576444e-2
v 0.14268000 2.83352184 9.4576444e-2
v 0.14268000 2.83352184 -9.4576444e-2
v -0.21650061 2.83352184 -9.4576444e-2
v -0.21650061 2.83352184 9.4576444e-2
v -3.6910307e-2 2.83352184 9.4576444e-2
v -0.21650061 2.83352184 0.0000000e+0
v -3.6910307e-2 2.83352184 -9.4576444e-2
v 0.14268000 2.83352184 0.0000000e+0
vt 4.2450028e-2 0.95562009
vt 4.6607087e-2 0.95911833
vt 4.7748917e-2 0.95013900
vt 4.8649804e-2 0.94680961
vt 4.8675048e-2 0.95036054
vt 4.9273816e-2 0.94745136
vt 4.9612307e-2 0.95054008
vt 5.0109140e-2 0.94726566
vt 5.1993443e-2 0.95788302
vt 0.39393064 0.18250519
vt 0.39552050 0.18415012
vt 0.39552055 0.18188054
vt 0.40088650 0.17865229
vt 0.40089292 0.18634647
vt 0.41110220 0.19926493
vt 0.41262007 0.17737670
vt 0.41668502 0.19117513
vt 0.41668543 0.17485659
vt 0.41728336 0.21332009
vt 0.42258225 0.20783900
vt 0.42301638 0.18079482
vt 0.42316510 0.18292241
vt 0.42348314 0.20450961
vt 0.42434967 0.19815515
vt 0.42444564 0.20824008
vt 0.42479765 0.18203370
vt 0.42494247 0.20496566
vt 0.42682678 0.21558302
vt 0.42732313 0.19848305
vt 0.42757695 0.18564436
vt 0.42758083 0.18568911
vt 0.42768340 0.18612147
vt 0.42984818 0.18620871
vt 0.43020610 0.18598543
vt 0.43024762 0.18599315
vt 0.43148497 0.15753751
vt 0.43296253 0.15852392
vt 0.43409584 0.18384164
vt 0.43520000 0.18526674
vt 0.43529770 0.18246317
vt 0.43532822 0.16990865
vt 0.43533072 0.17414620
vt 0.43534644 0.19079127
vt 0.43535273 0.19502776
vt 0.43552590 0.15856083
vt 0.43622933 0.18338127
vt 0.43709872 0.18518107
vt 0.43711251 0.17974840
vt 0.43743269 0.15745298
vt 0.43896447 0.20551784
vt 0.44197818 0.19117576
vt 0.44197859 0.17485722
vt 0.44219657 0.17486743
vt 0.44220642 0.19004036
vt 0.44739260 0.18452963
vt 0.45111179 0.17412722
vt 0.45111893 0.19076837
vt 0.46088286 0.17487506
vt 0.46088498 0.19000683
vt 0.46345377 0.18551377
vt 0.46345389 0.18052029
vt 0.46590799 0.18513682
vt 0.46594960 0.17972343
vt 0.46689068 0.17414020
vt 0.46689292 0.19071196
vt 0.46698032 0.18243407
vt 0.46797023 0.18301714
vt 0.47124629 0.16990439
vt 0.47125560 0.19493741
vt 0.47417439 0.17281045
vt 0.47417439 0.19203765
vt 0.47417861 0.19072457
vt 0.47417933 0.17412706
vt 0.51663685 0.17660675
vt 0.51708517 0.17471003
vt 0.51777671 0.17220955
vt 0.51960698 0.16571536
vt 0.52043657 0.16321240
vt 0.52140236 0.16145542
vt 0.52299229 0.15932169
vt 0.52731931 0.15403833
vt 0.52901203 0.15201692
vt 0.53443214 0.18080124
vt 0.53513941 0.17902963
vt 0.53609383 0.17661995
vt 0.53682227 0.17478543
vt 0.53787896 0.17235107
vt 0.53881492 0.17057581
vt 0.54022233 0.16832705
vt 0.54132502 0.16669408
vt 0.54277009 0.16455294
vt 0.56314280 0.19514652
vt 0.56399871 0.19357388
vt 0.56512760 0.19147424
vt 0.56597980 0.18988901
vt 0.56712852 0.18776925
vt 0.56800564 0.18617002
vt 0.56918415 0.18404610
vt 0.57007768 0.18245731
vt 0.57126445 0.18035384
vt 0.57728349 0.20047179
vt 0.57728349 0.19753685
vt 0.58004355 0.20323186
vt 0.58004355 0.19477679
vt 0.58686353 0.20323186
vt 0.58686353 0.19477679
vt 0.58962359 0.20047180
vt 0.58962359 0.19753685
vt 0.59500123 0.21365683
vt 0.59589001 0.21219230
vt 0.59706052 0.21021729
vt 0.59724231 0.21556384
vt 0.59821722 0.21441891
vt 0.59831411 0.20808129
vt 0.59946033 0.20613615
vt 0.59951374 0.21290315
vt 0.60031024 0.20466604
vt 0.60142458 0.20268311
vt 0.60208445 0.21023906
vt 0.60264356 0.20049155
vt 0.60342550 0.20862827
vt 0.60374563 0.19845445
vt 0.60440896 0.20725007
vt 0.60532446 0.20513618
vt 0.60648775 0.20123674
vt 0.60710376 0.19901370
vn -0.92454153 -7.6646388e-3 -0.38100422
vn -0.38436648 -2.6900083e-3 -0.92317667
vn -0.92454153 -7.6646388e-3 0.38100422
vn -0.38436648 -2.6900083e-3 0.92317667
vn 0.37207505 7.9135453e-2 -0.92482309
vn 0.90179213 0.19571809 -0.38531206
vn 0.90179213 0.19571809 0.38531206
vn 0.37207505 7.9135453e-2 0.92482309
vn -0.92383953 -4.1352843e-3 -0.38275765
vn -0.38260531 -1.7134178e-3 -0.92391030
vn -0.38260531 -1.7134178e-3 0.92391030
vn -0.92383953 -4.1352843e-3 0.38275765
vn 0.92376942 1.3835321e-2 0.38269914
vn 0.38262474 5.7320425e-3 0.92388606
vn 0.38262474 5.7320425e-3 -0.92388606
vn 0.92376942 1.3835321e-2 -0.38269914
vn -0.91760805 -0.11249791 -0.38123443
vn -0.38125446 -4.6823795e-2 -0.92328358
vn -0.38125446 -4.6823795e-2 0.92328358
vn -0.91760805 -0.11249791 0.38123443
vn 0.92380929 -6.1623259e-3 0.38280338
vn 0.38255478 -2.5538088e-3 0.92392928
vn 0.38255478 -2.5538088e-3 -0.92392928
vn 0.92380929 -6.1623259e-3 -0.38280338
vn -0.72953583 -0.49601703 -0.47089763
vn -0.72953583 -0.49601703 0.47089763
vn 0.40132506 -6.8564338e-11 0.91593569
vn 0.40132506 -6.8564338e-11 -0.91593569
vn 1.00000000 -2.1132493e-10 0.0000000e+0
vn -0.55929219 -0.46592254 0.68564454
vn -0.55929219 -0.46592254 -0.68564454
vn -0.47510854 -0.25618703 -0.84180763
vn -0.91972862 -0.19060209 -0.34317649
vn -0.91972862 -0.19060209 0.34317649
vn -0.47510854 -0.25618703 0.84180763
vn 1.9111398e-2 -0.99757318 6.6951572e-2
vn -4.2750716e-2 -0.97295028 -0.22702452
vn -0.15974282 -0.98438218 -7.3986207e-2
vn -5.0601926e-2 -0.97222575 0.22850937
vn 2.2746118e-2 -0.92838977 0.37091110
vn -0.25191945 -0.96743578 2.4588511e-2
vn -2.4978089e-2 -0.92474732 -0.37976110
vn 5.4608656e-2 -0.99831874 -1.9431754e-2
vn 0.29710023 -0.95484630 0.0000000e+0
vn -0.92420929 -4.8068903e-2 -0.37884900
vn -0.92420929 -4.8068903e-2 -0.37884900
vn 0.29710023 -0.95484630 0.0000000e+0
vn -0.38604467 -1.9004570e-2 -0.92228431
vn -0.38604467 -1.9004570e-2 -0.92228431
vn 0.29710023 -0.95484630 0.0000000e+0
vn -0.92420929 -4.8068903e-2 0.37884900
vn -0.92420929 -4.8068903e-2 0.37884900
vn 0.29710023 -0.95484630 0.0000000e+0
vn -0.38604467 -1.9004570e-2 0.92228431
vn -0.38604467 -1.9004570e-2 0.92228431
vn 0.29710023 -0.95484630 0.0000000e+0
vn 0.35869362 0.16370024 -0.91898918
vn 0.35869362 0.16370024 -0.91898918
vn 0.29710023 -0.95484630 0.0000000e+0
vn 0.84032005 0.39521194 -0.37103873
vn 0.84032005 0.39521194 -0.37103873
vn 0.29710023 -0.95484630 0.0000000e+0
vn 0.84032005 0.39521194 0.37103873
vn 0.84032005 0.39521194 0.37103873
vn 0.29710023 -0.95484630 0.0000000e+0
vn 0.35869362 0.16370024 0.91898918
vn 0.35869362 0.16370024 0.91898918
vn -0.32100994 -0.93533275 -0.14867841
vn -0.32100994 -0.93533275 -0.14867841
vn -0.90747144 -0.18319894 -0.37806578
vn -0.90747144 -0.18319894 -0.37806578
vn -3.6572121e-2 -0.83035448 -0.55603409
vn -3.6572121e-2 -0.83035448 -0.55603409
vn -0.37963285 -7.6639694e-2 -0.92195730
vn -0.37963285 -7.6639694e-2 -0.92195730
vn -0.10271323 -0.87994729 0.46383484
vn -0.10271323 -0.87994729 0.46383484
vn -0.37963285 -7.6639694e-2 0.92195730
vn -0.37963285 -7.6639694e-2 0.92195730
vn -0.37407556 -0.92667922 3.6511517e-2
vn -0.37407556 -0.92667922 3.6511517e-2
vn -0.90747144 -0.18319894 0.37806578
vn -0.90747144 -0.18319894 0.37806578
vn 0.19238673 -0.97241673 0.13188269
vn 0.19238673 -0.97241673 0.13188269
vn 0.92249573 -5.3389646e-2 0.38229723
vn 0.92249573 -5.3389646e-2 0.38229723
vn 3.3411422e-2 -0.83788349 0.54482560
vn 3.3411422e-2 -0.83788349 0.54482560
vn 0.38242962 -2.2133199e-2 0.92371950
vn 0.38242962 -2.2133199e-2 0.92371950
vn 8.0830013e-2 -0.88610477 -0.45638234
vn 8.0830013e-2 -0.88610477 -0.45638234
vn 0.38242962 -2.2133199e-2 -0.92371950
vn 0.38242962 -2.2133199e-2 -0.92371950
vn 0.23215980 -0.97226782 -2.8233186e-2
vn 0.23215980 -0.97226782 -2.8233186e-2
vn 0.92249573 -5.3389646e-2 -0.38229723
vn 0.92249573 -5.3389646e-2 -0.38229723
vn -0.20643121 0.97846112 0.0000000e+0
vn -0.20643121 0.97846112 0.0000000e+0
vn -0.17023827 0.0000000e+0 -0.98540293
vn -0.17023827 0.0000000e+0 -0.98540293
vn -0.20643121 0.97846112 0.0000000e+0
vn -0.20643121 0.97846112 0.0000000e+0
vn -0.17023827 0.0000000e+0 0.98540293
vn -0.17023827 0.0000000e+0 0.98540293
vn -0.15403001 -0.98806617 0.0000000e+0
vn -0.15403001 -0.98806617 0.0000000e+0
vn 0.11439885 0.0000000e+0 -0.99343490
vn 0.11439885 0.0000000e+0 -0.99343490
vn -0.15403001 -0.98806617 5.4267037e-15
vn -0.15403001 -0.98806617 5.4267037e-15
vn 0.11439885 0.0000000e+0 0.99343490
vn 0.11439885 0.0000000e+0 0.99343490
vn -9.1924878e-2 0.99576594 0.0000000e+0
vn -9.1924878e-2 0.99576594 0.0000000e+0
vn 0.11439885 0.0000000e+0 -0.99343490
vn 0.11439885 0.0000000e+0 -0.99343490
vn -9.1924878e-2 0.99576594 0.0000000e+0
vn -9.1924878e-2 0.99576594 0.0000000e+0
vn 0.11439885 0.0000000e+0 0.99343490
vn 0.11439885 0.0000000e+0 0.99343490
vn -0.30438368 -0.95254951 0.0000000e+0
vn 0.35765583 -6.7847720e-2 0.93138553
vn 0.35765583 -6.7847720e-2 0.93138553
vn -0.30438368 -0.95254951 0.0000000e+0
vn 0.35765583 -6.7847720e-2 -0.93138553
vn 0.35765583 -6.7847720e-2 -0.93138553
vn -0.13898576 0.99029438 0.0000000e+0
vn 0.35765583 6.7847720e-2 -0.93138552
vn 0.35765583 6.7847720e-2 -0.93138552
vn -0.13898576 0.99029438 0.0000000e+0
vn 0.35765583 6.7847720e-2 0.93138552
vn 0.35765583 6.7847720e-2 0.93138552
vn -0.36271522 0.93190003 0.0000000e+0
vn -0.81716173 0.0000000e+0 0.57640846
vn -0.81716173 0.0000000e+0 0.57640846
vn -0.36271522 0.93190003 0.0000000e+0
vn -0.81716173 0.0000000e+0 -0.57640846
vn -0.81716173 0.0000000e+0 -0.57640846
vn -0.13898576 0.99029438 0.0000000e+0
vn 0.96306477 0.26926985 0.0000000e+0
vn 0.96306477 0.26926985 0.0000000e+0
vn -0.30438368 -0.95254951 0.0000000e+0
vn 0.96306477 -0.26926986 0.0000000e+0
vn 0.96306477 -0.26926986 0.0000000e+0
vn 0.0000000e+0 -1.00000000 0.0000000e+0
vn -0.38438957 -4.6739825e-4 -0.92317086
vn -0.38438957 -4.6739825e-4 -0.92317086
vn 0.0000000e+0 -1.00000000 0.0000000e+0
vn -0.92458491 -4.6668342e-4 -0.38097577
vn -0.92458491 -4.6668342e-4 -0.38097577
vn 0.0000000e+0 -1.00000000 1.0723885e-14
vn -0.92458491 -4.6668342e-4 0.38097577
vn -0.92458491 -4.6668342e-4 0.38097577
vn 0.0000000e+0 -1.00000000 1.0723885e-14
vn -0.38438957 -4.6739825e-4 0.92317086
vn -0.38438957 -4.6739825e-4 0.92317086
vn 0.0000000e+0 -1.00000000 5.3619424e-15
vn 0.0000000e+0 -1.00000000 5.3619424e-15
vn -1.00000000 0.0000000e+0 0.0000000e+0
vn 0.0000000e+0 -1.00000000 0.0000000e+0
vn 0.0000000e+0 -1.00000000 0.0000000e+0
vn -1.00000000 0.0000000e+0 0.0000000e+0
g FireAxe_FireAxe_auv
usemtl FireAxe_auv
s 1
f 2/105/47 9/103/56 10/101/59 11/102/62 12/104/65 4/106/53 3/108/50 1/107/44
f 33/62/68 74/65/38 78/57/42 34/59/72
f 34/59/73 78/57/42 73/43/37 39/54/92
f 35/58/76 75/64/39 77/66/41 36/63/80
f 36/63/81 77/66/41 74/65/38 33/62/69
f 37/48/84 72/42/36 76/56/40 38/53/88
f 38/53/89 76/56/40 75/64/39 35/58/77
f 39/54/93 73/43/37 79/40/43 40/47/96
f 40/47/97 79/40/43 72/42/36 37/48/85
f 41/17/100 54/11/139 53/12/136 42/18/104
f 42/18/105 46/52/120 45/51/116 41/17/101
f 43/44/109 73/43/37 78/57/42 74/65/38 71/72/164 63/71/151 62/69/148
f 46/52/121 50/61/133 58/67/142 49/60/130 45/51/117
f 48/14/127 59/10/145 47/13/124 44/41/112 72/42/36 79/40/43 73/43/37 43/44/108
f 65/68/157 64/70/154 70/73/160 75/64/39 76/56/40 72/42/36 44/41/113
f 71/72/163 74/65/38 77/66/41 75/64/39 70/73/161
s 2
f 1/123/46 5/117/1 6/118/2 2/124/49
f 3/121/51 7/115/3 5/117/1 1/123/45
f 4/119/54 8/114/4 7/115/3 3/121/52
f 4/119/55 12/116/66 16/111/8 8/114/4
f 5/117/1 17/97/9 18/98/10 6/118/2
f 6/118/2 13/120/5 9/125/57 2/124/48
f 6/118/2 18/98/10 23/99/15 13/120/5
f 7/115/3 20/96/12 17/97/9 5/117/1
f 8/114/4 19/95/11 20/96/12 7/115/3
f 9/125/58 13/120/5 14/122/6 10/126/61
f 10/112/60 14/109/6 15/110/7 11/113/63
f 11/113/64 15/110/7 16/111/8 12/116/67
f 13/120/5 23/99/15 24/100/16 14/122/6
f 14/109/6 24/92/16 21/93/13 15/110/7
f 15/110/7 21/93/13 22/94/14 16/111/8
f 16/111/8 22/94/14 19/95/11 8/114/4
f 17/97/9 25/88/17 26/89/18 18/98/10
f 18/98/10 26/89/18 31/90/23 23/99/15
f 19/95/11 27/86/19 28/87/20 20/96/12
f 20/96/12 28/87/20 25/88/17 17/97/9
f 21/93/13 29/84/21 30/85/22 22/94/14
f 22/94/14 30/85/22 27/86/19 19/95/11
f 23/99/15 31/90/23 32/91/24 24/100/16
f 24/92/16 32/83/24 29/84/21 21/93/13
f 25/88/17 33/79/70 34/80/74 26/89/18
f 26/89/18 34/80/75 39/81/94 31/90/23
f 27/86/19 35/77/78 36/78/82 28/87/20
f 28/87/20 36/78/83 33/79/71 25/88/17
f 29/84/21 37/75/86 38/76/90 30/85/22
f 30/85/22 38/76/91 35/77/79 27/86/19
f 31/90/23 39/81/95 40/82/98 32/91/24
f 32/83/24 40/74/99 37/75/87 29/84/21
f 41/55/103 61/46/31 51/45/25 54/49/141
f 42/16/106 60/21/30 69/22/35 65/32/158 44/24/114 46/15/122
f 44/24/115 47/27/125 55/20/27 50/19/134 46/15/123
f 45/50/118 43/29/110 62/33/149 66/39/32 61/46/31 41/55/102
f 45/50/119 49/28/131 56/25/28 48/23/128 43/29/111
f 47/8/126 59/6/146 57/5/29 55/3/27
f 49/9/132 58/2/143 57/5/29 56/7/28
f 51/45/25 61/46/31 60/21/30 52/37/26
f 52/37/26 53/36/137 54/49/140 51/45/25
f 53/36/138 52/37/26 60/21/30 42/16/107
f 55/3/27 57/5/29 58/2/144 50/1/135
f 56/7/28 57/5/29 59/6/147 48/4/129
f 61/46/31 67/38/33 68/26/34 60/21/30
f 63/34/152 67/38/33 66/39/32 62/33/150
f 63/34/153 71/35/165 70/30/162 64/31/156 68/26/34 67/38/33
f 65/32/159 69/22/35 68/26/34 64/31/155
f 66/39/32 67/38/33 61/46/31
f 68/26/34 69/22/35 60/21/30
