# Exported from Wings 3D 1.5.3
mtllib KitchenKnife.mtl
o KitchenKnife
#54 vertices, 41 faces
v 0.12213600 0.35313600 3.7388359e-2
v 0.12213600 0.35313600 -3.7388359e-2
v -0.12213600 0.35313600 3.7388359e-2
v -0.12213600 0.35313600 -3.7388359e-2
v 9.9272540e-2 0.35313600 3.7388359e-2
v -9.9272540e-2 0.35313600 3.7388359e-2
v 9.9272540e-2 0.35313600 -3.7388359e-2
v -9.9272540e-2 0.35313600 -3.7388359e-2
v -9.9272540e-2 0.43521849 -3.7388359e-2
v -9.9272540e-2 0.43521849 3.7388359e-2
v 9.9272540e-2 0.43521849 3.7388359e-2
v 9.9272540e-2 0.43521849 -3.7388359e-2
v -1.6488782e-2 1.76092829 -2.4451987e-2
v -1.6488782e-2 1.76092829 2.4451987e-2
v 0.20570880 1.43688901 2.4451987e-2
v 0.20570880 1.43688901 -2.4451987e-2
v 0.37768220 0.44986343 -2.4451987e-2
v 0.37768220 0.44986343 2.4451987e-2
v 0.35319201 0.94337622 2.4451987e-2
v 0.35319201 0.94337622 -2.4451987e-2
v -9.9272540e-2 1.40319067 3.7388359e-2
v -9.9272540e-2 1.40319067 -3.7388359e-2
v -0.12213600 -0.35313600 -5.7699760e-2
v -0.12213600 -0.35313600 5.7699760e-2
v -0.12213600 0.35313600 -5.7699760e-2
v -0.12213600 0.35313600 5.7699760e-2
v 0.15402153 -0.35313600 -5.7699760e-2
v 0.15402153 -0.35313600 5.7699760e-2
v 0.12213600 0.35313600 -5.7699760e-2
v 0.12213600 0.35313600 5.7699760e-2
v 0.0000000e+0 -0.40507856 5.7699760e-2
v 0.0000000e+0 -0.40507856 -5.7699760e-2
v 0.15091896 -0.15929392 5.7699760e-2
v 0.13653592 0.15994195 5.7699760e-2
v 0.15091896 -0.15929392 -5.7699760e-2
v 0.13653592 0.15994195 -5.7699760e-2
v 0.12932752 3.2401127e-4 -5.7699760e-2
v 0.12932752 3.2401127e-4 5.7699760e-2
v 0.10294724 -8.5496618e-4 -8.4000000e-2
v 0.12464705 -0.16127407 -8.4000000e-2
v 0.12741728 -0.33435251 -8.4000000e-2
v 1.0810099e-3 -0.37695843 -8.4000000e-2
v -9.5835760e-2 -0.33574122 -8.4000000e-2
v -9.5835760e-2 0.32683576 -8.4000000e-2
v 9.7723120e-2 0.32683576 -8.4000000e-2
v 0.11019146 0.15955638 -8.4000000e-2
v 0.10294724 -8.5496618e-4 8.4000000e-2
v 0.11019146 0.15955638 8.4000000e-2
v 9.7723120e-2 0.32683576 8.4000000e-2
v -9.5835760e-2 0.32683576 8.4000000e-2
v -9.5835760e-2 -0.33574122 8.4000000e-2
v 1.0810099e-3 -0.37695843 8.4000000e-2
v 0.12741728 -0.33435251 8.4000000e-2
v 0.12464705 -0.16127407 8.4000000e-2
vt 2.8848850e-2 0.71599405
vt 2.8848850e-2 0.72862897
vt 3.1036854e-2 0.69657134
vt 3.1036854e-2 0.68033821
vt 3.1036854e-2 0.68380570
vt 3.1036854e-2 0.70003883
vt 3.1957264e-2 0.90127040
vt 3.3479053e-2 0.97208200
vt 3.4940030e-2 0.69657134
vt 3.4940030e-2 0.68380570
vt 3.7643433e-2 0.70548538
vt 3.9231944e-2 0.97208200
vt 4.0753733e-2 0.90127040
vt 5.1376887e-2 0.94169715
vt 5.3896949e-2 0.90747563
vt 5.3990110e-2 0.91093112
vt 5.7060685e-2 0.95834969
vt 5.7622597e-2 0.68743993
vt 5.7911510e-2 0.68942626
vt 5.8121623e-2 0.94099083
vt 5.8452787e-2 0.91246150
vt 5.8688902e-2 0.95899429
vt 5.8983803e-2 0.92684524
vt 5.8995512e-2 0.90710622
vt 5.9126181e-2 0.94111153
vt 5.9494097e-2 0.92691909
vt 5.9635092e-2 0.91633538
vt 5.9811172e-2 0.91638087
vt 6.1183026e-2 0.71826917
vt 6.1317089e-2 0.91322083
vt 6.1488582e-2 0.68453708
vt 6.1529456e-2 0.90925797
vt 6.1984402e-2 0.68779324
vt 6.2006388e-2 0.68498923
vt 6.2012485e-2 0.68747787
vt 6.2099912e-2 0.68776797
vt 6.2239549e-2 0.68701042
vt 6.2281720e-2 0.68703936
vt 6.2313436e-2 0.68562934
vt 6.2371240e-2 0.68746410
vt 6.2427116e-2 0.68641344
vt 6.2445023e-2 0.68704371
vt 6.2506482e-2 0.68641492
vt 6.2521394e-2 0.68701056
vt 6.2584449e-2 0.68559084
vt 6.2770296e-2 0.68639620
vt 6.2860249e-2 0.68638782
vt 6.3579556e-2 0.68549413
vt 6.3861122e-2 0.68547001
vt 6.4886855e-2 0.68464966
vt 6.4894068e-2 0.68828887
vt 6.5604064e-2 0.91282534
vt 6.5738053e-2 0.94334247
vt 6.5777624e-2 0.90994619
vt 6.5903513e-2 0.66486621
vt 6.5954410e-2 0.68401094
vt 6.7222016e-2 0.68639677
vt 6.8545338e-2 0.71268918
vt 6.8834997e-2 0.68380570
vt 6.8834997e-2 0.69657134
vt 6.8873570e-2 0.65927742
vt 6.9971393e-2 0.70243068
vt 7.1933010e-2 0.65790764
vt 7.2738172e-2 0.68033821
vt 7.2738172e-2 0.69657134
vt 7.2738172e-2 0.70003883
vt 7.2738172e-2 0.68380570
vt 7.6654333e-2 0.91760753
vt 7.6654333e-2 0.93343687
vt 8.1725357e-2 0.66272583
vt 8.3840759e-2 0.65403794
vt 8.4315909e-2 0.65711583
vt 8.5450802e-2 0.91760753
vt 8.5450802e-2 0.93343687
vt 9.2335041e-2 0.90636680
vt 9.2335041e-2 0.95826113
vt 0.10113151 0.90636680
vt 0.10113151 0.95826113
vn 0.43694800 -0.39926596 0.80601683
vn 0.43694800 -0.39926596 -0.80601683
vn 0.80892832 0.38346103 0.44563731
vn 0.80892832 0.38346103 -0.44563731
vn 0.61929712 -0.53818200 -0.57169153
vn 0.61929712 -0.53818200 0.57169153
vn 0.88297759 0.15279276 0.44385239
vn 0.88297759 0.15279276 -0.44385239
vn -0.74702838 -0.49407893 -0.44478602
vn -0.74702838 -0.49407893 0.44478602
vn 0.72687396 -0.51319735 -0.45638002
vn 0.72687396 -0.51319735 0.45638002
vn -3.5119490e-2 -0.91355752 0.40519041
vn -3.5119490e-2 -0.91355752 -0.40519041
vn 0.92102941 6.9418985e-2 0.38325686
vn 0.92353852 1.3516399e-2 0.38326740
vn 0.92102941 6.9418985e-2 -0.38325686
vn 0.92353852 1.3516399e-2 -0.38326740
vn 0.92241094 4.1224013e-2 -0.38400343
vn 0.92241094 4.1224013e-2 0.38400343
vn 0.50342865 2.2499031e-2 -0.86374382
vn 0.50336157 3.7938904e-2 -0.86324259
vn 0.34933520 -0.24664235 -0.90395380
vn -1.8447055e-2 -0.47986020 -0.87715101
vn -0.36615335 -0.24217106 -0.89849035
vn -0.27059805 0.27059805 -0.92387953
vn 0.26839267 0.28914211 -0.91889184
vn 0.50472311 7.3868510e-3 -0.86324968
vn 0.50342865 2.2499031e-2 0.86374382
vn 0.50472311 7.3868510e-3 0.86324968
vn 0.26839267 0.28914211 0.91889184
vn -0.27059805 0.27059805 0.92387953
vn -0.36615335 -0.24217106 0.89849035
vn -1.8447055e-2 -0.47986020 0.87715101
vn 0.34933520 -0.24664235 0.90395380
vn 0.50336157 3.7938904e-2 0.86324259
vn 0.99723371 7.4329855e-2 0.0000000e+0
vn 0.0000000e+0 1.00000000 -1.7481822e-16
vn 0.0000000e+0 1.00000000 -1.7481822e-16
vn 0.99723371 7.4329855e-2 0.0000000e+0
vn 0.0000000e+0 1.00000000 1.7481822e-16
vn 0.0000000e+0 1.00000000 1.7481822e-16
vn -1.00000000 2.1284050e-17 0.0000000e+0
vn 0.0000000e+0 1.00000000 -1.7481822e-16
vn 0.0000000e+0 1.00000000 -1.7481822e-16
vn -1.00000000 2.1284050e-17 0.0000000e+0
vn 0.0000000e+0 1.00000000 1.7481822e-16
vn 0.0000000e+0 1.00000000 1.7481822e-16
vn 0.70710678 0.0000000e+0 0.70710678
vn 0.70710678 0.0000000e+0 0.70710678
vn 0.0000000e+0 1.00000000 -1.7481822e-16
vn 0.0000000e+0 1.00000000 -1.7481822e-16
vn -1.00000000 0.0000000e+0 0.0000000e+0
vn 0.0000000e+0 0.0000000e+0 1.00000000
vn 0.0000000e+0 1.00000000 -1.7481822e-16
vn 0.0000000e+0 1.00000000 -1.7481822e-16
vn 0.70710678 0.0000000e+0 -0.70710678
vn 0.70710678 0.0000000e+0 -0.70710678
vn 0.0000000e+0 1.00000000 1.7481822e-16
vn 0.0000000e+0 1.00000000 1.7481822e-16
vn -1.00000000 0.0000000e+0 0.0000000e+0
vn 0.0000000e+0 0.0000000e+0 -1.00000000
vn 0.0000000e+0 1.00000000 1.7481822e-16
vn 0.0000000e+0 1.00000000 1.7481822e-16
vn -1.00000000 0.0000000e+0 0.0000000e+0
vn 1.5702392e-2 4.0837685e-3 -0.99986837
vn 1.5702392e-2 4.0837685e-3 -0.99986837
vn -1.00000000 0.0000000e+0 0.0000000e+0
vn -1.00000000 0.0000000e+0 0.0000000e+0
vn 1.5702392e-2 4.0837685e-3 0.99986837
vn 1.5702392e-2 4.0837685e-3 0.99986837
vn -1.00000000 0.0000000e+0 0.0000000e+0
vn -0.97425442 0.22545139 0.0000000e+0
vn 0.59634515 0.39961121 -0.69619203
vn 0.59634515 0.39961121 -0.69619203
vn -0.97425442 0.22545139 0.0000000e+0
vn 0.59634515 0.39961121 0.69619203
vn 0.59634515 0.39961121 0.69619203
vn -0.97425442 0.22545139 0.0000000e+0
vn 3.1400649e-2 8.1664619e-3 0.99947352
vn -1.00000000 0.0000000e+0 0.0000000e+0
vn -0.97425442 0.22545139 0.0000000e+0
vn 3.1400649e-2 8.1664619e-3 -0.99947352
vn -1.00000000 0.0000000e+0 0.0000000e+0
vn -0.73365688 0.30389063 -0.60778126
vn -0.73365688 0.30389063 -0.60778126
vn -0.73365688 0.30389063 -0.60778126
vn 0.0000000e+0 1.00000000 3.4963644e-16
vn -0.73365688 0.30389063 0.60778126
vn -0.73365688 0.30389063 0.60778126
vn -0.73365688 0.30389063 0.60778126
vn 0.0000000e+0 1.00000000 -3.4963644e-16
vn 0.71979618 0.35262715 -0.59795280
vn 0.71979618 0.35262715 -0.59795280
vn 0.71979618 0.35262715 -0.59795280
vn 0.0000000e+0 1.00000000 3.4963644e-16
vn 0.71979618 0.35262715 0.59795280
vn 0.71979618 0.35262715 0.59795280
vn 0.71979618 0.35262715 0.59795280
vn 0.0000000e+0 1.00000000 -3.4963644e-16
g KitchenKnife_KitchenKnife_auv
usemtl KitchenKnife_auv
s 1
f 2/65/42 7/60/60 5/59/52 1/67/39
f 2/65/41 29/66/96 25/6/88 4/3/47 8/9/63 7/60/59
f 3/5/45 6/10/56 8/9/64 4/3/48
f 5/59/51 6/10/55 3/5/44 26/4/92 30/64/100 1/67/38
f 10/77/72 21/78/81 22/76/84 9/75/68
s 2
f 1/2/37 30/1/98 34/19/16 36/51/18 29/58/95 2/29/40
f 4/71/46 25/72/85 23/36/9 24/33/10 26/61/89 3/63/43
f 6/73/53 10/74/69 9/69/65 8/68/61
f 13/8/73 22/7/82 21/13/79 14/12/76
f 23/36/9 32/42/14 31/38/13 24/33/10
f 23/36/9 43/40/25 42/44/24 32/42/14
f 24/33/10 51/35/33 50/55/32 26/61/91
f 25/72/87 44/70/26 43/40/25 23/36/9
f 26/61/90 50/55/32 49/11/31 30/1/97
f 27/46/11 35/48/17 33/45/15 28/43/12
f 27/46/11 41/47/23 40/49/22 35/48/17
f 28/43/12 31/38/13 32/42/14 27/46/11
f 28/43/12 53/41/35 52/37/34 31/38/13
f 29/58/93 45/62/27 44/70/26 25/72/86
f 30/1/99 49/11/31 48/18/30 34/19/16
f 31/38/13 52/37/34 51/35/33 24/33/10
f 32/42/14 42/44/24 41/47/23 27/46/11
f 33/45/15 54/39/36 53/41/35 28/43/12
f 34/19/16 38/34/20 37/50/19 36/51/18
f 34/19/16 48/18/30 47/31/29 38/34/20
f 35/48/17 37/50/19 38/34/20 33/45/15
f 35/48/17 40/49/22 39/56/21 37/50/19
f 36/51/18 46/57/28 45/62/27 29/58/94
f 37/50/19 39/56/21 46/57/28 36/51/18
f 38/34/20 47/31/29 54/39/36 33/45/15
f 40/49/22 41/47/23 42/44/24 43/40/25 44/70/26 45/62/27 46/57/28 39/56/21
f 48/18/30 49/11/31 50/55/32 51/35/33 52/37/34 53/41/35 54/39/36 47/31/29
s 3
f 5/24/49 11/21/1 10/16/70 6/15/54
f 7/32/57 12/30/2 11/21/1 5/24/50
f 8/54/62 9/52/66 12/30/2 7/32/58
f 9/52/67 22/53/83 13/22/74 16/25/4 20/26/8 17/28/5 12/30/2
f 11/21/1 18/27/6 19/23/7 15/20/3 14/17/77 21/14/80 10/16/71
f 12/30/2 17/28/5 18/27/6 11/21/1
f 14/17/78 15/20/3 16/25/4 13/22/75
f 15/20/3 19/23/7 20/26/8 16/25/4
f 17/28/5 20/26/8 19/23/7 18/27/6
