# Exported from Wings 3D 1.5.3
mtllib LittleKnife.mtl
o LittleKnife
#75 vertices, 68 faces
v -9.4098158e-2 0.44700132 4.9648486e-2
v -9.4098158e-2 0.44700132 -4.2362632e-2
v 9.2509842e-2 0.44700132 4.9648486e-2
v 9.2509842e-2 0.44700132 -4.2362632e-2
v 7.9377294e-2 0.44700132 1.7812639e-2
v -8.0965610e-2 0.44700132 4.9648486e-2
v 7.9377294e-2 0.44700132 -1.0526785e-2
v -8.0965610e-2 0.44700132 -4.2362632e-2
v -8.0965610e-2 1.52924283 -1.8549214e-3
v -8.0965610e-2 1.52924283 9.1407752e-3
v 0.10955530 0.93912774 -1.0526785e-2
v 0.10955530 0.93912774 1.7812639e-2
v -4.6799717e-2 -0.29243695 9.6946927e-2
v -9.4098158e-2 -0.29243695 4.9648486e-2
v 4.5211401e-2 -0.29243695 9.6946927e-2
v 9.2509842e-2 -0.29243695 4.9648486e-2
v -4.6799717e-2 0.28545165 9.6946927e-2
v -9.4098158e-2 0.28545165 4.9648486e-2
v 4.5211401e-2 0.28545165 9.6946927e-2
v 9.2509842e-2 0.28545165 4.9648486e-2
v -9.4098158e-2 -0.29243695 -4.2362632e-2
v -4.6799717e-2 -0.29243695 -8.9661073e-2
v 4.5211401e-2 -0.29243695 -8.9661073e-2
v 9.2509842e-2 -0.29243695 -4.2362632e-2
v -9.4098158e-2 0.28545165 -4.2362632e-2
v -4.6799717e-2 0.28545165 -8.9661073e-2
v 4.5211401e-2 0.28545165 -8.9661073e-2
v 9.2509842e-2 0.28545165 -4.2362632e-2
v -4.6799717e-2 0.44700132 9.6946927e-2
v 4.5211401e-2 0.44700132 9.6946927e-2
v 4.5211401e-2 0.44700132 -8.9661073e-2
v -4.6799717e-2 0.44700132 -8.9661073e-2
v -7.1715535e-2 0.28545165 0.15709903
v -0.15425026 0.28545165 7.4564304e-2
v 7.0127219e-2 0.28545165 0.15709903
v 0.15266195 0.28545165 7.4564304e-2
v -0.15425026 0.28545165 -6.7278450e-2
v -7.1715535e-2 0.28545165 -0.14981318
v 7.0127219e-2 0.28545165 -0.14981318
v 0.15266195 0.28545165 -6.7278450e-2
v -7.1715535e-2 0.44700132 0.15709903
v -0.15425026 0.44700132 7.4564304e-2
v 0.15266195 0.44700132 7.4564304e-2
v 7.0127219e-2 0.44700132 0.15709903
v 7.0127219e-2 0.44700132 -0.14981318
v 0.15266195 0.44700132 -6.7278450e-2
v -0.15425026 0.44700132 -6.7278450e-2
v -7.1715535e-2 0.44700132 -0.14981318
v 4.5211401e-2 -0.43630634 -8.9661073e-2
v 9.2509842e-2 -0.43630634 -4.2362632e-2
v 9.2509842e-2 -0.43630634 4.9648486e-2
v 4.5211401e-2 -0.43630634 9.6946927e-2
v -4.6799717e-2 -0.43630634 9.6946927e-2
v -9.4098158e-2 -0.43630634 4.9648486e-2
v -9.4098158e-2 -0.43630634 -4.2362632e-2
v -4.6799717e-2 -0.43630634 -8.9661073e-2
v -6.7453989e-2 -0.29243695 0.14681075
v -0.14396198 -0.29243695 7.0302758e-2
v 6.5865673e-2 -0.29243695 0.14681075
v 0.14237367 -0.29243695 7.0302758e-2
v -0.14396198 -0.29243695 -6.3016904e-2
v -6.7453989e-2 -0.29243695 -0.13952490
v 6.5865673e-2 -0.29243695 -0.13952490
v 0.14237367 -0.29243695 -6.3016904e-2
v 6.5865673e-2 -0.38276404 -0.13952490
v 0.14237367 -0.38276404 -6.3016904e-2
v 0.14237367 -0.38276404 7.0302758e-2
v 6.5865673e-2 -0.38276404 0.14681075
v -6.7453989e-2 -0.38276404 0.14681075
v -0.14396198 -0.38276404 7.0302758e-2
v -0.14396198 -0.38276404 -6.3016904e-2
v -6.7453989e-2 -0.38276404 -0.13952490
v 0.10955530 0.93912774 3.6429269e-3
v -8.0965610e-2 1.52924283 3.6429269e-3
v 7.9377294e-2 0.44700132 3.6429269e-3
vt 4.2903294e-2 0.91018039
vt 4.5813235e-2 0.98792505
vt 4.6208182e-2 0.98792505
vt 4.6603129e-2 0.98792505
vt 4.9513070e-2 0.91018039
vt 5.6083080e-2 0.89979074
vt 6.9258044e-2 0.98306909
vt 6.9773631e-2 0.98312772
vt 7.0292534e-2 0.98313027
vt 7.1878533e-2 0.93595565
vt 7.2561321e-2 0.93599590
vt 7.3206100e-2 0.89874688
vt 7.3244093e-2 0.93603642
vt 7.4764477e-2 0.89874688
vt 7.6311989e-2 0.89893058
vt 9.3192572e-2 0.90198564
vt 0.13361235 0.66030372
vt 0.15102839 0.67771976
vt 0.16698286 0.66128137
vt 0.17903259 0.69433391
vt 0.18168010 0.68002490
vt 0.18233979 0.68025079
vt 0.18291453 0.68048607
vt 0.18444489 0.68111253
vt 0.18597525 0.68173900
vt 0.18654999 0.68197428
vt 0.18720969 0.68220017
vt 0.18985720 0.66789116
vt 0.20190692 0.70094370
vt 0.21786139 0.68450531
vt 0.23527743 0.70192135
vt 0.88794461 0.82329340
vt 0.89627941 0.82342248
vt 0.89813000 0.81968851
vt 0.90432450 0.80142876
vt 0.90432450 0.81905511
vt 0.90556534 0.80513562
vt 0.90556534 0.83556229
vt 0.90630197 0.83659637
vt 0.90683310 0.80313222
vt 0.90767196 0.82010337
vt 0.91222204 0.79016715
vt 0.91266708 0.81648249
vt 0.91266708 0.79094276
vt 0.91268805 0.80118966
vt 0.91338534 0.79236791
vt 0.91338534 0.82811596
vt 0.91369682 0.81912912
vt 0.91402915 0.82895355
vt 0.91835241 0.83991091
vt 0.91846856 0.83021760
vt 0.91846856 0.81048031
vt 0.92221937 0.79489945
vt 0.92221937 0.81252580
vt 0.92326985 0.78743112
vt 0.92326985 0.85326680
vt 0.92334595 0.81506528
vt 0.92641244 0.80646570
vt 0.92732353 0.83113894
vt 0.92732353 0.77628631
vt 0.92734912 0.82288810
vt 0.92861152 0.80257699
vt 0.92861453 0.80033433
vt 0.92861454 0.84036358
vt 0.92920965 0.78497412
vt 0.92998607 0.81366271
vt 0.93025702 0.82314796
vt 0.93082747 0.84474474
vt 0.93101169 0.79236791
vt 0.93101169 0.82811596
vt 0.93115392 0.81376223
vt 0.93128022 0.82158665
vt 0.93128022 0.78583860
vt 0.93358465 0.80634022
vt 0.93388997 0.81832289
vt 0.93468907 0.79851232
vt 0.93492121 0.80679149
vt 0.93493085 0.77809429
vt 0.93614337 0.79326945
vt 0.93619711 0.83103597
vt 0.93839919 0.79720104
vt 0.93947946 0.80288739
vt 0.93964647 0.81493291
vt 0.93964647 0.81493291
vt 0.94007254 0.80142876
vt 0.94007254 0.81905511
vt 0.94314958 0.83659637
vt 0.94340245 0.81963146
vt 0.94445301 0.82527111
vt 0.94788889 0.84438535
vt 0.94835182 0.84036358
vt 0.94835182 0.80033433
vt 0.94875937 0.80395098
vt 0.94890657 0.82158665
vt 0.94890657 0.78583860
vt 0.94915066 0.81297753
vt 0.94939553 0.81624857
vt 0.94987179 0.81196567
vt 0.95054504 0.81100943
vt 0.95162575 0.79868289
vt 0.95247298 0.79917729
vt 0.95262226 0.80850171
vt 0.95286325 0.83113894
vt 0.95286326 0.77628631
vt 0.95313378 0.83120654
vt 0.95369651 0.85326680
vt 0.95369651 0.78743111
vt 0.95429013 0.81993089
vt 0.95699538 0.78497412
vt 0.95796741 0.81252580
vt 0.95796741 0.79489945
vt 0.95849780 0.81048031
vt 0.95849780 0.83021760
vt 0.95861321 0.84474474
vt 0.95940971 0.80722310
vt 0.96047374 0.80683076
vt 0.96141042 0.82325316
vt 0.96445954 0.78241828
vt 0.96559613 0.81073670
vt 0.96751971 0.81648249
vt 0.96751971 0.79094276
vt 0.97069198 0.83233697
vt 0.97140102 0.80513563
vt 0.97140102 0.83556229
vt 0.97162099 0.80976245
vt 0.97245984 0.82673360
vt 0.97299097 0.79326945
vt 0.97379371 0.80076531
vt 0.97513480 0.82852920
vt 0.98301353 0.80644335
vt 0.98484649 0.80267650
vt 0.99134833 0.80657243
vn 0.0000000e+0 1.00000000 0.0000000e+0
vn 0.0000000e+0 1.00000000 -2.7828318e-16
vn 0.0000000e+0 1.00000000 0.0000000e+0
vn 0.0000000e+0 1.00000000 -2.7828318e-16
vn 0.89398126 0.11727925 -0.43248478
vn 0.89398126 0.11727925 0.43248478
vn 0.0000000e+0 1.00000000 0.0000000e+0
vn 0.0000000e+0 1.00000000 0.0000000e+0
vn 0.0000000e+0 1.00000000 -3.7104424e-16
vn 0.0000000e+0 1.00000000 -3.7104424e-16
vn -0.25968835 0.73450956 0.62694312
vn -0.62694312 0.73450955 0.25968834
vn 0.62694312 0.73450956 0.25968835
vn 0.25968834 0.73450955 0.62694313
vn 0.25968834 0.73450955 -0.62694312
vn 0.62694312 0.73450956 -0.25968835
vn -0.62694313 0.73450955 -0.25968834
vn -0.25968835 0.73450956 -0.62694312
vn 0.99213242 0.12519292 0.0000000e+0
vn 0.0000000e+0 1.00000000 0.0000000e+0
vn 0.0000000e+0 1.00000000 0.0000000e+0
vn 0.74268183 -2.5338565e-2 0.66916489
vn 0.74268183 -2.5338565e-2 0.66916489
vn -1.00000000 1.5561093e-17 0.0000000e+0
vn 0.0000000e+0 1.00000000 0.0000000e+0
vn 0.0000000e+0 1.00000000 0.0000000e+0
vn 0.10526285 2.3561669e-2 0.99416527
vn 0.0000000e+0 1.00000000 -5.5656637e-16
vn 0.0000000e+0 1.00000000 -5.5656637e-16
vn 0.74268183 -2.5338565e-2 -0.66916489
vn 0.74268183 -2.5338565e-2 -0.66916489
vn -1.00000000 1.5561093e-17 0.0000000e+0
vn 0.0000000e+0 1.00000000 -5.5656637e-16
vn 0.0000000e+0 1.00000000 -5.5656637e-16
vn 0.10526285 2.3561669e-2 -0.99416527
vn -1.00000000 1.5561093e-17 0.0000000e+0
vn 0.71017062 0.22227777 -0.66801967
vn 0.71017062 0.22227777 -0.66801967
vn -1.00000000 1.5561093e-17 0.0000000e+0
vn 0.71017062 0.22227777 0.66801967
vn 0.71017062 0.22227777 0.66801967
vn 0.0000000e+0 1.00000000 0.0000000e+0
vn 0.0000000e+0 1.00000000 0.0000000e+0
vn -0.38268343 0.0000000e+0 0.92387953
vn -0.38268343 0.0000000e+0 0.92387953
vn 0.0000000e+0 1.00000000 0.0000000e+0
vn 0.0000000e+0 1.00000000 0.0000000e+0
vn -0.92387953 0.0000000e+0 0.38268343
vn -0.92387953 0.0000000e+0 0.38268343
vn 0.0000000e+0 1.00000000 0.0000000e+0
vn 0.0000000e+0 1.00000000 0.0000000e+0
vn 0.38268343 0.0000000e+0 0.92387953
vn 0.38268343 0.0000000e+0 0.92387953
vn 0.0000000e+0 1.00000000 0.0000000e+0
vn 0.0000000e+0 1.00000000 0.0000000e+0
vn 0.92387953 0.0000000e+0 0.38268343
vn 0.92387953 0.0000000e+0 0.38268343
vn 0.0000000e+0 -1.00000000 0.0000000e+0
vn 0.0000000e+0 -1.00000000 0.0000000e+0
vn -0.38268343 0.0000000e+0 0.92387953
vn -0.38268343 0.0000000e+0 0.92387953
vn 0.0000000e+0 -1.00000000 0.0000000e+0
vn 0.0000000e+0 -1.00000000 0.0000000e+0
vn -0.92387953 0.0000000e+0 0.38268343
vn -0.92387953 0.0000000e+0 0.38268343
vn 0.0000000e+0 -1.00000000 0.0000000e+0
vn 0.0000000e+0 -1.00000000 0.0000000e+0
vn 0.38268343 0.0000000e+0 0.92387953
vn 0.38268343 0.0000000e+0 0.92387953
vn 0.0000000e+0 -1.00000000 0.0000000e+0
vn 0.0000000e+0 -1.00000000 0.0000000e+0
vn 0.92387953 0.0000000e+0 0.38268343
vn 0.92387953 0.0000000e+0 0.38268343
vn 0.0000000e+0 1.00000000 0.0000000e+0
vn 0.0000000e+0 1.00000000 0.0000000e+0
vn -0.92387953 0.0000000e+0 -0.38268343
vn -0.92387953 0.0000000e+0 -0.38268343
vn 0.0000000e+0 1.00000000 0.0000000e+0
vn 0.0000000e+0 1.00000000 0.0000000e+0
vn -0.38268343 0.0000000e+0 -0.92387953
vn -0.38268343 0.0000000e+0 -0.92387953
vn 0.0000000e+0 1.00000000 0.0000000e+0
vn 0.0000000e+0 1.00000000 0.0000000e+0
vn 0.38268343 0.0000000e+0 -0.92387953
vn 0.38268343 0.0000000e+0 -0.92387953
vn 0.0000000e+0 1.00000000 0.0000000e+0
vn 0.0000000e+0 1.00000000 0.0000000e+0
vn 0.92387953 0.0000000e+0 -0.38268343
vn 0.92387953 0.0000000e+0 -0.38268343
vn 0.0000000e+0 -1.00000000 0.0000000e+0
vn 0.0000000e+0 -1.00000000 0.0000000e+0
vn -0.92387953 0.0000000e+0 -0.38268343
vn -0.92387953 0.0000000e+0 -0.38268343
vn 0.0000000e+0 -1.00000000 0.0000000e+0
vn 0.0000000e+0 -1.00000000 0.0000000e+0
vn -0.38268343 0.0000000e+0 -0.92387953
vn -0.38268343 0.0000000e+0 -0.92387953
vn 0.0000000e+0 -1.00000000 0.0000000e+0
vn 0.0000000e+0 -1.00000000 0.0000000e+0
vn 0.38268343 0.0000000e+0 -0.92387953
vn 0.38268343 0.0000000e+0 -0.92387953
vn 0.0000000e+0 -1.00000000 0.0000000e+0
vn 0.0000000e+0 -1.00000000 0.0000000e+0
vn 0.92387953 0.0000000e+0 -0.38268343
vn 0.92387953 0.0000000e+0 -0.38268343
vn 0.0000000e+0 -1.00000000 0.0000000e+0
vn 0.0000000e+0 -1.00000000 0.0000000e+0
vn -0.38268344 0.0000000e+0 0.92387953
vn -0.38268344 0.0000000e+0 0.92387953
vn 0.0000000e+0 -1.00000000 0.0000000e+0
vn 0.0000000e+0 -1.00000000 0.0000000e+0
vn -0.92387953 0.0000000e+0 0.38268343
vn -0.92387953 0.0000000e+0 0.38268343
vn 0.0000000e+0 -1.00000000 0.0000000e+0
vn 0.0000000e+0 -1.00000000 0.0000000e+0
vn 0.38268342 0.0000000e+0 0.92387954
vn 0.38268342 0.0000000e+0 0.92387954
vn 0.0000000e+0 -1.00000000 0.0000000e+0
vn 0.0000000e+0 -1.00000000 0.0000000e+0
vn 0.92387953 0.0000000e+0 0.38268345
vn 0.92387953 0.0000000e+0 0.38268345
vn 0.0000000e+0 -1.00000000 0.0000000e+0
vn 0.0000000e+0 -1.00000000 0.0000000e+0
vn -0.92387954 0.0000000e+0 -0.38268342
vn -0.92387954 0.0000000e+0 -0.38268342
vn 0.0000000e+0 -1.00000000 0.0000000e+0
vn 0.0000000e+0 -1.00000000 0.0000000e+0
vn -0.38268345 0.0000000e+0 -0.92387953
vn -0.38268345 0.0000000e+0 -0.92387953
vn 0.0000000e+0 -1.00000000 0.0000000e+0
vn 0.0000000e+0 -1.00000000 0.0000000e+0
vn 0.38268343 0.0000000e+0 -0.92387953
vn 0.38268343 0.0000000e+0 -0.92387953
vn 0.0000000e+0 -1.00000000 0.0000000e+0
vn 0.0000000e+0 -1.00000000 0.0000000e+0
vn 0.92387953 0.0000000e+0 -0.38268344
vn 0.92387953 0.0000000e+0 -0.38268344
vn 0.0000000e+0 -1.00000000 0.0000000e+0
vn 0.26951386 -0.70992861 -0.65066401
vn 0.26951386 -0.70992861 -0.65066401
vn 0.0000000e+0 -1.00000000 0.0000000e+0
vn 0.65066401 -0.70992861 -0.26951386
vn 0.65066401 -0.70992861 -0.26951386
vn 0.0000000e+0 -1.00000000 0.0000000e+0
vn 0.65066401 -0.70992861 0.26951387
vn 0.65066401 -0.70992861 0.26951387
vn 0.0000000e+0 -1.00000000 0.0000000e+0
vn 0.26951386 -0.70992858 0.65066403
vn 0.26951386 -0.70992858 0.65066403
vn 0.0000000e+0 -1.00000000 0.0000000e+0
vn -0.26951387 -0.70992858 0.65066404
vn -0.26951387 -0.70992858 0.65066404
vn 0.0000000e+0 -1.00000000 0.0000000e+0
vn -0.65066404 -0.70992857 0.26951387
vn -0.65066404 -0.70992857 0.26951387
vn 0.0000000e+0 -1.00000000 0.0000000e+0
vn -0.65066404 -0.70992858 -0.26951386
vn -0.65066404 -0.70992858 -0.26951386
vn 0.0000000e+0 -1.00000000 0.0000000e+0
vn -0.26951387 -0.70992860 -0.65066401
vn -0.26951387 -0.70992860 -0.65066401
vn -0.38268344 0.0000000e+0 0.92387953
vn -0.38268344 0.0000000e+0 0.92387953
vn 0.0000000e+0 1.00000000 0.0000000e+0
vn 0.0000000e+0 1.00000000 0.0000000e+0
vn -0.92387953 0.0000000e+0 0.38268343
vn -0.92387953 0.0000000e+0 0.38268343
vn 0.0000000e+0 1.00000000 0.0000000e+0
vn 0.0000000e+0 1.00000000 0.0000000e+0
vn 0.38268342 0.0000000e+0 0.92387954
vn 0.38268342 0.0000000e+0 0.92387954
vn 0.0000000e+0 1.00000000 0.0000000e+0
vn 0.0000000e+0 1.00000000 0.0000000e+0
vn 0.92387953 0.0000000e+0 0.38268345
vn 0.92387953 0.0000000e+0 0.38268345
vn 0.0000000e+0 1.00000000 0.0000000e+0
vn 0.0000000e+0 1.00000000 0.0000000e+0
vn -0.92387954 0.0000000e+0 -0.38268342
vn -0.92387954 0.0000000e+0 -0.38268342
vn 0.0000000e+0 1.00000000 0.0000000e+0
vn 0.0000000e+0 1.00000000 0.0000000e+0
vn -0.38268345 0.0000000e+0 -0.92387953
vn -0.38268345 0.0000000e+0 -0.92387953
vn 0.0000000e+0 1.00000000 0.0000000e+0
vn 0.0000000e+0 1.00000000 0.0000000e+0
vn 0.38268343 0.0000000e+0 -0.92387953
vn 0.38268343 0.0000000e+0 -0.92387953
vn 0.0000000e+0 1.00000000 0.0000000e+0
vn 0.0000000e+0 1.00000000 0.0000000e+0
vn 0.92387953 0.0000000e+0 -0.38268344
vn 0.92387953 0.0000000e+0 -0.38268344
vn 0.0000000e+0 1.00000000 0.0000000e+0
vn 0.0000000e+0 1.00000000 0.0000000e+0
vn 0.38268343 0.0000000e+0 -0.92387953
vn 0.38268343 0.0000000e+0 -0.92387953
vn 0.26951386 -0.70992861 -0.65066401
vn 0.26951386 -0.70992861 -0.65066401
vn 0.92387953 0.0000000e+0 -0.38268344
vn 0.92387953 0.0000000e+0 -0.38268344
vn 0.65066401 -0.70992861 -0.26951386
vn 0.65066401 -0.70992861 -0.26951386
vn 0.92387953 0.0000000e+0 0.38268345
vn 0.92387953 0.0000000e+0 0.38268345
vn 0.65066401 -0.70992861 0.26951387
vn 0.65066401 -0.70992861 0.26951387
vn 0.38268342 0.0000000e+0 0.92387954
vn 0.38268342 0.0000000e+0 0.92387954
vn 0.26951386 -0.70992858 0.65066403
vn 0.26951386 -0.70992858 0.65066403
vn -0.38268344 0.0000000e+0 0.92387953
vn -0.38268344 0.0000000e+0 0.92387953
vn -0.26951387 -0.70992858 0.65066404
vn -0.26951387 -0.70992858 0.65066404
vn -0.92387953 0.0000000e+0 0.38268343
vn -0.92387953 0.0000000e+0 0.38268343
vn -0.65066404 -0.70992857 0.26951387
vn -0.65066404 -0.70992857 0.26951387
vn -0.92387954 0.0000000e+0 -0.38268342
vn -0.92387954 0.0000000e+0 -0.38268342
vn -0.65066404 -0.70992858 -0.26951386
vn -0.65066404 -0.70992858 -0.26951386
vn -0.38268345 0.0000000e+0 -0.92387953
vn -0.38268345 0.0000000e+0 -0.92387953
vn -0.26951387 -0.70992860 -0.65066401
vn -0.26951387 -0.70992860 -0.65066401
vn -1.00000000 1.5561093e-17 0.0000000e+0
vn 0.95163263 0.30723823 0.0000000e+0
vn 0.95163263 0.30723823 0.0000000e+0
vn 0.0000000e+0 1.00000000 0.0000000e+0
vn 0.99812511 -6.1206683e-2 0.0000000e+0
vn 0.99812511 -6.1206683e-2 0.0000000e+0
g LittleKnife_LittleKnife_auv
usemtl LittleKnife_auv
s 1
f 6/5/24 10/4/39 74/3/226 9/2/36 8/1/32
f 13/26/45 17/30/61 18/31/65 14/27/49
f 15/24/52 19/28/68 17/30/60 13/26/44
f 16/23/56 20/19/72 19/28/69 15/24/53
f 16/23/57 24/21/88 28/17/104 20/19/73
f 18/31/64 25/29/92 21/25/76 14/27/48
f 21/25/77 25/29/93 26/20/97 22/24/81
f 22/24/80 26/20/96 27/18/100 23/22/84
f 23/22/85 27/18/101 28/17/105 24/21/89
f 50/36/141 51/35/144 52/46/147 53/69/150 54/85/153 55/86/156 56/70/159 49/47/138
f 57/83/163 69/79/211 68/127/207 59/125/171
f 58/48/166 70/40/214 69/79/210 57/83/162
f 59/125/170 68/127/206 67/132/203 60/130/175
f 60/130/174 67/132/202 66/126/199 64/119/191
f 61/33/178 71/32/218 70/40/215 58/48/167
f 62/41/182 72/39/222 71/32/219 61/33/179
f 63/84/186 65/87/194 72/39/223 62/41/183
f 64/119/190 66/126/198 65/87/195 63/84/187
s 2
f 5/12/22 12/10/6 10/7/40 6/6/27
f 5/12/23 75/14/231 73/11/19 12/10/6
f 8/16/35 9/9/37 11/13/5 7/15/30
f 9/9/38 74/8/227 73/11/19 11/13/5
f 11/13/5 73/11/19 75/14/230 7/15/31
f 12/10/6 73/11/19 74/8/228 10/7/41
f 13/73/42 57/60/164 59/104/172 15/95/50
f 14/53/46 58/44/168 57/60/165 13/73/43
f 15/95/51 59/104/173 60/121/176 16/111/54
f 16/111/55 60/121/177 64/120/192 24/110/86
f 17/92/58 33/107/106 34/123/110 18/112/62
f 18/112/63 34/123/111 37/124/122 25/113/90
f 19/63/66 35/55/114 33/107/107 17/92/59
f 20/52/70 36/37/118 35/55/115 19/63/67
f 21/54/74 61/43/180 58/44/169 14/53/47
f 22/72/78 62/59/184 61/43/181 21/54/75
f 23/94/82 63/103/188 62/59/185 22/72/79
f 24/110/87 64/120/193 63/103/189 23/94/83
f 25/113/91 37/124/123 38/106/126 26/91/94
f 26/91/95 38/106/127 39/56/130 27/64/98
f 27/64/99 39/56/131 40/38/134 28/51/102
f 28/51/103 40/38/135 36/37/119 20/52/71
f 49/80/139 65/68/196 66/49/200 50/61/142
f 50/61/143 66/49/201 67/45/204 51/58/145
f 51/58/146 67/45/205 68/65/208 52/76/148
f 52/76/149 68/65/209 69/109/212 53/100/151
f 53/100/152 69/109/213 70/128/216 54/116/154
f 54/116/155 70/128/217 71/129/220 55/117/157
f 55/117/158 71/129/221 72/114/224 56/105/160
f 56/105/161 72/114/225 65/68/197 49/80/140
s 3
f 1/74/1 6/77/25 8/71/33 2/66/2
f 1/74/1 29/82/7 30/93/8 3/102/3 5/99/20 6/77/26
f 1/74/1 42/62/12 41/81/11 29/82/7
f 2/66/2 32/75/10 48/67/18 47/57/17
f 2/66/2 47/57/17 42/62/12 1/74/1
f 3/102/3 30/93/8 44/101/14 43/115/13
f 3/102/3 43/115/13 46/108/16 4/97/4
f 4/97/4 7/96/29 75/98/229 5/99/21 3/102/3
f 4/97/4 46/108/16 45/89/15 31/88/9
f 8/71/34 7/96/28 4/97/4 31/88/9 32/75/10 2/66/2
f 29/82/7 41/81/11 44/101/14 30/93/8
f 31/88/9 45/89/15 48/67/18 32/75/10
f 33/78/109 41/81/11 42/62/12 34/42/113
f 34/42/112 42/62/12 47/57/17 37/34/124
f 35/118/116 44/101/14 41/81/11 33/78/108
f 36/131/121 43/115/13 44/101/14 35/118/117
f 37/34/125 47/57/17 48/67/18 38/50/129
f 38/50/128 48/67/18 45/89/15 39/90/132
f 39/90/133 45/89/15 46/108/16 40/122/137
f 40/122/136 46/108/16 43/115/13 36/131/120
