# Exported from Wings 3D 1.5.3
mtllib MolotovCocktail.mtl
o Bottle
#88 vertices, 82 faces
v 1.00000000 1.60800000 0.0000000e+0
v 0.70710678 1.60800000 0.70710678
v 6.1232340e-17 1.60800000 1.00000000
v -0.70710678 1.60800000 0.70710678
v -1.00000000 1.60800000 1.2246468e-16
v -0.70710678 1.60800000 -0.70710678
v -1.8369702e-16 1.60800000 -1.00000000
v 0.70710678 1.60800000 -0.70710678
v 1.00000000 -1.79634733 0.0000000e+0
v 0.70710678 -1.79634733 0.70710678
v 6.1232340e-17 -1.79634733 1.00000000
v -0.70710678 -1.79634733 0.70710678
v -1.00000000 -1.79634733 1.2246468e-16
v -0.70710678 -1.79634733 -0.70710678
v -1.8369702e-16 -1.79634733 -1.00000000
v 0.70710678 -1.79634733 -0.70710678
v 0.41245256 2.16986662 0.41245256
v 0.58329600 2.16986662 0.0000000e+0
v 0.41245256 2.16986662 -0.41245256
v -8.1660349e-17 2.16986662 -0.58329600
v -0.41245256 2.16986662 -0.41245256
v -0.58329600 2.16986662 7.1433158e-17
v -0.41245256 2.16986662 0.41245256
v 6.1205967e-17 2.16986662 0.58329600
v 0.26304372 4.03391140 0.26304372
v 0.37200000 4.03391140 0.0000000e+0
v 0.26304372 4.03391140 -0.26304372
v -5.9620041e-17 4.03391140 -0.37200000
v -0.26304372 4.03391140 -0.26304372
v -0.37200000 4.03391140 4.5556861e-17
v -0.26304372 4.03391140 0.26304372
v 3.1493681e-17 4.03391140 0.37200000
v 0.26304372 4.22130340 0.26304372
v 0.37200000 4.22130340 0.0000000e+0
v 0.26304372 4.22130340 -0.26304372
v -5.9620041e-17 4.22130340 -0.37200000
v -0.26304372 4.22130340 -0.26304372
v -0.37200000 4.22130340 4.5556861e-17
v -0.26304372 4.22130340 0.26304372
v 3.1493681e-17 4.22130340 0.37200000
v 0.32943554 4.08146885 0.32943554
v 0.46589220 4.08146885 -7.0428562e-18
v 0.32943554 4.08146885 -0.32943554
v -6.4378692e-17 4.08146885 -0.46589220
v -0.32943554 4.08146885 -0.32943554
v -0.46589220 4.08146885 6.3662676e-17
v -0.32943554 4.08146885 0.32943554
v 3.9680735e-17 4.08146885 0.46589220
v 0.32943554 4.17374595 0.32943554
v 0.46589220 4.17374595 -7.0428562e-18
v 0.32943554 4.17374595 -0.32943554
v -6.4378692e-17 4.17374595 -0.46589220
v -0.32943554 4.17374595 -0.32943554
v -0.46589220 4.17374595 6.3662676e-17
v -0.32943554 4.17374595 0.32943554
v 3.9680735e-17 4.17374595 0.46589220
v 0.78400000 -1.96920635 1.2978325e-17
v 0.55437172 -1.96920635 0.55437172
v 3.5275690e-17 -1.96920635 0.78400000
v -0.55437172 -1.96920635 0.55437172
v -0.78400000 -1.96920635 8.3529705e-17
v -0.55437172 -1.96920635 -0.55437172
v -1.4476205e-16 -1.96920635 -0.78400000
v 0.55437172 -1.96920635 -0.55437172
v 9.0377614e-2 3.68120052 9.0377614e-2
v 0.12781325 3.68120052 3.6064901e-18
v 9.0377614e-2 3.68120052 -9.0377614e-2
v -3.0542405e-17 3.68120052 -0.12781325
v -9.0377614e-2 3.68120052 -9.0377614e-2
v -0.12781325 3.68120052 1.9259099e-17
v -9.0377614e-2 3.68120052 9.0377614e-2
v 7.6281213e-19 3.68120052 0.12781325
v 0.70710678 1.10469215 -0.70710678
v 0.70710678 -1.29303948 -0.70710678
v -1.8369702e-16 1.10469215 -1.00000000
v -1.8369702e-16 -1.29303948 -1.00000000
v -0.70710678 1.10469215 -0.70710678
v -0.70710678 -1.29303948 -0.70710678
v -1.00000000 1.10469215 1.2246468e-16
v -1.00000000 -1.29303948 1.2246468e-16
v -0.70710678 1.10469215 0.70710678
v -0.70710678 -1.29303948 0.70710678
v 6.1232340e-17 1.10469215 1.00000000
v 6.1232340e-17 -1.29303948 1.00000000
v 0.70710678 1.10469215 0.70710678
v 0.70710678 -1.29303948 0.70710678
v 1.00000000 1.10469215 0.0000000e+0
v 1.00000000 -1.29303948 0.0000000e+0
vt 4.5274126e-2 0.30395263
vt 4.5274126e-2 0.31536134
vt 4.8915840e-2 0.30395263
vt 4.8915840e-2 0.31536134
vt 5.2557553e-2 0.30395263
vt 5.2557553e-2 0.31536134
vt 5.6199267e-2 0.30395263
vt 5.6199267e-2 0.31536134
vt 5.9840980e-2 0.30395263
vt 5.9840980e-2 0.31536134
vt 0.78178295 0.53115746
vt 0.78178295 0.55205122
vt 0.78310098 0.55857833
vt 0.78491081 0.55382835
vt 0.78560592 0.55726118
vt 0.78576122 0.53079666
vt 0.78626982 0.52489479
vt 0.78627937 0.55090651
vt 0.78668329 0.53451362
vt 0.78720536 0.55263013
vt 0.78745982 0.53070809
vt 0.78786403 0.56194152
vt 0.78796429 0.53328448
vt 0.78796980 0.55515273
vt 0.78815765 0.52743687
vt 0.78819512 0.55607472
vt 0.78851267 0.55930083
vt 0.78856665 0.55459890
vt 0.78863175 0.53273010
vt 0.78902416 0.52854295
vt 0.78911788 0.55667504
vt 0.78924475 0.55553449
vt 0.78926632 0.55559006
vt 0.78928261 0.55549840
vt 0.78933578 0.55563120
vt 0.78935706 0.55549966
vt 0.78941338 0.55562983
vt 0.78942584 0.55553721
vt 0.78945093 0.55558960
vt 0.78952103 0.55457240
vt 0.78978847 0.55270601
vt 0.78996466 0.55113940
vt 0.79020598 0.55656434
vt 0.79040789 0.55503853
vt 0.79062231 0.53609525
vt 0.79078730 0.53457708
vt 0.79078968 0.55582913
vt 0.79087376 0.53385772
vt 0.79198389 0.52815789
vt 0.79208260 0.55887859
vt 0.79229601 0.52686021
vt 0.79232589 0.55383892
vt 0.79300913 0.52394152
vt 0.79325679 0.53382507
vt 0.79368115 0.55264833
vt 0.79370137 0.53463844
vt 0.79376767 0.56130357
vt 0.79434222 0.55606606
vt 0.79444023 0.52986222
vt 0.79453953 0.53636041
vt 0.79492339 0.53248530
vt 0.79566394 0.52929032
vt 0.79625700 0.53328220
vt 0.79833908 0.55594419
vt 0.79840603 0.52794660
vt 0.79927413 0.53526233
vt 0.79927413 0.53961978
vt 0.79944090 0.53741376
vt 0.80077895 0.53582936
vt 0.80131803 0.54046639
vt 0.80174849 0.53786296
vt 0.80176020 0.53809104
vt 0.80190993 0.53766859
vt 0.80195845 0.53820440
vt 0.80215624 0.53761222
vt 0.80220476 0.53814804
vt 0.80235449 0.53772559
vt 0.80236620 0.53795367
vt 0.80279665 0.53535023
vt 0.80333574 0.53998727
vt 0.80467379 0.53840286
vt 0.80484056 0.53619685
vt 0.80484056 0.53793294
vt 0.80484056 0.54278028
vt 0.80517340 0.53988315
vt 0.80527489 0.53802782
vt 0.80534471 0.54278234
vt 0.80549988 0.53960653
vt 0.80550361 0.54438102
vt 0.80551667 0.54118501
vt 0.80575366 0.53813882
vt 0.80584722 0.53931224
vt 0.80586046 0.54402454
vt 0.80587059 0.54154440
vt 0.80595078 0.53615302
vt 0.80625724 0.53651473
vt 0.80660088 0.53692033
vt 0.80698934 0.53959727
vt 0.80702019 0.54008776
vt 0.80704245 0.54053178
vt 0.80710554 0.54504737
vt 0.80710760 0.54454230
vt 0.80712193 0.54103685
vt 0.80712400 0.54053178
vt 0.80788887 0.53535023
vt 0.80791113 0.53579425
vt 0.80794199 0.53628474
vt 0.80833044 0.53896169
vt 0.80835894 0.54403475
vt 0.80836908 0.54155462
vt 0.80867409 0.53936728
vt 0.80871286 0.54439414
vt 0.80872593 0.54119813
vt 0.80888483 0.54279681
vt 0.80898055 0.53972899
vt 0.80908410 0.53656977
vt 0.80917766 0.53774319
vt 0.80938898 0.54279887
vt 0.80943144 0.53627548
vt 0.80965643 0.53785419
vt 0.80975793 0.53599887
vt 0.81009076 0.53794907
vn 0.94813739 0.31786079 -7.8042228e-17
vn 0.67043438 0.31786079 0.67043438
vn 6.2433782e-17 0.31786079 0.94813739
vn -0.67043438 0.31786079 0.67043438
vn -0.94813739 0.31786079 1.4047601e-16
vn -0.67043438 0.31786079 -0.67043438
vn -1.2486756e-16 0.31786079 -0.94813739
vn 0.67043438 0.31786079 -0.67043438
vn 0.89641821 -0.44320920 -8.1374362e-17
vn 0.63386339 -0.44320920 0.63386339
vn 6.5099489e-17 -0.44320920 0.89641821
vn -0.63386339 -0.44320920 0.63386339
vn -0.89641821 -0.44320920 1.6274872e-16
vn -0.63386339 -0.44320920 -0.63386339
vn -1.1392411e-16 -0.44320920 -0.89641821
vn 0.63386339 -0.44320920 -0.63386339
vn 0.65693677 0.36995696 0.65693677
vn 0.92904889 0.36995696 -4.6019775e-17
vn 0.65693677 0.36995696 -0.65693677
vn -7.6699626e-17 0.36995696 -0.92904889
vn -0.65693677 0.36995696 -0.65693677
vn -0.92904889 0.36995696 1.2271940e-16
vn -0.65693677 0.36995696 0.65693677
vn 4.6019775e-17 0.36995696 0.92904889
vn 0.59531260 -0.53963490 0.59531260
vn 0.84189915 -0.53963490 -1.7081159e-16
vn 0.59531260 -0.53963490 -0.59531260
vn 8.5405795e-18 -0.53963490 -0.84189915
vn -0.59531260 -0.53963490 -0.59531260
vn -0.84189915 -0.53963490 3.4162318e-17
vn -0.59531260 -0.53963490 0.59531260
vn 4.2702897e-17 -0.53963490 0.84189915
vn 0.43394444 -0.90093964 -7.9646127e-17
vn 0.30684505 -0.90093964 0.30684505
vn 1.9911532e-17 -0.90093964 0.43394444
vn -0.30684505 -0.90093964 0.30684505
vn -0.43394444 -0.90093964 5.9734596e-17
vn -0.30684505 -0.90093964 -0.30684505
vn -3.9823064e-17 -0.90093964 -0.43394444
vn 0.30684505 -0.90093964 -0.30684505
vn -0.49043943 0.72037374 -0.49043943
vn -0.69358610 0.72037374 -7.0003220e-16
vn -0.49043943 0.72037374 0.49043943
vn 4.5163367e-17 0.72037374 0.69358610
vn 0.49043943 0.72037374 0.49043943
vn 0.69358610 0.72037374 -8.1294061e-16
vn 0.49043943 0.72037374 -0.49043943
vn -2.2581684e-17 0.72037374 -0.69358610
vn 0.70710678 0.0000000e+0 -0.70710678
vn 0.70710678 0.0000000e+0 -0.70710678
vn -1.8025451e-16 0.0000000e+0 -1.00000000
vn -1.8025451e-16 0.0000000e+0 -1.00000000
vn -0.70710678 0.0000000e+0 -0.70710678
vn -0.70710678 0.0000000e+0 -0.70710678
vn -1.00000000 0.0000000e+0 1.8025451e-16
vn -1.00000000 0.0000000e+0 1.8025451e-16
vn -0.70710678 0.0000000e+0 0.70710678
vn -0.70710678 0.0000000e+0 0.70710678
vn 9.0127256e-17 0.0000000e+0 1.00000000
vn 9.0127256e-17 0.0000000e+0 1.00000000
vn 0.70710678 0.0000000e+0 0.70710678
vn 0.70710678 0.0000000e+0 0.70710678
vn 1.00000000 0.0000000e+0 -7.5106046e-17
vn 1.00000000 0.0000000e+0 -7.5106046e-17
vn 0.70260728 0.11263220 0.70260728
vn 0.70260728 0.11263220 0.70260728
vn 0.31950932 -0.89209169 0.31950932
vn 0.31950932 -0.89209169 0.31950932
vn 0.99363675 0.11263220 -3.0014499e-17
vn 0.99363675 0.11263220 -3.0014499e-17
vn 0.45185442 -0.89209169 -1.1295014e-16
vn 0.45185442 -0.89209169 -1.1295014e-16
vn 0.70260728 0.11263220 -0.70260728
vn 0.70260728 0.11263220 -0.70260728
vn 0.31950932 -0.89209169 -0.31950932
vn 0.31950932 -0.89209169 -0.31950932
vn -6.0028998e-17 0.11263220 -0.99363675
vn -6.0028998e-17 0.11263220 -0.99363675
vn 1.4118768e-17 -0.89209169 -0.45185442
vn 1.4118768e-17 -0.89209169 -0.45185442
vn -0.70260728 0.11263220 -0.70260728
vn -0.70260728 0.11263220 -0.70260728
vn -0.31950932 -0.89209169 -0.31950932
vn -0.31950932 -0.89209169 -0.31950932
vn -0.99363675 0.11263220 1.2005800e-16
vn -0.99363675 0.11263220 1.2005800e-16
vn -0.45185442 -0.89209169 0.0000000e+0
vn -0.45185442 -0.89209169 0.0000000e+0
vn -0.70260728 0.11263220 0.70260728
vn -0.70260728 0.11263220 0.70260728
vn -0.31950932 -0.89209169 0.31950932
vn -0.31950932 -0.89209169 0.31950932
vn 6.0028998e-17 0.11263220 0.99363675
vn 6.0028998e-17 0.11263220 0.99363675
vn 1.4118768e-17 -0.89209169 0.45185442
vn 1.4118768e-17 -0.89209169 0.45185442
vn 0.31950932 0.89209169 0.31950932
vn 0.31950932 0.89209169 0.31950932
vn -0.64431576 0.41196409 -0.64431576
vn -0.64431576 0.41196409 -0.64431576
vn 0.45185442 0.89209169 -1.1295014e-16
vn 0.45185442 0.89209169 -1.1295014e-16
vn -0.91120008 0.41196409 2.9666731e-17
vn -0.91120008 0.41196409 2.9666731e-17
vn 0.31950932 0.89209169 -0.31950932
vn 0.31950932 0.89209169 -0.31950932
vn -0.64431576 0.41196409 0.64431576
vn -0.64431576 0.41196409 0.64431576
vn 2.8237536e-17 0.89209169 -0.45185442
vn 2.8237536e-17 0.89209169 -0.45185442
vn 5.9333462e-17 0.41196409 0.91120008
vn 5.9333462e-17 0.41196409 0.91120008
vn -0.31950932 0.89209169 -0.31950932
vn -0.31950932 0.89209169 -0.31950932
vn 0.64431576 0.41196409 0.64431576
vn 0.64431576 0.41196409 0.64431576
vn -0.45185442 0.89209169 1.4118768e-17
vn -0.45185442 0.89209169 1.4118768e-17
vn 0.91120008 0.41196409 -1.1866692e-16
vn 0.91120008 0.41196409 -1.1866692e-16
vn -0.31950932 0.89209169 0.31950932
vn -0.31950932 0.89209169 0.31950932
vn 0.64431576 0.41196409 -0.64431576
vn 0.64431576 0.41196409 -0.64431576
vn 4.2356304e-17 0.89209169 0.45185442
vn 4.2356304e-17 0.89209169 0.45185442
vn -2.9666731e-17 0.41196409 -0.91120008
vn -2.9666731e-17 0.41196409 -0.91120008
vn 0.70710678 0.0000000e+0 0.70710678
vn 0.70710678 0.0000000e+0 0.70710678
vn 0.31950932 0.89209169 0.31950932
vn 0.31950932 0.89209169 0.31950932
vn 1.00000000 0.0000000e+0 -1.8025451e-16
vn 1.00000000 0.0000000e+0 -1.8025451e-16
vn 0.45185442 0.89209169 -1.1295014e-16
vn 0.45185442 0.89209169 -1.1295014e-16
vn 0.70710678 0.0000000e+0 -0.70710678
vn 0.70710678 0.0000000e+0 -0.70710678
vn 0.31950932 0.89209169 -0.31950932
vn 0.31950932 0.89209169 -0.31950932
vn 0.0000000e+0 0.0000000e+0 -1.00000000
vn 0.0000000e+0 0.0000000e+0 -1.00000000
vn 2.8237536e-17 0.89209169 -0.45185442
vn 2.8237536e-17 0.89209169 -0.45185442
vn -0.70710678 0.0000000e+0 -0.70710678
vn -0.70710678 0.0000000e+0 -0.70710678
vn -0.31950932 0.89209169 -0.31950932
vn -0.31950932 0.89209169 -0.31950932
vn -1.00000000 0.0000000e+0 6.0084837e-17
vn -1.00000000 0.0000000e+0 6.0084837e-17
vn -0.45185442 0.89209169 1.4118768e-17
vn -0.45185442 0.89209169 1.4118768e-17
vn -0.70710678 0.0000000e+0 0.70710678
vn -0.70710678 0.0000000e+0 0.70710678
vn -0.31950932 0.89209169 0.31950932
vn -0.31950932 0.89209169 0.31950932
vn 6.0084837e-17 0.0000000e+0 1.00000000
vn 6.0084837e-17 0.0000000e+0 1.00000000
vn 4.2356304e-17 0.89209169 0.45185442
vn 4.2356304e-17 0.89209169 0.45185442
g Bottle_Cylinder1_sep5_auv
usemtl Cylinder1_sep5_auv
s 1
f 25/97/68 41/96/25 48/106/32 32/107/96
f 26/91/71 42/86/26 41/96/25 25/97/67
f 27/92/76 43/88/27 42/86/26 26/91/72
f 28/98/79 44/99/28 43/88/27 27/92/75
f 29/108/84 45/111/29 44/99/28 28/98/80
f 30/117/87 46/120/30 45/111/29 29/108/83
f 31/116/92 47/119/31 46/120/30 30/117/88
f 32/107/95 48/106/32 47/119/31 31/116/91
f 33/82/100 65/77/41 72/75/48 40/79/128
f 34/81/103 66/78/42 65/77/41 33/82/99
f 35/80/107 67/76/43 66/78/42 34/81/104
f 36/70/111 68/74/44 67/76/43 35/80/108
f 37/67/115 69/72/45 68/74/44 36/70/112
f 38/68/119 70/71/46 69/72/45 37/67/116
f 39/69/123 71/73/47 70/71/46 38/68/120
f 40/79/127 72/75/48 71/73/47 39/69/124
f 41/96/25 42/86/26 50/83/133 49/95/129
f 42/86/26 43/88/27 51/85/137 50/83/134
f 43/88/27 44/99/28 52/100/141 51/85/138
f 44/99/28 45/111/29 53/115/145 52/100/142
f 45/111/29 46/120/30 54/122/149 53/115/146
f 46/120/30 47/119/31 55/121/153 54/122/150
f 47/119/31 48/106/32 56/105/157 55/121/154
f 49/95/130 56/105/158 48/106/32 41/96/25
f 66/78/42 67/76/43 68/74/44 69/72/45 70/71/46 71/73/47 72/75/48 65/77/41
s 2
f 1/14/1 18/24/18 17/26/17 2/15/2
f 1/14/1 87/12/63 73/18/49 8/20/8
f 2/15/2 17/26/17 24/31/24 3/27/3
f 2/15/2 85/13/61 87/12/63 1/14/1
f 3/27/3 24/31/24 23/43/23 4/50/4
f 3/27/3 83/22/59 85/13/61 2/15/2
f 4/50/4 23/43/23 22/47/22 5/58/5
f 4/50/4 81/57/57 83/22/59 3/27/3
f 5/58/5 22/47/22 21/44/21 6/52/6
f 5/58/5 79/64/55 81/57/57 4/50/4
f 6/52/6 21/44/21 20/40/20 7/41/7
f 6/52/6 77/55/53 79/64/55 5/58/5
f 7/41/7 20/40/20 19/28/19 8/20/8
f 7/41/7 75/42/51 77/55/53 6/52/6
f 8/20/8 19/28/19 18/24/18 1/14/1
f 8/20/8 73/18/49 75/42/51 7/41/7
f 9/16/9 57/21/33 64/29/40 16/23/16
f 9/16/9 88/11/64 86/17/62 10/25/10
f 10/25/10 58/30/34 57/21/33 9/16/9
f 10/25/10 86/17/62 84/53/60 11/51/11
f 11/51/11 59/49/35 58/30/34 10/25/10
f 11/51/11 84/53/60 82/65/58 12/62/12
f 12/62/12 60/59/36 59/49/35 11/51/11
f 12/62/12 82/65/58 80/66/56 13/63/13
f 13/63/13 61/61/37 60/59/36 12/62/12
f 13/63/13 80/66/56 78/60/54 14/56/14
f 14/56/14 62/54/38 61/61/37 13/63/13
f 14/56/14 78/60/54 76/45/52 15/46/15
f 15/46/15 63/48/39 62/54/38 14/56/14
f 15/46/15 76/45/52 74/19/50 16/23/16
f 16/23/16 64/29/40 63/48/39 15/46/15
f 16/23/16 74/19/50 88/11/64 9/16/9
f 17/26/17 25/33/66 32/35/94 24/31/24
f 18/24/18 26/32/69 25/33/65 17/26/17
f 19/28/19 27/34/73 26/32/70 18/24/18
f 20/40/20 28/36/77 27/34/74 19/28/19
f 21/44/21 29/38/81 28/36/78 20/40/20
f 22/47/22 30/39/85 29/38/82 21/44/21
f 23/43/23 31/37/89 30/39/86 22/47/22
f 24/31/24 32/35/93 31/37/90 23/43/23
f 33/110/97 49/113/131 50/118/135 34/114/101
f 34/114/102 50/118/136 51/112/140 35/109/106
f 35/109/105 51/112/139 52/101/143 36/102/109
f 36/102/110 52/101/144 53/89/147 37/93/113
f 37/93/114 53/89/148 54/84/152 38/87/118
f 38/87/117 54/84/151 55/90/156 39/94/122
f 39/94/121 55/90/155 56/104/160 40/103/126
f 40/103/125 56/104/159 49/113/132 33/110/98
f 58/30/34 59/49/35 60/59/36 61/61/37 62/54/38 63/48/39 64/29/40 57/21/33
f 73/18/49 87/12/63 88/11/64 74/19/50
f 74/19/50 76/45/52 75/42/51 73/18/49
f 76/45/52 78/60/54 77/55/53 75/42/51
f 78/60/54 80/66/56 79/64/55 77/55/53
f 80/1/56 82/3/58 81/4/57 79/2/55
f 82/3/58 84/5/60 83/6/59 81/4/57
f 84/5/60 86/7/62 85/8/61 83/6/59
f 86/7/62 88/9/64 87/10/63 85/8/61
o Towel
#30 vertices, 31 faces
v 0.41245256 2.16986662 0.78026726
v -0.41245256 2.16986662 0.78026726
v -0.32854235 1.86075420 0.82366150
v 0.26304372 4.03391140 0.68453727
v -0.26304372 4.03391140 0.68453727
v 3.1493681e-17 4.03391140 0.79349355
v 0.41245256 2.16986662 0.71478435
v -0.41245256 2.16986662 0.71478435
v -0.32854235 1.86075420 0.75817859
v 0.26304372 4.03391140 0.42673054
v -0.26304372 4.03391140 0.42673054
v 3.1493681e-17 4.03391140 0.53568681
v 3.1493681e-17 2.1163629e-2 -0.39913157
v 0.26304372 2.1163629e-2 -0.29017529
v 0.26304372 2.1163629e-2 -3.2368561e-2
v 3.1493681e-17 2.1163629e-2 7.9652361e-2
v -0.26304372 2.1163629e-2 -3.2368561e-2
v -0.26304372 2.1163629e-2 -0.29017529
v 3.1493681e-17 4.40466229 -0.24291414
v 3.1493681e-17 4.59420746 0.29162009
v 3.1493681e-17 4.08728752 0.11888958
v 3.1493681e-17 4.22983975 0.35054747
v -0.26304372 4.16087268 3.3962612e-2
v -0.26304372 4.25500979 0.31185319
v -0.26304372 4.33182117 -0.16085629
v -0.26304372 4.48958562 0.29512842
v 0.26304372 4.33182117 -0.16085629
v 0.26304372 4.48958562 0.29512842
v 0.26304372 4.16087268 3.3962612e-2
v 0.26304372 4.25500979 0.31185319
vn 0.74429508 -0.41418204 0.52390655
vn -0.91490708 -4.6760633e-2 0.40094698
vn -0.19586362 -0.25732820 0.94626616
vn 0.70324747 -0.50447778 -0.50094427
vn -0.88698666 -0.14692614 -0.43779833
vn -0.14686900 -0.39765431 -0.90570445
vn 7.9383018e-17 -0.44730553 -0.89438122
vn 0.70606298 -0.50882168 -0.49251961
vn 0.70023638 -0.52414222 0.48471016
vn 7.8051510e-17 -0.47996998 0.87728491
vn -0.70023638 -0.52414222 0.48471016
vn -0.70606298 -0.50882168 -0.49251961
vn 8.9660127e-17 0.59129955 -0.80645201
vn 8.8145665e-17 0.96490521 0.26259843
vn 6.8972692e-17 -0.55153805 0.83414973
vn -1.8506230e-17 -0.96573887 -0.25951578
vn -0.85133063 -0.28935315 0.43761959
vn -0.80897360 -0.56770474 -0.15255505
vn -0.86705019 0.29459774 -0.40179117
vn -0.85714677 0.49699589 0.13525716
vn 0.86705019 0.29459774 -0.40179117
vn 0.85714677 0.49699589 0.13525716
vn 0.85133063 -0.28935315 0.43761959
vn 0.80897360 -0.56770474 -0.15255505
vn 0.69984982 0.18856926 0.68894983
vn 0.69984982 0.18856926 0.68894983
vn 0.69984982 0.18856926 0.68894983
vn 0.69984982 0.18856926 0.68894983
vn 0.69984982 0.18856926 0.68894983
vn -0.72519049 0.21406040 0.65442868
vn -0.72519049 0.21406040 0.65442868
vn -0.72519049 0.21406040 0.65442868
vn -0.72519049 0.21406040 0.65442868
vn -0.72519049 0.21406040 0.65442868
vn 3.0624599e-4 1.3834456e-2 0.99990425
vn 8.6510247e-17 0.65947140 0.75172966
vn 8.6510247e-17 0.65947140 0.75172966
vn 3.0624599e-4 1.3834456e-2 0.99990425
vn 0.45433660 -0.21751545 -0.86386647
vn 0.45433660 -0.21751545 -0.86386647
vn 0.45433660 -0.21751545 -0.86386647
vn 0.45433660 -0.21751545 -0.86386647
vn 0.45433660 -0.21751545 -0.86386647
vn -0.46142330 -0.25022532 -0.85116145
vn -0.46142330 -0.25022532 -0.85116145
vn -0.46142330 -0.25022532 -0.85116145
vn -0.46142330 -0.25022532 -0.85116145
vn -0.46142330 -0.25022532 -0.85116145
vn -2.2277056e-3 -0.10151586 -0.99483143
vn -4.2456934e-17 -0.58399372 -0.81175817
vn -4.2456934e-17 -0.58399372 -0.81175817
vn -2.2277056e-3 -0.10151586 -0.99483143
g Towel_default
usemtl default
s 1
f 89//161 92//185 91//163
f 89//161 95//164 98//200 92//186
f 90//162 96//165 97//166 91//163
f 91//163 93//194 90//162
f 91//163 97//166 95//164 89//161
f 92//187 116//182 108//174 94//197
f 93//190 91//163 94//195
f 93//191 99//205 96//165 90//162
f 93//192 114//180 112//178 99//207
f 94//198 91//163 92//189
f 94//196 108//174 114//180 93//193
f 96//165 99//204 97//166
f 97//166 98//203 95//164
f 98//199 97//166 100//209
f 98//201 118//184 116//182 92//188
f 99//206 112//178 110//176 100//210
f 100//212 97//166 99//208
f 100//211 110//176 118//184 98//202
f 101//167 107//173 115//181 102//168
f 102//168 103//169 104//170 105//171 106//172 101//167
f 102//168 115//181 117//183 103//169
f 103//169 117//183 109//175 104//170
f 104//170 109//175 111//177 105//171
f 105//171 111//177 113//179 106//172
f 106//172 113//179 107//173 101//167
f 107//173 113//179 114//180 108//174
f 108//174 116//182 115//181 107//173
f 109//175 117//183 118//184 110//176
f 110//176 112//178 111//177 109//175
f 112//178 114//180 113//179 111//177
f 116//182 118//184 117//183 115//181
o Liquid
#24 vertices, 18 faces
v 0.82166598 0.95268009 -1.4203376e-17
v 0.58100559 0.95268009 0.58100559
v 3.9976671e-17 0.95268009 0.82166598
v -0.58100559 0.95268009 0.58100559
v -0.82166598 0.95268009 9.8157993e-17
v -0.58100559 0.95268009 -0.58100559
v -1.6380765e-16 0.95268009 -0.82166598
v 0.58100559 0.95268009 -0.58100559
v 0.82166598 -1.54761755 2.0664641e-17
v 0.58100559 -1.54761755 0.58100559
v 2.5370485e-17 -1.54761755 0.82166598
v -0.58100559 -1.54761755 0.58100559
v -0.82166598 -1.54761755 1.2671684e-16
v -0.58100559 -1.54761755 -0.58100559
v -1.6717825e-16 -1.54761755 -0.82166598
v 0.58100559 -1.54761755 -0.58100559
v 0.60325302 -1.72240759 -6.7426551e-17
v 0.42656430 -1.72240759 0.42656430
v 9.0148615e-18 -1.72240759 0.60325302
v -0.42656430 -1.72240759 0.42656430
v -0.60325302 -1.72240759 4.4412185e-17
v -0.42656430 -1.72240759 -0.42656430
v -3.7045869e-17 -1.72240759 -0.60325302
v 0.42656430 -1.72240759 -0.42656430
vn 0.89641821 -0.44320920 -6.5099489e-17
vn 0.63386339 -0.44320920 0.63386339
vn 1.6274872e-17 -0.44320920 0.89641821
vn -0.63386339 -0.44320920 0.63386339
vn -0.89641821 -0.44320920 9.7649234e-17
vn -0.63386339 -0.44320920 -0.63386339
vn -1.1392411e-16 -0.44320920 -0.89641821
vn 0.63386339 -0.44320920 -0.63386339
vn 0.43394444 -0.90093964 -3.9823064e-17
vn 0.30684505 -0.90093964 0.30684505
vn -1.1946919e-16 -0.90093964 0.43394444
vn -0.30684505 -0.90093964 0.30684505
vn -0.43394444 -0.90093964 5.9734596e-17
vn -0.30684505 -0.90093964 -0.30684505
vn -1.5929225e-16 -0.90093964 -0.43394444
vn 0.30684505 -0.90093964 -0.30684505
vn 1.00000000 -4.7765929e-18 -3.0042419e-17
vn 1.00000000 -4.7765929e-18 -3.0042419e-17
vn 0.0000000e+0 1.00000000 -1.0174490e-16
vn 0.70710678 0.0000000e+0 0.70710678
vn 0.70710678 0.0000000e+0 0.70710678
vn 0.0000000e+0 1.00000000 -1.0174490e-16
vn 3.0042419e-17 0.0000000e+0 1.00000000
vn 3.0042419e-17 0.0000000e+0 1.00000000
vn 0.0000000e+0 1.00000000 -1.0174490e-16
vn -0.70710678 0.0000000e+0 0.70710678
vn -0.70710678 0.0000000e+0 0.70710678
vn 0.0000000e+0 1.00000000 -1.0174490e-16
vn -1.00000000 0.0000000e+0 1.2016967e-16
vn -1.00000000 0.0000000e+0 1.2016967e-16
vn 0.0000000e+0 1.00000000 -1.0174490e-16
vn -0.70710678 4.7765929e-18 -0.70710678
vn -0.70710678 4.7765929e-18 -0.70710678
vn 0.0000000e+0 1.00000000 -1.0174490e-16
vn -1.5021209e-16 -9.5531858e-18 -1.00000000
vn -1.5021209e-16 -9.5531858e-18 -1.00000000
vn 0.0000000e+0 1.00000000 -1.0174490e-16
vn 0.70710678 -1.9106372e-17 -0.70710678
vn 0.70710678 -1.9106372e-17 -0.70710678
vn 0.0000000e+0 1.00000000 -1.0174490e-16
g Liquid_default
usemtl default
s 1
f 119//231 126//252 125//249 124//246 123//243 122//240 121//237 120//234
s 2
f 119//229 127//213 134//220 126//250
f 120//233 128//214 127//213 119//230
f 121//236 129//215 128//214 120//232
f 122//239 130//216 129//215 121//235
f 123//242 131//217 130//216 122//238
f 124//245 132//218 131//217 123//241
f 125//248 133//219 132//218 124//244
f 126//251 134//220 133//219 125//247
f 127//213 135//221 142//228 134//220
f 128//214 136//222 135//221 127//213
f 129//215 137//223 136//222 128//214
f 130//216 138//224 137//223 129//215
f 131//217 139//225 138//224 130//216
f 132//218 140//226 139//225 131//217
f 133//219 141//227 140//226 132//218
f 134//220 142//228 141//227 133//219
f 136//222 137//223 138//224 139//225 140//226 141//227 142//228 135//221
