# Exported from Wings 3D 1.5.3
mtllib RedDotSight.mtl
o RedDotSight
#82 vertices, 64 faces
v -1.00000000 -0.21000000 -1.00000000
v -1.00000000 -0.21000000 1.00000000
v -1.00000000 0.21000000 -1.00000000
v -1.00000000 0.21000000 1.00000000
v 1.00000000 -0.21000000 -1.00000000
v 1.00000000 -0.21000000 1.00000000
v 1.00000000 0.21000000 -1.00000000
v 1.00000000 0.21000000 1.00000000
v -0.75657671 0.21000000 1.00000000
v 0.75657671 0.21000000 1.00000000
v -0.75657671 0.21000000 -1.00000000
v 0.75657671 0.21000000 -1.00000000
v -0.75657671 0.21000000 0.72297768
v -0.75657671 0.21000000 -0.80099556
v 0.75657671 0.21000000 0.72297768
v 0.75657671 0.21000000 -0.80099556
v 1.00000000 0.21000000 -0.80099556
v 1.00000000 0.21000000 0.72297768
v -1.00000000 0.21000000 0.72297768
v -1.00000000 0.21000000 -0.80099556
v -0.68600000 1.45224836 -0.80099556
v -0.68600000 1.45224836 -0.63930635
v 0.68600000 1.45224836 -0.63930635
v 0.68600000 1.45224836 -0.80099556
v -0.51901162 1.62712955 -0.63930635
v -0.51901162 1.62712955 -0.80099556
v 0.51901162 1.62712955 -0.63930635
v 0.51901162 1.62712955 -0.80099556
v -0.63542388 1.57655343 -0.80099556
v -0.63542388 1.57655343 -0.63930635
v 0.63542388 1.57655343 -0.63930635
v 0.63542388 1.57655343 -0.80099556
v 0.77788190 0.95168144 -0.36566437
v 0.90811810 0.43644031 0.19936336
v -0.77788190 0.95168144 -0.36566437
v -0.90811810 0.43644031 0.19936336
v -0.58825882 0.95361488 -0.36672131
v -0.68732951 0.43556569 0.20138581
v 0.58825882 0.95361488 -0.36672131
v 0.68732951 0.43556569 0.20138581
v -0.36604784 1.45224836 -0.63930635
v -0.51901162 1.60521214 -0.63930635
v -0.67197541 1.45224836 -0.63930635
v -0.53751413 1.31901595 -0.56647297
v -0.36604784 1.45224836 -0.80099556
v -0.51901162 1.60521214 -0.80099556
v -0.67197541 1.45224836 -0.80099556
v -0.54774344 1.30200722 -0.80099556
v 0.53751413 1.31901595 -0.56647297
v 0.67197541 1.45224836 -0.63930635
v 0.51901162 1.60521214 -0.63930635
v 0.36604784 1.45224836 -0.63930635
v 0.36604784 1.45224836 -0.80099556
v 0.51901162 1.60521214 -0.80099556
v 0.67197541 1.45224836 -0.80099556
v 0.54774344 1.30200722 -0.80099556
v -1.00000000 0.21000000 2.20058566
v -1.00000000 -0.21000000 2.20058566
v 1.00000000 -0.21000000 2.20058566
v 1.00000000 0.21000000 2.20058566
v 0.75657671 0.21000000 2.20058566
v -0.75657671 0.21000000 2.20058566
v -0.10711300 0.21000000 1.96166911
v -0.64607444 0.21000000 2.12619041
v -0.40170429 0.21000000 1.66707782
v 0.40170429 0.21000000 1.66707782
v 0.64607444 0.21000000 2.12619041
v 0.10711300 0.21000000 1.96166911
v 0.10711300 0.21000000 1.23891655
v 0.64607444 0.21000000 1.07439525
v 0.40170429 0.21000000 1.53350783
v -0.40170429 0.21000000 1.53350783
v -0.10711300 0.21000000 1.23891655
v -0.64607444 0.21000000 1.07439525
v -0.10711300 0.44890635 1.96166911
v -0.40170429 0.44890635 1.66707782
v 0.40170429 0.44890635 1.66707782
v 0.10711300 0.44890635 1.96166911
v 0.10711300 0.44890635 1.23891655
v 0.40170429 0.44890635 1.53350783
v -0.40170429 0.44890635 1.53350783
v -0.10711300 0.44890635 1.23891655
vt 3.0388509e-2 0.58061296
vt 3.0547117e-2 0.58304458
vt 3.0652494e-2 0.58070253
vt 3.2216759e-2 0.58449581
vt 3.2326293e-2 0.58419488
vt 3.2799410e-2 0.56914530
vt 3.4224116e-2 0.57898176
vt 3.5041779e-2 0.55424923
vt 3.5082313e-2 0.53562221
vt 3.5501152e-2 0.58312606
vt 3.5913946e-2 0.54601214
vt 3.6359511e-2 0.57039073
vt 3.6472542e-2 0.54434590
vt 3.6849687e-2 0.53533685
vt 3.7459462e-2 0.55210275
vt 3.7501243e-2 0.55326382
vt 3.7513890e-2 0.55287683
vt 3.7691486e-2 0.53586211
vt 3.8179871e-2 0.54894325
vt 3.8315768e-2 0.54425851
vt 3.8612155e-2 0.55309626
vt 3.8696317e-2 0.55408983
vt 3.8764751e-2 0.54621600
vt 3.8814756e-2 0.55522659
vt 3.8951057e-2 0.54368776
vt 3.9209115e-2 0.55192462
vt 3.9267795e-2 0.55360660
vt 3.9862048e-2 0.55301169
vt 3.9903938e-2 0.55395509
vt 3.9938461e-2 0.53913519
vt 4.0126163e-2 0.54016757
vt 4.1542216e-2 0.53700238
vt 4.2212124e-2 0.54241618
vt 4.3031005e-2 0.53702190
vt 4.3497303e-2 0.54237436
vt 4.4855189e-2 0.58807933
vt 4.5124354e-2 0.53921476
vt 4.5143933e-2 0.54017282
vt 4.5972911e-2 0.59140113
vt 4.6161865e-2 0.59107373
vt 4.6674423e-2 0.55728277
vt 4.6806510e-2 0.53590367
vt 4.6822050e-2 0.55267065
vt 4.6833447e-2 0.54329889
vt 4.6875805e-2 0.55357757
vt 4.7071871e-2 0.57614892
vt 4.7094694e-2 0.58592442
vt 4.7203466e-2 0.54583274
vt 4.7528735e-2 0.54377538
vt 4.7578730e-2 0.53537598
vt 4.7894386e-2 0.55256262
vt 4.7981503e-2 0.55345109
vt 4.8079771e-2 0.54838805
vt 4.8454885e-2 0.59123836
vt 4.8598494e-2 0.55146847
vt 4.8694789e-2 0.55315341
vt 4.9236607e-2 0.53533685
vt 4.9419595e-2 0.54352051
vt 4.9505007e-2 0.55128995
vt 4.9838372e-2 0.58910368
vt 4.9995187e-2 0.55238381
vt 5.0056970e-2 0.55243185
vt 5.0176137e-2 0.58915218
vt 5.0863084e-2 0.54554077
vt 5.1459821e-2 0.55660003
vt 5.1589091e-2 0.55353135
vt 5.1589091e-2 0.57436458
vt 5.1589091e-2 0.57549512
vt 5.1589091e-2 0.55180275
vt 5.1589091e-2 0.56548285
vt 5.1589091e-2 0.56909786
vt 5.1589091e-2 0.57271287
vt 5.1726234e-2 0.57271287
vt 5.2224232e-2 0.57376914
vt 5.2819302e-2 0.57342177
vt 5.2970563e-2 0.53533685
vt 5.3726168e-2 0.55328611
vt 5.4933760e-2 0.57770925
vt 5.5045934e-2 0.55209276
vt 5.5155643e-2 0.57502028
vt 5.5184032e-2 0.55045452
vt 5.5592295e-2 0.56411827
vt 5.5712643e-2 0.56410362
vt 5.5895102e-2 0.57293742
vt 5.6122134e-2 0.56513838
vt 5.6237022e-2 0.53790661
vt 5.6304775e-2 0.57566785
vt 5.6429029e-2 0.53562504
vt 5.6661960e-2 0.56266819
vt 5.7107052e-2 0.57621692
vt 5.7138313e-2 0.56529727
vt 5.7148179e-2 0.56548285
vt 5.7516725e-2 0.57894735
vt 5.7886296e-2 0.54238490
vt 5.8256183e-2 0.57686450
vt 5.8393032e-2 0.56389366
vt 5.8478067e-2 0.57417552
vt 6.0592524e-2 0.57846300
vt 6.1187595e-2 0.57811564
vt 6.1685593e-2 0.57917190
vt 6.1822736e-2 0.57752019
vt 6.1862891e-2 0.54741114
vt 6.1922740e-2 0.56548285
vt 6.1922740e-2 0.56801845
vt 6.1922740e-2 0.56909786
vt 6.1922740e-2 0.56916811
vt 6.1922740e-2 0.57271287
vt 6.4458338e-2 0.56548285
vt 6.4458338e-2 0.57170370
vt 6.4743486e-2 0.56361067
vt 6.5735778e-2 0.55136438
vt 6.5846019e-2 0.55002884
vt 6.6106545e-2 0.56488118
vt 6.6117812e-2 0.56506692
vt 6.6302218e-2 0.56548285
vt 6.6302218e-2 0.57170370
vt 6.6324799e-2 0.56231482
vt 6.6870795e-2 0.55145216
vt 6.6945832e-2 0.55009419
vt 6.7062596e-2 0.56461452
vt 6.7344308e-2 0.56358428
vt 6.7457818e-2 0.56358553
vt 6.7961988e-2 0.55150722
vt 6.8001438e-2 0.55012817
vt 6.8268268e-2 0.55328611
vt 6.8837817e-2 0.56801845
vt 6.8837817e-2 0.56916811
vt 7.0288800e-2 0.55328611
vt 7.0288800e-2 0.55333147
vt 7.0288800e-2 0.56361975
vt 7.0288800e-2 0.56723477
vt 7.0288800e-2 0.57084978
vt 7.0288800e-2 0.57084978
vt 7.0288800e-2 0.58806413
vt 7.2383987e-2 0.56723477
vt 7.2383987e-2 0.57084978
vt 7.6841732e-2 0.55172790
vt 7.6870748e-2 0.55034180
vt 7.7954156e-2 0.55034034
vt 7.7955048e-2 0.55175106
vt 7.9122516e-2 0.55031389
vt 7.9151500e-2 0.55175200
vt 8.3604039e-2 0.54775833
vt 8.5407960e-2 0.56723477
vt 8.5407960e-2 0.57084978
vt 8.7503147e-2 0.56361975
vt 8.7503147e-2 0.56723477
vt 8.7503147e-2 0.57084978
vt 8.7503147e-2 0.57084978
vt 8.7503147e-2 0.58806413
vt 8.7503147e-2 0.55328611
vt 8.8247210e-2 0.54260720
vt 9.0295071e-2 0.53540567
vt 9.0341840e-2 0.53788435
vt 9.0600063e-2 0.55150648
vt 9.0632881e-2 0.55328611
vt 9.4048995e-2 0.53533685
vt 9.4388509e-2 0.55321309
vn 0.0000000e+0 1.00000000 2.5768272e-18
vn 0.0000000e+0 1.00000000 -2.5768272e-18
vn -6.5724697e-17 8.2779057e-2 0.99656792
vn -1.6685894e-14 0.24722836 0.96895724
vn -5.2217587e-16 0.0000000e+0 -1.00000000
vn -5.2217587e-16 0.0000000e+0 -1.00000000
vn 1.6619239e-14 0.24722836 0.96895724
vn 0.0000000e+0 8.2779057e-2 0.99656792
vn 2.6108793e-16 0.0000000e+0 -1.00000000
vn 2.6108793e-16 0.0000000e+0 -1.00000000
vn 0.0000000e+0 1.00000000 -4.0348521e-17
vn 0.0000000e+0 1.00000000 -4.8937945e-17
vn 0.0000000e+0 1.00000000 4.0348521e-17
vn 0.0000000e+0 1.00000000 4.8937945e-17
vn 0.0000000e+0 -1.00000000 0.0000000e+0
vn 0.0000000e+0 0.0000000e+0 -1.00000000
vn -1.00000000 0.0000000e+0 0.0000000e+0
vn 0.0000000e+0 -1.00000000 0.0000000e+0
vn -1.00000000 0.0000000e+0 0.0000000e+0
vn -1.00000000 0.0000000e+0 0.0000000e+0
vn 0.0000000e+0 -1.00000000 0.0000000e+0
vn 0.0000000e+0 0.0000000e+0 -1.00000000
vn -1.00000000 0.0000000e+0 0.0000000e+0
vn 0.0000000e+0 1.00000000 0.0000000e+0
vn 0.0000000e+0 1.00000000 0.0000000e+0
vn -1.00000000 0.0000000e+0 0.0000000e+0
vn -1.00000000 0.0000000e+0 0.0000000e+0
vn 0.0000000e+0 1.00000000 0.0000000e+0
vn 0.0000000e+0 -1.00000000 0.0000000e+0
vn 0.0000000e+0 0.0000000e+0 -1.00000000
vn 1.00000000 0.0000000e+0 0.0000000e+0
vn 0.0000000e+0 -1.00000000 0.0000000e+0
vn 1.00000000 0.0000000e+0 0.0000000e+0
vn 0.0000000e+0 -1.00000000 0.0000000e+0
vn 1.00000000 0.0000000e+0 0.0000000e+0
vn 0.0000000e+0 0.0000000e+0 -1.00000000
vn 1.00000000 0.0000000e+0 0.0000000e+0
vn 0.0000000e+0 1.00000000 0.0000000e+0
vn 1.00000000 0.0000000e+0 0.0000000e+0
vn 0.0000000e+0 1.00000000 0.0000000e+0
vn 1.00000000 0.0000000e+0 0.0000000e+0
vn 0.0000000e+0 1.00000000 0.0000000e+0
vn 0.0000000e+0 0.0000000e+0 -1.00000000
vn 0.0000000e+0 1.00000000 0.0000000e+0
vn 0.0000000e+0 1.00000000 0.0000000e+0
vn 0.0000000e+0 0.0000000e+0 -1.00000000
vn 0.0000000e+0 1.00000000 0.0000000e+0
vn 0.0000000e+0 1.00000000 0.0000000e+0
vn 0.25378898 0.96248887 9.5949599e-2
vn 0.25378898 0.96248887 9.5949599e-2
vn 0.25378898 0.96248887 9.5949599e-2
vn 0.25378898 0.96248887 9.5949599e-2
vn 0.25378898 0.96248887 9.5949599e-2
vn 0.33092461 0.94360875 -9.5613290e-3
vn 0.33092461 0.94360875 -9.5613290e-3
vn 0.0000000e+0 0.0000000e+0 -1.00000000
vn 0.33092461 0.94360875 -9.5613290e-3
vn 0.33092461 0.94360875 -9.5613290e-3
vn -0.25378898 0.96248887 9.5949599e-2
vn -0.25378898 0.96248887 9.5949599e-2
vn -0.25378898 0.96248887 9.5949599e-2
vn -0.25378898 0.96248887 9.5949599e-2
vn -0.25378898 0.96248887 9.5949599e-2
vn -0.33092461 0.94360875 -9.5613290e-3
vn -0.33092461 0.94360875 -9.5613290e-3
vn 0.0000000e+0 0.0000000e+0 -1.00000000
vn -0.33092461 0.94360875 -9.5613290e-3
vn -0.33092461 0.94360875 -9.5613290e-3
vn 0.98962218 0.14252170 1.8316578e-2
vn 0.0000000e+0 1.00000000 0.0000000e+0
vn 0.98962218 0.14252170 1.8316578e-2
vn 0.0000000e+0 0.0000000e+0 -1.00000000
vn 0.98962218 0.14252170 1.8316578e-2
vn -1.3237450e-13 0.97924692 0.20267085
vn 0.98962218 0.14252170 1.8316578e-2
vn -1.3237450e-13 0.97924692 0.20267085
vn 1.3237450e-13 0.97924692 0.20267085
vn -0.98962218 0.14252170 1.8316578e-2
vn -0.98962218 0.14252170 1.8316578e-2
vn 1.3237450e-13 0.97924692 0.20267085
vn -0.98962218 0.14252170 1.8316578e-2
vn 0.0000000e+0 1.00000000 0.0000000e+0
vn 0.0000000e+0 0.0000000e+0 -1.00000000
vn -0.98962218 0.14252170 1.8316578e-2
vn -7.8326380e-16 0.0000000e+0 -1.00000000
vn -0.94382512 0.32994643 1.8152265e-2
vn -7.8326380e-16 0.0000000e+0 -1.00000000
vn -0.94382512 0.32994643 1.8152265e-2
vn -0.94382512 0.32994643 1.8152265e-2
vn -2.5296829e-14 0.24753887 0.96887796
vn -0.94382512 0.32994643 1.8152265e-2
vn -2.5296829e-14 0.24753887 0.96887796
vn 2.5195776e-14 0.24753887 0.96887796
vn 0.94382512 0.32994643 1.8152265e-2
vn 2.5195776e-14 0.24753887 0.96887796
vn 0.94382512 0.32994643 1.8152265e-2
vn 0.94382512 0.32994643 1.8152265e-2
vn 3.9163190e-16 0.0000000e+0 -1.00000000
vn 0.94382512 0.32994643 1.8152265e-2
vn 3.9163190e-16 0.0000000e+0 -1.00000000
vn -0.20349541 0.97907590 0.0000000e+0
vn -0.20349541 0.97907590 0.0000000e+0
vn -9.7907975e-17 0.0000000e+0 1.00000000
vn -9.7907975e-17 0.0000000e+0 1.00000000
vn -0.20349541 0.97907590 0.0000000e+0
vn -0.20349541 0.97907590 0.0000000e+0
vn -7.8326380e-16 0.0000000e+0 -1.00000000
vn -7.8326380e-16 0.0000000e+0 -1.00000000
vn 0.20349541 0.97907590 0.0000000e+0
vn 0.20349541 0.97907590 0.0000000e+0
vn 0.0000000e+0 0.0000000e+0 1.00000000
vn 0.0000000e+0 0.0000000e+0 1.00000000
vn 0.20349541 0.97907590 0.0000000e+0
vn 0.20349541 0.97907590 0.0000000e+0
vn 3.9163190e-16 0.0000000e+0 -1.00000000
vn 3.9163190e-16 0.0000000e+0 -1.00000000
vn -0.71534460 0.69877186 0.0000000e+0
vn -1.5665276e-15 0.0000000e+0 -1.00000000
vn -0.71534460 0.69877186 0.0000000e+0
vn -0.71534460 0.69877186 0.0000000e+0
vn -0.71534460 0.69877186 0.0000000e+0
vn -1.9581595e-16 0.0000000e+0 1.00000000
vn 0.71534460 0.69877186 0.0000000e+0
vn 0.0000000e+0 0.0000000e+0 1.00000000
vn 0.71534460 0.69877186 0.0000000e+0
vn 0.71534460 0.69877186 0.0000000e+0
vn 0.71534460 0.69877186 0.0000000e+0
vn 7.8326380e-16 0.0000000e+0 -1.00000000
vn 1.7700070e-3 0.61794397 0.78622014
vn 0.95870414 0.28208527 3.6252984e-2
vn 1.7700070e-3 0.61794397 0.78622014
vn 0.95870414 0.28208527 3.6252984e-2
vn 1.7698526e-3 0.84000860 0.54257019
vn 1.7698526e-3 0.84000860 0.54257019
vn -0.95870414 0.28208527 3.6252984e-2
vn -1.7700070e-3 0.61794397 0.78622014
vn -1.7700070e-3 0.61794397 0.78622014
vn -0.95870414 0.28208527 3.6252984e-2
vn -1.7698526e-3 0.84000860 0.54257019
vn -1.7698526e-3 0.84000860 0.54257019
vn -1.7700070e-3 0.61794397 0.78622014
vn 0.97535002 -0.21885655 -2.8180565e-2
vn -1.7700070e-3 0.61794397 0.78622014
vn 0.97535002 -0.21885655 -2.8180565e-2
vn -1.7698526e-3 0.84000860 0.54257019
vn -1.7698526e-3 0.84000860 0.54257019
vn 1.7700070e-3 0.61794397 0.78622014
vn -0.97535002 -0.21885655 -2.8180565e-2
vn 1.7700070e-3 0.61794397 0.78622014
vn -0.97535002 -0.21885655 -2.8180565e-2
vn 1.7698526e-3 0.84000860 0.54257019
vn 1.7698526e-3 0.84000860 0.54257019
vn 0.33303991 -0.94286869 9.1127119e-3
vn 0.0000000e+0 0.12427675 0.99224759
vn 0.33303991 -0.94286869 9.1127119e-3
vn 0.0000000e+0 0.12427675 0.99224759
vn -2.4605272e-14 0.36602885 0.93060350
vn 0.84923145 -0.52798866 -5.8242578e-3
vn 0.84923145 -0.52798866 -5.8242578e-3
vn -2.4605272e-14 0.36602885 0.93060350
vn 0.33303991 -0.94286869 9.1127119e-3
vn 0.0000000e+0 0.0000000e+0 -1.00000000
vn 0.33303991 -0.94286869 9.1127119e-3
vn 0.0000000e+0 0.0000000e+0 -1.00000000
vn 0.0000000e+0 0.0000000e+0 -1.00000000
vn 0.84923145 -0.52798866 -5.8242578e-3
vn 0.84923145 -0.52798866 -5.8242578e-3
vn 0.0000000e+0 0.0000000e+0 -1.00000000
vn 2.4605272e-14 0.36602885 0.93060350
vn -0.84923145 -0.52798866 -5.8242578e-3
vn -0.84923145 -0.52798866 -5.8242578e-3
vn 2.4605272e-14 0.36602885 0.93060350
vn -0.33303991 -0.94286869 9.1127119e-3
vn 0.0000000e+0 0.12427675 0.99224759
vn -0.33303991 -0.94286869 9.1127119e-3
vn 0.0000000e+0 0.12427675 0.99224759
vn -0.33303991 -0.94286869 9.1127119e-3
vn 0.0000000e+0 0.0000000e+0 -1.00000000
vn -0.33303991 -0.94286869 9.1127119e-3
vn 0.0000000e+0 0.0000000e+0 -1.00000000
vn 0.0000000e+0 0.0000000e+0 -1.00000000
vn -0.84923145 -0.52798866 -5.8242578e-3
vn -0.84923145 -0.52798866 -5.8242578e-3
vn 0.0000000e+0 0.0000000e+0 -1.00000000
vn 0.0000000e+0 0.0000000e+0 1.00000000
vn -1.00000000 0.0000000e+0 0.0000000e+0
vn 0.0000000e+0 1.00000000 0.0000000e+0
vn 0.0000000e+0 0.0000000e+0 1.00000000
vn -1.00000000 0.0000000e+0 0.0000000e+0
vn 0.0000000e+0 -1.00000000 0.0000000e+0
vn 0.0000000e+0 0.0000000e+0 1.00000000
vn 0.0000000e+0 -1.00000000 0.0000000e+0
vn 1.00000000 0.0000000e+0 0.0000000e+0
vn 0.0000000e+0 0.0000000e+0 1.00000000
vn 1.00000000 0.0000000e+0 0.0000000e+0
vn 0.0000000e+0 1.00000000 0.0000000e+0
vn 0.0000000e+0 0.0000000e+0 1.00000000
vn 0.0000000e+0 1.00000000 -4.2947120e-18
vn 0.0000000e+0 1.00000000 -4.2947120e-18
vn 0.0000000e+0 1.00000000 -4.2947120e-18
vn 0.0000000e+0 0.0000000e+0 1.00000000
vn 0.0000000e+0 1.00000000 4.2947120e-18
vn 0.0000000e+0 1.00000000 4.2947120e-18
vn 0.0000000e+0 1.00000000 4.2947120e-18
vn 0.0000000e+0 1.00000000 -6.6964850e-17
vn -0.38268343 0.0000000e+0 0.92387953
vn 0.0000000e+0 1.00000000 -6.6964850e-17
vn -0.38268343 0.0000000e+0 0.92387953
vn 0.0000000e+0 1.00000000 -6.0522782e-17
vn -0.92387953 0.0000000e+0 0.38268343
vn 0.0000000e+0 1.00000000 -6.0522782e-17
vn -0.92387953 0.0000000e+0 0.38268343
vn 0.0000000e+0 1.00000000 -7.3406918e-17
vn 0.92387953 0.0000000e+0 0.38268343
vn 0.92387953 0.0000000e+0 0.38268343
vn 0.0000000e+0 1.00000000 -7.3406918e-17
vn 0.0000000e+0 1.00000000 -6.6964850e-17
vn 0.38268343 0.0000000e+0 0.92387953
vn 0.38268343 0.0000000e+0 0.92387953
vn 0.0000000e+0 1.00000000 -6.6964850e-17
vn 0.0000000e+0 1.00000000 6.6964850e-17
vn 0.38268343 0.0000000e+0 -0.92387953
vn 0.38268343 0.0000000e+0 -0.92387953
vn 0.0000000e+0 1.00000000 6.6964850e-17
vn 0.0000000e+0 1.00000000 6.0522782e-17
vn 0.92387953 0.0000000e+0 -0.38268343
vn 0.92387953 0.0000000e+0 -0.38268343
vn 0.0000000e+0 1.00000000 6.0522782e-17
vn 0.0000000e+0 1.00000000 7.3406918e-17
vn -0.92387953 0.0000000e+0 -0.38268343
vn 0.0000000e+0 1.00000000 7.3406918e-17
vn -0.92387953 0.0000000e+0 -0.38268343
vn 0.0000000e+0 1.00000000 6.6964850e-17
vn -0.38268343 0.0000000e+0 -0.92387953
vn 0.0000000e+0 1.00000000 6.6964850e-17
vn -0.38268343 0.0000000e+0 -0.92387953
vn 0.0000000e+0 1.00000000 6.8179175e-17
vn -0.38268343 0.0000000e+0 0.92387953
vn -0.38268343 0.0000000e+0 0.92387953
vn 0.0000000e+0 1.00000000 6.8179175e-17
vn -0.92387953 0.0000000e+0 0.38268343
vn -0.92387953 0.0000000e+0 0.38268343
vn 0.0000000e+0 1.00000000 6.8179175e-17
vn 0.92387953 0.0000000e+0 0.38268343
vn 0.92387953 0.0000000e+0 0.38268343
vn 0.0000000e+0 1.00000000 6.8179175e-17
vn 0.38268343 0.0000000e+0 0.92387953
vn 0.38268343 0.0000000e+0 0.92387953
vn 0.0000000e+0 1.00000000 6.8179175e-17
vn 0.38268343 0.0000000e+0 -0.92387953
vn 0.38268343 0.0000000e+0 -0.92387953
vn 0.0000000e+0 1.00000000 6.8179175e-17
vn 0.92387953 0.0000000e+0 -0.38268343
vn 0.92387953 0.0000000e+0 -0.38268343
vn 0.0000000e+0 1.00000000 6.8179175e-17
vn -0.92387953 0.0000000e+0 -0.38268343
vn -0.92387953 0.0000000e+0 -0.38268343
vn 0.0000000e+0 1.00000000 6.8179175e-17
vn -0.38268343 0.0000000e+0 -0.92387953
vn -0.38268343 0.0000000e+0 -0.92387953
g RedDotSight_Cube1_auv
usemtl Cube1_auv
s 1
f 2/71/20 58/105/189 57/107/186 4/72/27
f 3/147/22 11/144/43 12/135/46 7/131/36 5/130/30 1/146/16
f 8/105/41 60/71/195 59/70/193 6/103/35
f 14/125/56 20/129/83 21/122/85 47/121/6 48/117/165
f 16/77/66 56/89/181 55/83/10 24/82/98 17/66/72
f 21/122/87 29/120/118 26/114/108 46/113/5 47/121/6
f 28/92/116 32/85/128 24/82/100 55/83/10 54/91/9
f 46/113/5 45/110/164 48/117/168 47/121/6
f 54/91/9 53/96/178 45/110/162 46/113/5 26/114/107 28/92/115
f 54/91/9 55/83/10 56/89/184 53/96/180
f 76/104/240 75/108/237 78/115/246 77/126/243 80/127/252 79/116/249 82/109/258 81/106/255
s 2
f 1/150/15 5/134/29 6/133/32 2/149/18
f 58/131/188 59/147/191 60/148/194 61/145/197 62/136/201 57/132/185
f 65/98/210 76/101/241 81/100/256 72/99/230
f 68/80/219 66/74/215 77/73/245 78/84/248
f 68/80/218 78/84/247 75/97/238 63/90/206
f 71/75/227 69/87/223 79/78/251 80/67/254
f 71/75/226 80/67/253 77/73/244 66/74/214
f 73/95/234 82/93/259 79/78/250 69/87/222
f 75/97/239 76/101/242 65/98/212 63/90/208
f 81/100/257 82/93/260 73/95/236 72/99/232
s 3
f 2/76/19 4/88/26 19/86/78 20/81/81 3/79/23 1/69/17
f 5/158/31 7/156/37 17/155/69 18/154/73 8/153/39 6/157/33
f 6/130/34 59/128/192 58/151/190 2/146/21
f 17/155/71 24/142/97 23/141/94 33/143/130 34/152/132 18/154/75
f 19/86/79 36/94/138 35/102/135 22/112/89 21/111/86 20/81/84
f 22/112/91 30/119/121 29/118/119 21/111/88
f 24/142/99 32/140/127 31/139/125 23/141/96
f 25/124/101 27/138/110 28/137/114 26/123/105
f 26/123/106 29/118/117 30/119/120 25/124/102
f 27/138/109 31/139/123 32/140/126 28/137/113
s 4
f 4/13/28 57/9/187 62/14/202 9/20/1
f 7/52/38 12/45/47 16/43/64 17/51/70
f 8/58/40 18/64/74 15/48/60 10/49/2
f 9/20/1 13/23/49 19/11/77 4/13/25
f 9/20/1 74/25/14 73/33/233 69/35/221 70/44/13 10/49/2
f 10/49/2 15/48/59 13/23/50 9/20/1
f 10/49/2 61/50/198 60/57/196 8/58/42
f 10/49/2 70/44/13 71/38/225 66/37/213 67/42/12 61/50/200
f 11/29/45 14/28/55 16/43/65 12/45/48
f 13/23/53 38/24/145 36/8/139 19/11/80
f 15/48/62 16/43/68 14/28/57 13/23/51
f 15/48/63 18/64/76 34/65/133 40/41/151
f 20/21/82 14/28/54 11/29/44 3/22/24
f 23/63/95 31/54/124 27/39/111 51/40/8 50/60/7
f 25/4/103 30/2/122 22/1/92 43/3/4 42/5/3
f 35/6/136 37/12/141 44/7/157 43/3/4 22/1/90
f 37/12/143 35/6/137 36/8/140 38/24/146
f 40/41/152 34/65/134 33/68/131 39/46/149
f 40/53/150 39/59/148 49/62/170 56/61/182 16/43/67 15/48/61
f 42/5/3 41/10/154 52/36/174 51/40/8 27/39/112 25/4/104
f 42/5/3 43/3/4 44/7/160 41/10/156
f 48/17/166 44/16/158 37/15/142 38/19/144 13/23/52 14/28/58
f 48/17/167 45/26/163 41/27/155 44/16/159
f 50/60/7 49/47/169 39/46/147 33/68/129 23/63/93
f 51/40/8 52/36/176 49/47/172 50/60/7
f 53/55/177 52/56/173 41/27/153 45/26/161
f 53/55/179 56/61/183 49/62/171 52/56/175
f 61/50/199 67/42/12 68/34/217 63/32/205 64/18/11 62/14/203
f 62/14/204 64/18/11 65/30/209 72/31/229 74/25/14 9/20/1
f 63/32/207 65/30/211 64/18/11
f 67/42/12 66/37/216 68/34/220
f 69/35/224 71/38/228 70/44/13
f 74/25/14 72/31/231 73/33/235
